<?xml version="1.0" encoding="UTF-8"?>
<svg id="svg14" xmlns="http://www.w3.org/2000/svg" viewBox="0 0 512 512">
  <defs>
    <style>
      .cls-1 {
        fill: #d40000;
      }
    </style>
  </defs>
  <path id="path2" d="M123.53,156.83v22.23H388.55v-44.45H123.53v22.23Zm38.47-11.8c6.41,4.45,8.46,11.2,5.21,17.53-4.96,9.83-18.47,9.92-23.94,.26-4.87-8.72,1.71-19.66,11.88-19.66,2.74,0,4.87,.6,6.84,1.88Zm37.27-.09c6.33,3.85,8.38,12.82,4.36,18.81-2.56,3.93-9.06,7.1-12.91,6.41-12.48-2.39-16.07-18.12-5.64-25.05,3.76-2.56,10.17-2.65,14.19-.17Zm37.1,.09c6.41,4.45,8.46,11.2,5.21,17.53-4.96,9.83-18.47,9.92-23.94,.26-4.87-8.72,1.71-19.66,11.88-19.66,2.74,0,4.87,.6,6.84,1.88Zm132.85,8.89c1.71,1.62,1.8,4.1,.17,5.39-.77,.68-14.88,.85-50.95,.77l-49.84-.26-.68-1.8c-.43-1.2-.17-2.48,.6-3.68,1.28-1.8,1.37-1.8,50.35-1.8,43.43,0,49.16,.17,50.35,1.37Z"/>
  <path id="path3" d="M150.88,152.55c-3.59,3.59-.94,9.66,4.27,9.66,3.76,0,6.33-2.99,5.64-6.67-.34-1.37-1.2-3.08-1.97-3.68-2.14-1.54-5.98-1.28-7.95,.68Z"/>
  <path id="path4" d="M188.24,152.38c-2.91,3.25-1.37,8.63,2.82,10,1.71,.51,5.04-.77,6.16-2.48,1.2-1.8,.68-6.24-.85-7.61-2.14-1.88-6.41-1.8-8.12,.09Z"/>
  <path id="path5" d="M225.86,151.87c-2.31,1.8-2.74,5.98-.77,8.38,3.33,4.1,10.43,1.54,10.43-3.93,0-4.36-6.07-7.1-9.66-4.45Z"/>
  <path id="path6" d="M123.53,282.07v95.32H388.55V186.75H123.53v95.32Zm94.38-81.47c1.2,1.62,1.37,5.81,1.37,28.47,0,30.61,.09,30.35-6.58,30.35-3.76,0-3.85,.09-3.33,2.31,2.14,8.98,1.62,11.28-2.39,11.37-.94,0-7.01-3.08-13.51-6.84l-11.8-6.84h-20.86c-20.69,0-20.95,0-22.23-1.88-2.05-2.82-2.05-54.12,0-56.94l1.28-1.88h76.77l1.28,1.88Zm155.76,.17c.94,1.37,1.2,6.67,1.2,28.55,0,16.84-.34,27.44-.85,28.47-.85,1.54-2.22,1.62-40.18,1.62s-39.33-.09-40.18-1.62c-.51-1.03-.85-11.63-.85-28.47,0-27.61,.17-28.81,3.42-30.01,.68-.26,18.12-.43,38.73-.34,36.08,.17,37.53,.26,38.73,1.8Zm-72.5,65.66c.68,.68,1.03,4.87,1.03,13.25v12.23h6.5c10.09,0,9.75-.43,9.75,14.36,0,8.72-.34,12.99-1.03,13.68-.6,.6-3.76,1.03-8.12,1.03h-7.01l-.26,12.48c-.26,10.69-.51,12.65-1.71,13.42-1.11,.77-6.5-.68-23.94-6.24-12.4-3.93-24.54-7.35-26.93-7.52l-4.53-.34v14.7c0,8.46-.34,15.3-.85,16.33-.85,1.45-1.88,1.62-10.69,1.62s-9.83-.17-10.69-1.62c-.51-1.03-.85-7.87-.85-16.24v-14.62h-2.65c-3.68,0-5.64-1.28-6.33-4.27l-.6-2.56h-7.95c-6.16,0-8.29-.34-9.32-1.37-1.11-1.11-1.37-3.85-1.37-16.5,0-10.6,.34-15.47,1.03-16.16s4.02-1.03,9.32-1.03h8.21l.43-4.45c.34-2.91,1.03-4.79,2.05-5.56,1.11-.85,5.9-1.11,19.49-1.11l18.04-.09,22.23-7.1c12.23-3.93,23-7.18,24.02-7.27,.94-.09,2.14,.34,2.74,.94Zm-135.93,56.68c.51,4.02-1.37,4.7-13.34,4.7-5.81,0-11.28-.43-12.23-.85-1.62-.94-2.31-5.04-1.03-6.33,.34-.26,6.41-.43,13.42-.34l12.91,.26,.26,2.56Zm208.6,0c.51,4.02-1.37,4.7-13.34,4.7-5.81,0-11.28-.43-12.23-.85-1.62-.94-2.31-5.04-1.03-6.33,.34-.26,6.41-.43,13.42-.34l12.91,.26,.26,2.56Zm-197.65,16.5c1.62,1.11,1.97,3.33,.68,5.21-1.28,1.71-1.97,1.8-19.06,1.8-18.55,0-19.75-.26-19.75-3.85s1.2-3.85,19.66-3.85c9.66,0,17.95,.34,18.47,.68Zm196.8,.34c.6,.6,1.03,1.8,1.03,2.82,0,3.59-1.2,3.85-19.75,3.85-17.1,0-17.78-.09-19.06-1.8-1.28-1.88-.94-4.1,.68-5.21s35.99-.77,37.1,.34Zm-184.06,19.83c1.11,1.62,1.2,2.48,.43,3.85-.94,1.8-1.37,1.8-25.9,1.62l-24.96-.26-.26-2.39c-.6-4.87-.43-4.87,25.56-4.87h23.85l1.28,2.05Zm183.46-1.2c1.8,1.03,2.14,4.27,.6,5.81-.77,.77-7.52,1.03-25.22,1.03h-24.19l-1.03-2.14c-.77-1.8-.68-2.39,.6-3.85,1.45-1.62,2.65-1.71,24.54-1.71,14.28,0,23.68,.34,24.71,.85Z"/>
  <path id="path7" d="M144.9,229.07v22.65h38.73l6.5,3.76c11.46,6.5,10.6,6.33,9.92,2.39-.77-4.7,.85-6.16,6.92-6.16h4.62v-45.31h-66.68v22.65Zm58.48-11.03c.94,2.48,.51,4.53-1.11,5.47-1.03,.51-10.26,.85-24.02,.85s-23-.34-24.02-.85c-1.8-1.03-2.14-4.27-.6-5.81,.77-.77,7.52-1.03,25.13-1.03,21.2,0,24.19,.17,24.62,1.37Zm-1.11,16.59c1.8,1.03,2.14,4.27,.6,5.81-1.45,1.45-47.79,1.45-49.24,0-1.54-1.54-1.28-4.7,.51-5.73,1.97-1.2,45.91-1.2,48.13-.09Z"/>
  <path id="path8" d="M300.49,229.49v22.23h66.68v-44.45h-66.68v22.23Zm38.73-10.6c6.07,5.39,10,9.57,10,10.6,0,.94-3.93,5.04-9.92,10.43-15.47,13.76-15.73,13.68-15.73-10.34s.34-24.36,15.64-10.69Z"/>
  <path id="path9" d="M331.27,229.41v7.01l3.85-3.16c2.14-1.71,3.85-3.42,3.85-3.68,0-.6-3.33-3.85-6.16-5.98-1.45-1.11-1.54-.68-1.54,5.81Z"/>
  <path id="path10" d="M281.26,278.74c-6.58,2.05-15.13,4.79-18.98,5.98l-7.1,2.14v39.07l2.82,.94c22.57,7.1,35.73,11.2,36.08,11.2,.26,0,.43-14.28,.43-31.63s-.26-31.63-.6-31.55c-.43,0-6.07,1.71-12.65,3.85Z"/>
  <path id="path11" d="M220.3,306.6l.26,18.21,13.51,.26,13.42,.26v-36.85h-27.36l.17,18.12Z"/>
  <path id="path12" d="M201.32,308.57v9.83h11.11v-19.66h-11.11v9.83Z"/>
  <path id="path13" d="M302.2,306.43v6.84h8.55v-13.68h-8.55v6.84Z"/>
  <path id="path14" d="M229.53,345.33v12.4h7.69v-24.79h-7.69v12.4Z"/>
  <path id="path15" class="cls-1" d="M235.13,510.41c-1.66-.22-7.09-.9-12.07-1.5-13.77-1.67-35.57-6.65-48.63-11.12-14.29-4.89-43.47-18.93-54.74-26.33-11.63-7.64-22.06-15.85-36.02-28.35C38.39,402.57,8.91,343.87,2.2,280.85c-1.52-14.24-.68-48.17,1.53-62.07,4.23-26.56,12.41-52.08,24.35-75.94,13.74-27.46,26.77-45.53,48.62-67.43C114.87,37.14,164.18,12.03,218.03,3.44c13.62-2.17,48.69-3.01,63.08-1.5,71.51,7.49,135.6,43.63,178.86,100.85,19.41,25.67,35.43,58.64,43.3,89.08,5.85,22.64,7.33,35.27,7.41,63.11,.07,26.39-.57,33.24-5.15,55.32-7.41,35.75-26.38,75.78-49.34,104.11-7.64,9.43-36.86,38.22-45.32,44.65-24.46,18.6-56.25,34.36-85.67,42.49-23.33,6.44-38.93,8.61-64.42,8.95-12.45,.17-23.99,.12-25.65-.11h0Zm160.3-125.75c1.31-1.09,1.42-11.14,1.42-128.67s-.11-127.58-1.42-128.67c-2.13-1.76-276.23-1.76-278.36,0-1.31,1.09-1.42,11.13-1.42,128.67,0,102.3,.22,127.67,1.1,128.4,.6,.5,3.02,1.06,5.37,1.25,2.35,.19,64.49,.31,138.08,.27,112.07-.06,134.03-.26,135.23-1.25h0Z"/>
  <path id="path16" class="cls-1" d="M124.04,281.79v-95.02H388.04v190.05H124.04v-95.02Zm65.62,82.01c.63-.99,.55-2.21-.26-4.17l-1.15-2.77-23.72,.37c-13.05,.2-24.4,.67-25.23,1.04-1.06,.47-1.5,1.66-1.5,4.03v3.36l25.49-.23c22.48-.2,25.59-.39,26.37-1.63h0Zm54.79-.37c.46-1.21,.84-8.58,.84-16.38v-14.17l3.22,.56c4.58,.79,10.41,2.42,29.25,8.19,9.11,2.79,18.07,5.31,19.91,5.61,4.14,.66,4.07,.87,4.83-13.94l.58-11.27,7.44-.77,7.44-.77,.68-6.88c.78-7.83,.08-19.19-1.27-20.83-.6-.72-3.21-1.1-7.57-1.1h-6.66l-.43-12.56c-.47-13.81-.75-14.5-5.62-13.65-1.54,.27-12.5,3.57-24.36,7.33l-21.56,6.84h-17.37c-20.29,0-20.69,.13-21.62,6.87l-.59,4.31h-7.87c-4.33,.02-8.43,.38-9.11,.81-1.77,1.12-1.92,30.92-.17,33.03,.94,1.14,2.79,1.42,9.18,1.42h8l.97,2.93c1.04,3.15,2.24,3.95,6,3.95h2.39l.41,15.56c.32,12.12,.68,15.73,1.62,16.33,.67,.42,5.58,.77,10.91,.78,9.62,.01,9.7,0,10.53-2.19h0Zm128.17,1.32c1.95-1.04,2.2-4.47,.43-5.94-1.53-1.27-36.21-2.19-44.25-1.17-6.07,.77-7.57,2.06-6.65,5.72l.57,2.28h24.12c14.98,0,24.75-.34,25.78-.89h0Zm-195.75-19.38c1.69-1.69,1.74-4.14,.11-5.49-1.38-1.14-33.89-1.6-37.28-.53-2.39,.76-2.65,5.12-.39,6.44,.88,.51,8.68,.89,18.86,.9,14.65,.02,17.56-.18,18.7-1.33h0Zm195.75,.46c2.13-1.14,2.27-5.57,.2-6.37-2.71-1.04-36.43-.64-37.74,.44-1.6,1.33-1.54,3.78,.14,5.46,1.14,1.14,4.06,1.35,18.55,1.35,10.21,0,17.87-.36,18.86-.89h0Zm-208.66-18.55c.92-.35,1.36-1.61,1.36-3.87v-3.35h-27.52v2.84c0,1.56,.46,3.3,1.03,3.87,1.09,1.09,22.49,1.52,25.13,.51h0Zm209.29-.51c.57-.57,1.03-2.32,1.03-3.89v-2.86l-13.96,.24c-15.23,.26-15.47,.35-13.61,5.25l.87,2.3h12.32c8.43,0,12.64-.33,13.35-1.03Zm-163.2-54.45c.77-.92,.92-2.93,.51-6.88l-.57-5.58h3.36c5.8,0,5.72,.46,5.72-30.96,0-22.56-.23-28.39-1.18-29.54-1.07-1.28-4.92-1.42-39.74-1.42h-38.56l-1.11,1.93c-1.61,2.82-1.6,56.82,.01,58.43,.84,.84,6.34,1.18,22.23,1.38,20.9,.26,21.15,.28,24.56,2.44,6.23,3.93,20.86,11.47,22.29,11.48,.77,0,1.89-.57,2.48-1.29h0Zm163.95-13.6c.39-.39,.72-13.44,.72-28.98,0-22.04-.25-28.51-1.12-29.38-.88-.88-9.43-1.17-39.65-1.36-35.22-.22-38.63-.12-39.73,1.21-.96,1.15-1.25,6.84-1.45,28.19-.14,14.71-.04,27.59,.22,28.62,.26,1.04,1.33,2.05,2.4,2.27,3.47,.71,77.88,.18,78.61-.56Z"/>
  <path id="path17" class="cls-1" d="M124.04,157.1v-21.93H388.04v43.86H124.04v-21.93Zm37.35,11.6c5.34-2.65,6.94-5.41,6.94-12.03,0-4.21-.41-6.13-1.67-7.79-3-3.95-5.78-5.44-10.76-5.79-5.29-.37-8.96,1.44-12.43,6.12-2.78,3.75-2.53,11.37,.51,15.35,4.39,5.76,10.99,7.33,17.42,4.14h0Zm38.65-.89c4.16-2.85,5.7-5.89,5.69-11.26,0-8.34-5.2-13.62-13.41-13.62-7.91,0-13.43,5.36-13.54,13.15-.08,5.61,2.75,10.63,7.31,12.95,3.87,1.97,10.09,1.43,13.95-1.22h0Zm37.36,.33c3.62-2.63,6.35-8.64,5.9-12.96-.44-4.26-3.75-9.05-7.66-11.07-3.67-1.9-10.72-1.26-14.31,1.3-8.26,5.89-7.16,18.65,2.03,23.36,4.2,2.15,10.61,1.87,14.04-.63Zm133.23-10.6c.51-4.94,2.83-4.71-50.52-4.97-33.33-.16-49.61,.06-50.77,.68-1.19,.64-1.7,1.8-1.7,3.9v2.99l51.38-.22,51.38-.22,.22-2.15Z"/>
  <path id="path18" class="cls-1" d="M191.11,255.52l-7.31-4.25h-19.13s-19.13,0-19.13,0v-44.72h65.36v44.72h-3.93c-5.72,0-7.25,1.1-7.25,5.19,0,1.88-.29,3.39-.64,3.36-.35-.03-3.93-1.96-7.95-4.3h0Zm10.32-14.49c1.76-.49,2.15-1.13,2.15-3.57,0-2.96-.02-2.97-4.73-3.53-6.07-.72-34.11-.71-40.85,0l-5.16,.55v2.97c0,2.44,.39,3.08,2.15,3.57,1.18,.33,11.63,.6,23.22,.6s22.04-.27,23.22-.6h0Zm1.2-17.55c1.02-.74,1.43-1.97,1.24-3.65-.26-2.29-.67-2.59-4.16-3.12-4.86-.73-34.8-.71-41.71,.03-4.93,.53-5.17,.67-5.45,3.09-.52,4.59,.47,4.77,25.66,4.77,17.42,0,23.25-.27,24.42-1.12h0Z"/>
  <path id="path19" class="cls-1" d="M301.18,229.34v-21.93h65.36v43.86h-65.36v-21.93Zm31.77,16.72c8.02-6.34,16.38-14.74,16.38-16.45,0-2.72-17.16-18.67-21.61-20.08-3.71-1.18-4.19,1.05-4.19,19.6,0,10.14,.36,17.77,.89,18.75,1.35,2.52,3.66,2.02,8.52-1.82h0Z"/>
  <path id="path20" class="cls-1" d="M231.44,324.58l-9.97-.27-.56-10.43c-.31-5.74-.56-13.66-.56-17.6v-7.17h26.66v36.12l-2.79-.18c-1.54-.1-7.28-.31-12.77-.46Z"/>
  <path id="path21" class="cls-1" d="M229.81,345v-12.04h6.88v24.08h-6.88v-12.04Z"/>
  <path id="path22" class="cls-1" d="M273.87,331.39l-18.29-5.74,.23-19.25,.23-19.25,18.49-5.81,18.49-5.81,.56,4.42c.73,5.74,.87,49.88,.18,54.08-.29,1.77-.77,3.19-1.07,3.16-.29-.04-8.76-2.65-18.82-5.8h0Z"/>
  <path id="path23" class="cls-1" d="M302.9,306.73v-6.45h7.74v12.9h-7.74v-6.45Z"/>
  <path id="path24" class="cls-1" d="M201.43,308.88v-9.46h10.32v18.92h-10.32v-9.46Z"/>
  <path id="path25" class="cls-1" d="M188.99,160.14c-3.14-3.47-1.33-8.63,3.03-8.63,3.07,0,5.12,2.03,5.12,5.09,0,4.61-5.15,6.85-8.14,3.54Z"/>
  <path id="path26" class="cls-1" d="M226.07,160.26c-1.66-1.83-1.88-6.22-.39-7.71,1.59-1.59,5.66-1.22,7.57,.69,2.19,2.19,2.19,4.69,0,6.88-2.15,2.15-5.31,2.21-7.18,.15Z"/>
  <path id="path27" class="cls-1" d="M151.55,160.11c-3.39-3.39-1.17-8.6,3.66-8.6s6.86,6.3,3.03,8.98c-2.57,1.8-4.62,1.68-6.69-.38h0Z"/>
  <path id="path28" class="cls-1" d="M331.37,231.88c.05-2.34,.34-5.15,.64-6.24,.55-1.97,.58-1.96,3.35,.9l2.79,2.88-3.44,3.36-3.44,3.36,.09-4.26Z"/>
</svg>