<svg width="80" height="83" viewBox="0 0 80 83" fill="none" xmlns="http://www.w3.org/2000/svg">
<ellipse cx="40" cy="41.365" rx="40" ry="41.365" fill="#E51F33"/>
<path d="M51.903 23.4636C54.8501 26.4699 56.6673 30.5879 56.6673 35.1303C56.6673 39.7267 54.8067 43.8885 51.7976 46.9036M28.334 47.0327C25.2484 44.0078 23.334 39.7926 23.334 35.1303C23.334 30.5219 25.2043 26.3504 28.2274 23.3334" stroke="#F4F4F4" stroke-width="1.5" stroke-linecap="round" stroke-linejoin="round"/>
<path d="M47.1414 28.5368C48.9097 30.2281 50 32.5449 50 35.1005C50 37.6864 48.8836 40.0279 47.0782 41.7242M33 41.7968C31.1486 40.095 30 37.7235 30 35.1005C30 32.5078 31.1222 30.1609 32.936 28.4635" stroke="#F4F4F4" stroke-width="1.5" stroke-linecap="round" stroke-linejoin="round"/>
<circle cx="39.9993" cy="35.1302" r="3.33333" stroke="#F4F4F4" stroke-width="1.5"/>
<path d="M40.834 38.3334L46.6673 56.6667L37.5007 45.8334M39.1673 38.3334L33.334 56.6667L42.5007 45.8334" stroke="#F4F4F4" stroke-width="1.5" stroke-linecap="round" stroke-linejoin="round"/>
</svg>
