<?xml version="1.0" encoding="UTF-8"?>
<svg id="Layer_1" data-name="Layer 1" xmlns="http://www.w3.org/2000/svg" viewBox="0 0 383.78 383.78">
  <defs>
    <style>
      .cls-1 {
        fill: #fff;
      }

      .cls-2 {
        fill: #d23431;
      }
    </style>
  </defs>
  <circle class="cls-2" cx="191.89" cy="191.89" r="191.89"/>
  <g>
    <path class="cls-1" d="M156.07,249.01c2.94,5.27,2.58,7.71-1.77,12.06-12.81,12.81-25.61,25.63-38.42,38.43-4.41,4.41-8.23,4.41-12.6,.04-6.46-6.46-12.92-12.91-19.37-19.38-3.83-3.84-3.83-7.9,.03-11.78,13.07-13.1,26.16-26.17,39.24-39.26,3.94-3.94,6.87-4.27,12.02-1.04,1.57-1.72,3.16-3.6,4.9-5.33,1.1-1.09,.31-1.76-.24-2.57-5.01-7.42-8.79-15.42-11.49-23.96-10.75-33.96,1.13-73,28.96-95.22,18.28-14.6,39.08-21.14,62.39-19.88,39.13,2.12,73.75,32.32,81.25,70.85,9.08,46.67-17.35,90.7-62.9,103.85-26.13,7.54-50.85,3.37-73.68-11.44-1.84-1.19-2.96-1.42-4.37,.4-1.08,1.4-2.47,2.55-3.72,3.82-.1,.11-.16,.26-.23,.4Zm-24.28-78.9c-.03,45.11,36.61,81.83,81.75,81.9,44.99,.07,81.69-36.51,81.83-81.58,.14-45.26-36.54-81.99-81.84-81.97-45.05,.02-81.69,36.63-81.73,81.64Zm-22.4,124.56c13.51-13.51,27.11-27.1,40.32-40.3-6.73-6.73-13.65-13.66-20.34-20.35-13.35,13.33-26.91,26.87-40.38,40.33,6.79,6.76,13.68,13.64,20.4,20.33Zm35.88-66.09c-1.44,1.35-3.23,3.02-4.87,4.55,3.46,3.46,6.89,6.88,10,9.99,1.68-1.59,3.49-3.31,4.78-4.54-3.28-3.31-6.65-6.7-9.91-10Z"/>
    <path class="cls-1" d="M213.01,222.76c-3.38,.16-7.23,.07-10.7-2.11-4.61-2.89-7.05-7.04-7.27-12.46-.09-2.09-.13-4.18,0-6.26,.22-3.59-1.1-6.36-3.74-8.81-7.67-7.14-11.34-16.05-11.13-26.52,.36-17.31,14.34-32.02,31.31-33,17.51-1.01,32.83,11.71,35.16,29.25,1.58,11.88-2.1,22-10.71,30.23-2.6,2.49-4,5.18-3.78,8.78,.13,2.16,.07,4.33,0,6.5-.25,7.87-6.58,14.16-14.47,14.39-1.39,.04-2.78,0-4.69,0Zm-3.41-29.73c1.05-3.93,.01-6.56-3.36-8.39-1.95-1.06-3.52-2.81-5.43-3.96-4.68-2.81-6.29-6.91-5.81-12.18,.35-3.82,1.99-6.65,5.52-8.17,3.46-1.49,6.67-.81,9.5,1.61,3.6,3.07,3.58,3.07,7.15,0,2.76-2.37,5.9-3.06,9.29-1.71,3.38,1.34,5.31,3.96,5.67,7.57,.73,7.41-2.03,11.91-9.08,14.91-1.36-1.83-2.74-3.68-4.2-5.66,1.48-1.12,2.85-2.11,4.17-3.17,.59-.47,1.53-1.06,1.54-1.61,.03-1.61,.24-3.8-.67-4.72-1.45-1.47-2.46,.72-3.42,1.62-4.24,3.99-9.48,4.04-13.65,.03-.61-.59-1.16-1.51-1.87-1.67-.72-.15-2.04,.23-2.33,.78-.93,1.77,0,4.39,1.69,5.66,3.65,2.74,7.4,5.36,10.88,8.3,1.08,.91,1.81,2.62,2.04,4.07,.34,2.15,.09,4.4,.09,6.69,1.98,0,3.61-.13,5.22,.03,2.56,.26,4.62-.1,5.86-2.76,.46-.99,1.54-1.71,2.38-2.51,7.15-6.91,10.01-15.26,8.36-25.07-2.25-13.42-15.54-23.6-28.34-21.56-10.77,1.72-18.34,7.72-21.76,18.13-3.47,10.57-.87,19.95,6.82,27.96,1.49,1.55,2.82,3.26,4.28,4.85,.37,.4,.94,.86,1.43,.88,2.69,.09,5.38,.04,8.04,.04Zm15.08,7.61h-22.09v3.41h22.09v-3.41Zm-21.03,11.02c1.46,2.42,3.36,3.48,5.67,3.61,2.85,.16,5.73,.17,8.58,0,2.35-.14,4.27-1.22,5.64-3.61h-19.89Z"/>
    <path class="cls-1" d="M189.52,138.35c-1.45,1.34-3.2,2.95-4.91,4.52-2.3-2.4-4.78-4.99-7.34-7.67,1.43-1.36,3.14-2.98,4.81-4.56,2.39,2.48,4.89,5.06,7.44,7.7Z"/>
    <path class="cls-1" d="M245.48,130.68c1.4,1.45,3,3.1,4.61,4.77-2.56,2.41-5.17,4.87-7.86,7.41-1.28-1.36-2.91-3.09-4.49-4.77,2.43-2.33,5.02-4.81,7.74-7.41Z"/>
    <path class="cls-1" d="M217.15,129.76h-7.12v-10.95h7.12v10.95Z"/>
    <path class="cls-1" d="M165.34,170.59v-7.12h10.94v7.12h-10.94Z"/>
    <path class="cls-1" d="M250.86,170.63v-7.18h10.93v7.18h-10.93Z"/>
  </g>
</svg>