<svg width="80" height="80" viewBox="0 0 80 80" fill="none" xmlns="http://www.w3.org/2000/svg">
<circle cx="40" cy="40" r="40" fill="#E51F33"/>
<path d="M25 56.6666V40C25 36.8573 25 35.2859 25.9763 34.3096C26.9526 33.3333 28.524 33.3333 31.6667 33.3333C34.8094 33.3333 36.3807 33.3333 37.357 34.3096C38.3333 35.2859 38.3333 36.8573 38.3333 40" stroke="#F4F4F4" stroke-width="1.5"/>
<path d="M48.3327 56.6667V46.6667C48.3327 43.524 48.3327 41.9526 47.3564 40.9763C46.3801 40 44.8087 40 41.666 40H38.3327C35.19 40 33.6186 40 32.6423 40.9763C31.666 41.9526 31.666 43.524 31.666 46.6667V56.6667" stroke="#F4F4F4" stroke-width="1.5"/>
<path d="M54.9993 56.6667V32.9533C54.9993 30.7186 54.9993 29.6012 54.4058 28.7447C53.8122 27.8881 52.766 27.4958 50.6735 26.7111C46.5814 25.1766 44.5354 24.4093 43.1007 25.4036C41.666 26.3978 41.666 28.583 41.666 32.9533V40" stroke="#F4F4F4" stroke-width="1.5"/>
<path d="M26.666 33.3333V30.8333C26.666 29.262 26.666 28.4763 27.1542 27.9882C27.6423 27.5 28.428 27.5 29.9993 27.5H33.3327C34.904 27.5 35.6897 27.5 36.1779 27.9882C36.666 28.4763 36.666 29.262 36.666 30.8333V33.3333" stroke="#F4F4F4" stroke-width="1.5" stroke-linecap="round"/>
<path d="M31.666 26.6666V23.3333" stroke="#F4F4F4" stroke-width="1.5" stroke-linecap="round"/>
<path d="M56.6673 56.6667L23.334 56.6667" stroke="#F4F4F4" stroke-width="1.5" stroke-linecap="round"/>
<path d="M36.666 45H43.3327" stroke="#F4F4F4" stroke-width="1.5" stroke-linecap="round"/>
<path d="M36.666 50H43.3327" stroke="#F4F4F4" stroke-width="1.5" stroke-linecap="round"/>
</svg>
