<?xml version="1.0" encoding="UTF-8" standalone="no"?>
<svg
   version="1.0"
   width="512.000000pt"
   height="512.000000pt"
   viewBox="0 0 512.000000 512.000000"
   preserveAspectRatio="xMidYMid meet"
   id="svg14"
   sodipodi:docname="Исследования СМИ red.svg"
   inkscape:version="1.3.2 (091e20e, 2023-11-25, custom)"
   xmlns:inkscape="http://www.inkscape.org/namespaces/inkscape"
   xmlns:sodipodi="http://sodipodi.sourceforge.net/DTD/sodipodi-0.dtd"
   xmlns="http://www.w3.org/2000/svg"
   xmlns:svg="http://www.w3.org/2000/svg">
  <defs
     id="defs14" />
  <sodipodi:namedview
     id="namedview14"
     pagecolor="#ffffff"
     bordercolor="#000000"
     borderopacity="0.25"
     inkscape:showpageshadow="2"
     inkscape:pageopacity="0.0"
     inkscape:pagecheckerboard="0"
     inkscape:deskcolor="#d1d1d1"
     inkscape:document-units="pt"
     inkscape:zoom="0.74560547"
     inkscape:cx="341.33333"
     inkscape:cy="341.33333"
     inkscape:window-width="1366"
     inkscape:window-height="705"
     inkscape:window-x="-8"
     inkscape:window-y="-8"
     inkscape:window-maximized="1"
     inkscape:current-layer="svg14" />
  <g
     transform="translate(0.000000,512.000000) scale(0.100000,-0.100000)"
     fill="#000000"
     stroke="none"
     id="g14">
    <path
       d="M2335 5109 c-1139 -99 -2082 -958 -2290 -2086 -133 -721 46 -1450 503 -2043 150 -195 431 -447 662 -594 98 -63 349 -185 474 -231 292 -108 650 -164 966 -151 536 21 1026 196 1460 519 122 92 395 365 487 487 150 201 285 449 368 674 117 317 171 703 147 1038 -26 363 -101 646 -257 963 -123 252 -265 453 -460 654 -540 556 -1290 836 -2060 770z m1835 -1042 l25 -13 3 -1489 2 -1490 -21 -17 c-20 -17 -112 -18 -1619 -18 -1507 0 -1599 1 -1619 18 l-21 17 2 1490 3 1489 25 13 c20 10 352 13 1610 13 1258 0 1590 -3 1610 -13z"
       id="path1" />
    <path
       d="M1010 3720 l0 -260 1550 0 1550 0 0 260 0 260 -1550 0 -1550 0 0 -260z m450 138 c75 -52 99 -131 61 -205 -58 -115 -216 -116 -280 -3 -57 102 20 230 139 230 32 0 57 -7 80 -22z m436 1 c74 -45 98 -150 51 -220 -30 -46 -106 -83 -151 -75 -146 28 -188 212 -66 293 44 30 119 31 166 2z m434 -1 c75 -52 99 -131 61 -205 -58 -115 -216 -116 -280 -3 -57 102 20 230 139 230 32 0 57 -7 80 -22z m1554 -104 c20 -19 21 -48 2 -63 -9 -8 -174 -10 -596 -9 l-583 3 -8 21 c-5 14 -2 29 7 43 15 21 16 21 589 21 508 0 575 -2 589 -16z"
       id="path2" />
    <path
       d="M1330 3770 c-42 -42 -11 -113 50 -113 44 0 74 35 66 78 -4 16 -14 36 -23 43 -25 18 -70 15 -93 -8z"
       id="path3" />
    <path
       d="M1767 3772 c-34 -38 -16 -101 33 -117 20 -6 59 9 72 29 14 21 8 73 -10 89 -25 22 -75 21 -95 -1z"
       id="path4" />
    <path
       d="M2207 3778 c-27 -21 -32 -70 -9 -98 39 -48 122 -18 122 46 0 51 -71 83 -113 52z"
       id="path5" />
    <path
       d="M1010 2255 l0 -1115 1550 0 1550 0 0 1115 0 1115 -1550 0 -1550 0 0 -1115z m1104 953 c14 -19 16 -68 16 -333 0 -358 1 -355 -77 -355 -44 0 -45 -1 -39 -27 25 -105 19 -132 -28 -133 -11 0 -82 36 -158 80 l-138 80 -244 0 c-242 0 -245 0 -260 22 -24 33 -24 633 0 666 l15 22 449 0 449 0 15 -22z m1822 -2 c11 -16 14 -78 14 -334 0 -197 -4 -321 -10 -333 -10 -18 -26 -19 -470 -19 -444 0 -460 1 -470 19 -6 12 -10 136 -10 333 0 323 2 337 40 351 8 3 212 5 453 4 422 -2 439 -3 453 -21z m-848 -768 c8 -8 12 -57 12 -155 l0 -143 76 0 c118 0 114 5 114 -168 0 -102 -4 -152 -12 -160 -7 -7 -44 -12 -95 -12 l-82 0 -3 -146 c-3 -125 -6 -148 -20 -157 -13 -9 -76 8 -280 73 -145 46 -287 86 -315 88 l-53 4 0 -172 c0 -99 -4 -179 -10 -191 -10 -17 -22 -19 -125 -19 -103 0 -115 2 -125 19 -6 12 -10 92 -10 190 l0 171 -31 0 c-43 0 -66 15 -74 50 l-7 30 -93 0 c-72 0 -97 4 -109 16 -13 13 -16 45 -16 193 0 124 4 181 12 189 8 8 47 12 109 12 l96 0 5 52 c4 34 12 56 24 65 13 10 69 13 228 13 l211 1 260 83 c143 46 269 84 281 85 11 1 25 -4 32 -11z m-1590 -663 c6 -47 -16 -55 -156 -55 -68 0 -132 5 -143 10 -19 11 -27 59 -12 74 4 3 75 5 157 4 l151 -3 3 -30z m2440 0 c6 -47 -16 -55 -156 -55 -68 0 -132 5 -143 10 -19 11 -27 59 -12 74 4 3 75 5 157 4 l151 -3 3 -30z m-2312 -193 c19 -13 23 -39 8 -61 -15 -20 -23 -21 -223 -21 -217 0 -231 3 -231 45 0 42 14 45 230 45 113 0 210 -4 216 -8z m2302 -4 c7 -7 12 -21 12 -33 0 -42 -14 -45 -231 -45 -200 0 -208 1 -223 21 -15 22 -11 48 8 61 19 13 421 9 434 -4z m-2153 -232 c13 -19 14 -29 5 -45 -11 -21 -16 -21 -303 -19 l-292 3 -3 28 c-7 57 -5 57 299 57 l279 0 15 -24z m2146 14 c21 -12 25 -50 7 -68 -9 -9 -88 -12 -295 -12 l-283 0 -12 25 c-9 21 -8 28 7 45 17 19 31 20 287 20 167 0 277 -4 289 -10z"
       id="path6" />
    <path
       d="M1260 2875 l0 -265 227 0 226 0 76 -44 c134 -76 124 -74 116 -28 -9 55 10 72 81 72 l54 0 0 265 0 265 -390 0 -390 0 0 -265z m684 129 c11 -29 6 -53 -13 -64 -12 -6 -120 -10 -281 -10 -161 0 -269 4 -281 10 -21 12 -25 50 -7 68 9 9 88 12 294 12 248 0 283 -2 288 -16z m-13 -194 c21 -12 25 -50 7 -68 -17 -17 -559 -17 -576 0 -18 18 -15 55 6 67 23 14 537 14 563 1z"
       id="path7" />
    <path
       d="M3080 2870 l0 -260 390 0 390 0 0 260 0 260 -390 0 -390 0 0 -260z m453 124 c71 -63 117 -112 117 -124 0 -11 -46 -59 -116 -122 -181 -161 -184 -160 -184 121 0 282 4 285 183 125z"
       id="path8" />
    <path
       d="M3440 2871 l0 -82 45 37 c25 20 45 40 45 43 0 7 -39 45 -72 70 -17 13 -18 8 -18 -68z"
       id="path9" />
    <path
       d="M2855 2294 c-77 -24 -177 -56 -222 -70 l-83 -25 0 -229 0 -228 33 -11 c264 -83 418 -131 422 -131 3 0 5 167 5 370 0 204 -3 370 -7 369 -5 0 -71 -20 -148 -45z"
       id="path10" />
    <path
       d="M2142 1968 l3 -213 158 -3 157 -3 0 216 0 215 -160 0 -160 0 2 -212z"
       id="path11" />
    <path
       d="M1920 1945 l0 -115 65 0 65 0 0 115 0 115 -65 0 -65 0 0 -115z"
       id="path12" />
    <path
       d="M3100 1970 l0 -80 50 0 50 0 0 80 0 80 -50 0 -50 0 0 -80z"
       id="path13" />
    <path
       d="M2250 1515 l0 -145 45 0 45 0 0 145 0 145 -45 0 -45 0 0 -145z"
       id="path14" />
  </g>
  <path
     style="fill:#d40000;stroke-width:1.34119"
     d="m 313.1683,680.5475 c -2.21296,-0.29767 -9.4554,-1.19865 -16.0943,-2.00216 -18.36031,-2.22216 -47.42377,-8.87046 -64.84405,-14.83317 -19.05964,-6.52383 -57.96419,-25.23379 -72.9856,-35.10018 C 143.74266,618.43013 129.82862,607.47964 111.21386,590.81147 50.85263,536.7624 11.55344,458.48776 2.5957149,374.46996 0.57085539,355.47805 1.6868915,310.2489 4.6378481,291.70923 10.27456,256.29605 21.188322,222.2626 37.109649,190.44925 55.432759,153.83675 72.805276,129.74171 101.93058,100.54501 152.83344,49.517369 218.57092,16.043416 290.36804,4.5914074 308.5277,1.6948501 355.28802,0.58443779 374.48045,2.5939996 469.82228,12.576864 555.27841,60.762508 612.96419,137.06642 c 25.87466,34.22572 47.23967,78.18325 57.7307,118.77822 7.80169,30.18858 9.77783,47.03031 9.87354,84.1475 0.0907,35.1803 -0.76047,44.3228 -6.86763,73.76555 -9.88615,47.66142 -35.1793,101.03405 -65.78328,138.81336 -10.18498,12.57294 -49.14828,50.96543 -60.42477,59.53956 -32.60982,24.79505 -74.99796,45.81702 -114.22621,56.64933 -31.10149,8.58823 -51.9124,11.47827 -85.89784,11.92879 -16.59725,0.22001 -31.98743,0.15646 -34.2004,-0.14123 z M 558.40065,542.0126 c 2.04437,-1.69695 2.21756,-17.36996 2.21756,-200.67927 0,-183.32257 -0.17307,-198.98219 -2.21792,-200.67927 -3.31568,-2.75176 -430.81823,-2.75176 -434.13391,0 -2.04485,1.69708 -2.21792,17.3567 -2.21792,200.67927 0,159.54587 0.33802,199.11909 1.71055,200.25818 0.94079,0.7808 4.7129,1.66021 8.38244,1.95425 3.66956,0.29404 100.5801,0.48354 215.35678,0.42109 174.78328,-0.0951 209.04511,-0.41258 210.90242,-1.95425 z"
     id="path15"
     transform="scale(0.75)" />
  <path
     style="fill:#d40000;stroke-width:1.34119"
     d="m 135.46038,381.56909 v -148.2017 h 205.87295 205.87296 v 148.2017 148.2017 H 341.33333 135.46038 Z M 237.80912,509.4762 c 0.97561,-1.54736 0.85579,-3.45366 -0.40899,-6.50712 l -1.78883,-4.31861 -36.99884,0.57629 c -20.34936,0.31695 -38.05503,1.04646 -39.34592,1.62112 -1.65668,0.73751 -2.34709,2.58662 -2.34709,6.2861 v 5.24123 l 39.75492,-0.35525 c 35.06025,-0.31331 39.91786,-0.61369 41.13475,-2.54376 z m 85.45132,-0.58119 c 0.7194,-1.89216 1.30799,-13.38671 1.30799,-25.54342 v -22.10314 l 5.02947,0.86923 c 7.15077,1.23584 16.22896,3.77808 45.62486,12.77669 14.21325,4.35093 28.18345,8.28516 31.04491,8.74272 6.45681,1.03249 6.34387,1.35845 7.53336,-21.74147 l 0.90528,-17.58049 11.59642,-1.1962 11.59642,-1.19621 1.06629,-10.72953 c 1.21432,-12.21926 0.13231,-29.93637 -1.98402,-32.48639 -0.93039,-1.12105 -5.01359,-1.714 -11.80289,-1.714 h -10.38039 l -0.66491,-19.58563 c -0.73146,-21.54593 -1.17,-22.6111 -8.76411,-21.28723 -2.40075,0.41852 -19.49833,5.56137 -37.99463,11.42856 l -33.62963,10.66761 h -27.09005 c -31.65114,0 -32.27379,0.19788 -33.72043,10.71615 l -0.92414,6.71934 -12.28017,0.0205 c -6.75409,0.0113 -13.14571,0.56825 -14.20358,1.23765 -2.75859,1.74561 -2.99266,48.21942 -0.25945,51.51275 1.47076,1.77217 4.34755,2.21793 14.3138,2.21793 h 12.47309 l 1.51008,4.57557 c 1.62351,4.91931 3.5007,6.15397 9.35651,6.15397 h 3.73324 l 0.63672,24.265 c 0.49581,18.89544 1.05517,24.52992 2.52773,25.46211 1.04006,0.65841 8.69575,1.20635 17.01263,1.21764 15.00598,0.0204 15.13161,-0.006 16.4296,-3.41975 z m 199.89256,2.05191 c 3.04203,-1.62804 3.43087,-6.97717 0.67354,-9.26554 -2.38821,-1.98204 -56.47317,-3.4162 -69.01972,-1.83018 -9.47251,1.19742 -11.80846,3.20683 -10.37365,8.92353 l 0.89363,3.56057 h 37.616 c 23.36483,0 38.59883,-0.526 40.2102,-1.38838 z M 217.84788,480.72149 c 2.63313,-2.63314 2.71038,-6.45203 0.1731,-8.5578 -2.14657,-1.78149 -52.85777,-2.49986 -58.13925,-0.82358 -3.71986,1.18063 -4.13703,7.98907 -0.61519,10.04035 1.37679,0.80191 13.53511,1.3839 29.41042,1.40783 22.85202,0.0344 27.39129,-0.28718 29.17092,-2.0668 z M 523.153,481.4407 c 3.32036,-1.77701 3.53894,-8.69165 0.31387,-9.92923 -4.22858,-1.62266 -56.82437,-1.00498 -58.86831,0.69133 -2.49451,2.07025 -2.39542,5.90304 0.22023,8.51869 1.77544,1.77544 6.33368,2.10759 28.92379,2.10759 15.92027,0 27.87029,-0.56412 29.41042,-1.38838 z M 197.71611,452.50877 c 1.4318,-0.54944 2.12148,-2.51148 2.12148,-6.03537 v -5.22127 h -21.45907 -21.45907 v 4.42593 c 0,2.43426 0.72424,5.15018 1.60943,6.03537 1.69411,1.69411 35.07933,2.37169 39.18723,0.79534 z m 326.42168,-0.79534 c 0.88518,-0.88519 1.60943,-3.61606 1.60943,-6.06859 v -4.45915 l -21.77731,0.36852 c -23.75472,0.40198 -24.13228,0.54756 -21.22814,8.18601 l 1.36211,3.58264 h 19.21224 c 13.1546,0 19.71969,-0.50746 20.82167,-1.60943 z M 269.59825,366.79346 c 1.19602,-1.44111 1.42856,-4.56974 0.79747,-10.72953 l -0.89086,-8.69523 h 5.23791 c 9.05256,0 8.91931,0.72131 8.91931,-48.28144 0,-35.192 -0.36334,-44.28489 -1.8407,-46.06566 -1.66242,-2.00381 -7.66608,-2.21872 -61.98295,-2.21872 h -60.14222 l -1.72368,3.01768 c -2.50935,4.39318 -2.49326,88.62085 0.0174,91.13443 1.31059,1.31211 9.88296,1.8427 34.66925,2.14589 32.60237,0.3988 32.9814,0.4364 38.30981,3.80007 9.7131,6.13162 32.52884,17.88571 34.75807,17.90648 1.20057,0.0112 2.94261,-0.89509 3.87118,-2.01397 z M 525.3015,345.58044 c 0.61397,-0.61471 1.11631,-20.95389 1.11631,-45.19816 0,-34.36657 -0.38399,-44.46474 -1.74253,-45.82406 -1.36638,-1.36719 -14.71353,-1.82442 -61.83323,-2.11821 -54.9372,-0.34252 -60.25137,-0.18126 -61.96409,1.88041 -1.49536,1.80003 -1.95287,10.67114 -2.26735,43.96339 -0.21668,22.93958 -0.0648,43.02444 0.33751,44.63302 0.40614,1.62387 2.07269,3.19735 3.74695,3.53773 5.4178,1.10142 121.45958,0.27411 122.60643,-0.87412 z"
     id="path16"
     transform="scale(0.75)" />
  <path
     style="fill:#d40000;stroke-width:1.34119"
     d="m 135.46038,187.09627 v -34.2004 h 205.87295 205.87296 v 34.2004 34.20039 H 341.33333 135.46038 Z m 58.2537,18.0866 c 8.33301,-4.12895 10.81768,-8.43721 10.81768,-18.7572 0,-6.56242 -0.64437,-9.56553 -2.60631,-12.1468 -4.6786,-6.15551 -9.01121,-8.48705 -16.78003,-9.02993 -8.2509,-0.57657 -13.97735,2.24151 -19.3849,9.53965 -4.3306,5.84465 -3.93898,17.73664 0.78819,23.93428 6.85338,8.98525 17.13462,11.43015 27.16537,6.46 z m 60.27373,-1.3949 c 6.49279,-4.44894 8.88665,-9.1848 8.88079,-17.56923 -0.009,-13.00651 -8.11377,-21.23774 -20.92042,-21.24713 -12.3318,-0.009 -20.94952,8.35803 -21.12519,20.51072 -0.12643,8.74677 4.29535,16.58076 11.40336,20.20312 6.03079,3.07339 15.74282,2.22655 21.76146,-1.89748 z m 58.27451,0.51725 c 5.64376,-4.10951 9.90652,-13.47191 9.20544,-20.21808 -0.69113,-6.65039 -5.85204,-14.10925 -11.94114,-17.25805 -5.72043,-2.95814 -16.72375,-1.9602 -22.31939,2.02426 -12.89,9.17848 -11.16253,29.0895 3.16081,36.43203 6.55556,3.36055 16.54732,2.91324 21.89428,-0.98016 z m 207.79697,-16.53836 c 0.79789,-7.70011 4.41583,-7.34449 -78.7858,-7.74403 -51.98297,-0.24963 -77.37664,0.0881 -79.17971,1.05308 -1.86273,0.9969 -2.65436,2.80961 -2.65436,6.0781 v 4.65753 l 80.13622,-0.34585 80.13621,-0.34585 z"
     id="path17"
     transform="scale(0.75)" />
  <path
     style="fill:#d40000;stroke-width:1.34119"
     d="m 240.07335,340.59563 -11.40013,-6.6252 -29.84152,-0.007 -29.84152,-0.007 V 299.08579 264.2148 h 50.96529 50.96529 v 34.87099 34.87099 h -6.12354 c -8.9237,0 -11.31195,1.70893 -11.31195,8.09434 0,2.92467 -0.45266,5.28431 -1.0059,5.24365 -0.55324,-0.0407 -6.13595,-3.05528 -12.40602,-6.69914 z m 16.0943,-22.59201 c 2.74954,-0.76482 3.35298,-1.7666 3.35298,-5.56638 0,-4.61663 -0.0272,-4.63692 -7.37656,-5.50696 -9.45949,-1.11984 -53.19423,-1.11096 -63.70661,0.0129 l -8.04715,0.86033 v 4.6337 c 0,3.79978 0.60343,4.80156 3.35298,5.56638 1.84414,0.51297 18.13962,0.93267 36.21218,0.93267 18.07256,0 34.36804,-0.4197 36.21218,-0.93267 z m 1.8705,-27.36642 c 1.58552,-1.15936 2.23245,-3.06721 1.93283,-5.70007 -0.4058,-3.56591 -1.04745,-4.04711 -6.48571,-4.86391 -7.58044,-1.13855 -54.27658,-1.10541 -65.04781,0.0462 -7.68408,0.82151 -8.06747,1.03888 -8.49751,4.81776 -0.81415,7.15425 0.73669,7.4427 40.01552,7.4427 27.1653,0 36.26921,-0.41659 38.08268,-1.74263 z"
     id="path18"
     transform="scale(0.75)" />
  <path
     style="fill:#d40000;stroke-width:1.34119"
     d="m 411.74591,299.75639 v -34.2004 h 50.96529 50.96529 v 34.2004 34.20039 H 462.7112 411.74591 Z m 49.55253,26.08342 c 12.51295,-9.89091 25.55421,-22.98757 25.55421,-25.66275 0,-4.24676 -26.76136,-29.11987 -33.6999,-31.32208 -5.79353,-1.83879 -6.53585,1.63388 -6.53585,30.57532 0,15.80961 0.56492,27.71124 1.38838,29.24988 2.10064,3.9251 5.70981,3.15392 13.29316,-2.84037 z"
     id="path19"
     transform="scale(0.75)" />
  <path
     style="fill:#d40000;stroke-width:1.34119"
     d="m 302.97798,448.29948 -15.55509,-0.42299 -0.87451,-16.26407 c -0.48098,-8.94524 -0.87451,-21.29938 -0.87451,-27.45364 v -11.18956 h 20.78847 20.78848 v 28.16503 28.16503 l -4.35888,-0.2884 c -2.39738,-0.15862 -11.35866,-0.47875 -19.91396,-0.7114 z"
     id="path20"
     transform="scale(0.75)" />
  <path
     style="fill:#d40000;stroke-width:1.34119"
     d="m 300.42698,480.14669 v -18.77668 h 5.36477 5.36477 v 18.77668 18.77669 h -5.36477 -5.36477 z"
     id="path21"
     transform="scale(0.75)" />
  <path
     style="fill:#d40000;stroke-width:1.34119"
     d="m 369.14115,458.91896 -28.52225,-8.94908 0.35722,-30.02762 0.35721,-30.02762 28.83563,-9.05703 28.83562,-9.05703 0.87326,6.89605 c 1.13381,8.95361 1.36045,77.79916 0.27769,84.34987 -0.45723,2.7662 -1.205,4.98268 -1.66173,4.9255 -0.45672,-0.0572 -13.66542,-4.13105 -29.35265,-9.05304 z"
     id="path22"
     transform="scale(0.75)" />
  <path
     style="fill:#d40000;stroke-width:1.34119"
     d="m 414.42829,420.46365 v -10.05893 h 6.03536 6.03537 v 10.05893 10.05894 h -6.03537 -6.03536 z"
     id="path23"
     transform="scale(0.75)" />
  <path
     style="fill:#d40000;stroke-width:1.34119"
     d="m 256.16765,423.81663 v -14.75311 h 8.04715 8.04715 v 14.75311 14.75311 h -8.04715 -8.04715 z"
     id="path24"
     transform="scale(0.75)" />
  <path
     style="fill:#d40000;stroke-width:1.34119"
     d="m 236.76059,191.83488 c -4.90239,-5.41708 -2.08109,-13.45636 4.72237,-13.45636 4.78776,0 7.97873,3.17351 7.97873,7.93508 0,7.18686 -8.03339,10.67904 -12.7011,5.52128 z"
     id="path25"
     transform="scale(0.75)" />
  <path
     style="fill:#d40000;stroke-width:1.34119"
     d="m 294.59949,192.02013 c -2.58724,-2.85886 -2.93459,-9.70782 -0.61023,-12.03218 2.48313,-2.48313 8.82274,-1.9068 11.80249,1.07295 3.41502,3.41502 3.41502,7.31452 0,10.72954 -3.34736,3.34735 -8.27922,3.44857 -11.19226,0.22969 z"
     id="path26"
     transform="scale(0.75)" />
  <path
     style="fill:#d40000;stroke-width:1.34119"
     d="m 178.37852,191.79044 c -5.28208,-5.28208 -1.82095,-13.41192 5.70987,-13.41192 7.38739,0 10.69763,9.82044 4.72124,14.00646 -4.01188,2.81004 -7.20875,2.62782 -10.43111,-0.59454 z"
     id="path27"
     transform="scale(0.75)" />
  <path
     style="fill:#d40000;stroke-width:1.34119"
     d="m 458.82131,303.71685 c 0.0735,-3.65356 0.52618,-8.03453 1.0059,-9.73548 0.86557,-3.06913 0.90533,-3.05845 5.2307,1.40466 l 4.35851,4.49729 -5.3644,5.23819 -5.3644,5.2382 z"
     id="path28"
     transform="scale(0.75)" />
</svg>
