<svg width="80" height="80" viewBox="0 0 80 80" fill="none" xmlns="http://www.w3.org/2000/svg">
<circle cx="40" cy="40" r="40" fill="#E51F33"/>
<path d="M25 56.6666H55" stroke="#F4F4F4" stroke-width="1.5" stroke-linecap="round" stroke-linejoin="round"/>
<path d="M25 38.3333C25 36.762 25 35.9763 25.4882 35.4882C25.9763 35 26.762 35 28.3333 35C29.9047 35 30.6904 35 31.1785 35.4882C31.6667 35.9763 31.6667 36.762 31.6667 38.3333V48.3333C31.6667 49.9047 31.6667 50.6904 31.1785 51.1785C30.6904 51.6667 29.9047 51.6667 28.3333 51.6667C26.762 51.6667 25.9763 51.6667 25.4882 51.1785C25 50.6904 25 49.9047 25 48.3333V38.3333Z" stroke="#F4F4F4" stroke-width="1.5"/>
<path d="M36.666 31.6667C36.666 30.0954 36.666 29.3097 37.1542 28.8215C37.6423 28.3334 38.428 28.3334 39.9993 28.3334C41.5707 28.3334 42.3564 28.3334 42.8445 28.8215C43.3327 29.3097 43.3327 30.0954 43.3327 31.6667V48.3334C43.3327 49.9047 43.3327 50.6904 42.8445 51.1786C42.3564 51.6667 41.5707 51.6667 39.9993 51.6667C38.428 51.6667 37.6423 51.6667 37.1542 51.1786C36.666 50.6904 36.666 49.9047 36.666 48.3334V31.6667Z" stroke="#F4F4F4" stroke-width="1.5"/>
<path d="M48.334 26.6667C48.334 25.0954 48.334 24.3097 48.8221 23.8215C49.3103 23.3334 50.096 23.3334 51.6673 23.3334C53.2387 23.3334 54.0243 23.3334 54.5125 23.8215C55.0007 24.3097 55.0007 25.0954 55.0007 26.6667V48.3334C55.0007 49.9047 55.0007 50.6904 54.5125 51.1786C54.0243 51.6667 53.2387 51.6667 51.6673 51.6667C50.096 51.6667 49.3103 51.6667 48.8221 51.1786C48.334 50.6904 48.334 49.9047 48.334 48.3334V26.6667Z" stroke="#F4F4F4" stroke-width="1.5"/>
</svg>
