<svg width="80" height="83" viewBox="0 0 80 83" fill="none" xmlns="http://www.w3.org/2000/svg">
<ellipse cx="40" cy="41.365" rx="40" ry="41.365" fill="#E51F33"/>
<path d="M45.1667 50.5H36.8333M45.1667 50.5C45.1667 49.3108 45.1667 48.7162 45.2301 48.3216C45.4348 47.0493 45.4706 46.9692 46.282 45.9679C46.5336 45.6574 47.4676 44.8211 49.3354 43.1486C51.8915 40.8598 53.5 37.5344 53.5 33.8333C53.5 26.9298 47.9036 21.3333 41 21.3333C34.0964 21.3333 28.5 26.9298 28.5 33.8333C28.5 37.5344 30.1085 40.8598 32.6646 43.1486C34.5324 44.8211 35.4664 45.6574 35.718 45.9679C36.5294 46.9692 36.5652 47.0493 36.7699 48.3216C36.8333 48.7162 36.8333 49.3108 36.8333 50.5M45.1667 50.5C45.1667 52.0577 45.1667 52.8365 44.8317 53.4167C44.6123 53.7967 44.2967 54.1123 43.9167 54.3317C43.3365 54.6667 42.5577 54.6667 41 54.6667C39.4423 54.6667 38.6635 54.6667 38.0833 54.3317C37.7033 54.1123 37.3877 53.7967 37.1683 53.4167C36.8333 52.8365 36.8333 52.0577 36.8333 50.5" stroke="#F4F4F4" stroke-width="1.5"/>
<path d="M41 46.3333V43" stroke="#F4F4F4" stroke-width="1.5" stroke-linecap="round"/>
<path d="M43.8881 41.3333C43.3117 42.3297 42.2345 43 41.0007 43C39.7669 43 38.6896 42.3297 38.1133 41.3333" stroke="#F4F4F4" stroke-width="1.5" stroke-linecap="round"/>
</svg>
