<?xml version="1.0" encoding="UTF-8"?>
<svg id="Layer_1" data-name="Layer 1" xmlns="http://www.w3.org/2000/svg" xmlns:xlink="http://www.w3.org/1999/xlink" viewBox="0 0 44.28 44.85">
  <defs>
    <style>
      .cls-1 {
        fill: none;
      }

      .cls-2 {
        clip-path: url(#clippath);
      }

      .cls-3 {
        fill: #f4f4f4;
      }

      .cls-4 {
        fill: #e51f33;
      }

      .cls-5 {
        clip-path: url(#clippath-1);
      }

      .cls-6 {
        clip-path: url(#clippath-2);
      }
    </style>
    <clipPath id="clippath">
      <rect class="cls-1" x="13.44" y="13.41" width="17.4" height="19.32"/>
    </clipPath>
    <clipPath id="clippath-1">
      <rect class="cls-1" x="13.44" y="13.41" width="17.4" height="19.32"/>
    </clipPath>
    <clipPath id="clippath-2">
      <rect class="cls-1" x="13.47" y="13.43" width="17.36" height="19.28"/>
    </clipPath>
  </defs>
  <ellipse class="cls-4" cx="22.14" cy="22.65" rx="22.14" ry="22.2"/>
  <g class="cls-2">
    <g class="cls-5">
      <g class="cls-6">
        <path class="cls-3" d="M22.81,30.61c1.3,0,2.57-.43,3.6-1.22,1.03-.79,1.78-1.9,2.12-3.16,.34-1.26,.25-2.59-.25-3.8-.5-1.2-1.38-2.21-2.51-2.86-1.13-.65-2.44-.91-3.73-.74-1.29,.17-2.49,.76-3.41,1.68-.19,.19-.19,.51,0,.7,.19,.19,.51,.19,.7,0,.92-.92,2.18-1.44,3.48-1.45,1.31,0,2.56,.52,3.48,1.44,.92,.92,1.44,2.18,1.44,3.48s-.52,2.56-1.44,3.48c-.92,.92-2.18,1.44-3.48,1.44-1.31,0-2.56-.52-3.48-1.45-.19-.19-.51-.19-.7,0-.19,.19-.19,.51,0,.7,.55,.55,1.2,.98,1.91,1.28,.72,.3,1.48,.45,2.26,.45h0Zm.68-5.91c0-.18-.07-.35-.2-.48-.13-.13-.3-.2-.48-.2s-.35,.07-.48,.2c-.13,.13-.2,.3-.2,.48s.07,.35,.2,.48c.13,.13,.3,.2,.48,.2,.18,0,.35-.07,.48-.2,.13-.13,.2-.3,.2-.48h0Zm2.08-2.06l-1.27,1.27c.25,.48,.26,1.05,.02,1.53-.24,.48-.7,.82-1.23,.91-.53,.09-1.08-.09-1.46-.47-.38-.38-.56-.92-.47-1.46,.09-.53,.42-.99,.91-1.23,.48-.24,1.05-.23,1.53,.02l1.27-1.27c.19-.19,.51-.19,.7,0,.19,.19,.19,.51,0,.7Zm-11.6,4.83h3.45c.27,0,.5-.22,.5-.5s-.22-.5-.5-.5h-3.45c-.27,0-.5,.22-.5,.5s.22,.5,.5,.5Zm5.15-2.91c0-.13-.05-.26-.15-.35-.09-.09-.22-.15-.35-.15h-3.45c-.27,0-.5,.22-.5,.5s.22,.5,.5,.5h3.45c.13,0,.26-.05,.35-.15,.09-.09,.15-.22,.15-.35Zm-5.65-2.41c0,.13,.05,.26,.15,.35,.09,.09,.22,.15,.35,.15h3.45c.27,0,.5-.22,.5-.5s-.22-.5-.5-.5h-3.45c-.27,0-.5,.22-.5,.5h0Zm16.3-2.82l-.55,.56c1.16,1.54,1.72,3.46,1.58,5.38-.14,1.93-.97,3.74-2.34,5.1-1.37,1.36-3.18,2.19-5.11,2.32-.18,.01-.36,.02-.54,.02-1.12,0-2.23-.23-3.26-.69-1.03-.46-1.94-1.12-2.69-1.96-.18-.2-.16-.51,.04-.69,.2-.18,.51-.17,.69,.03,1.23,1.37,2.96,2.19,4.8,2.3,1.84,.11,3.65-.51,5.03-1.72,1.39-1.21,2.24-2.92,2.38-4.76,.14-1.84-.45-3.65-1.64-5.06-.17-.2-.16-.49,.03-.67l.87-.87c.13-.14,.12-.35-.01-.49-.13-.13-.35-.14-.48-.01l-.9,.9c-.18,.17-.45,.19-.65,.05-1-.75-2.18-1.22-3.42-1.36-.25-.03-.44-.24-.44-.49v-1.6c0-.13,.05-.26,.14-.36,.09-.1,.22-.15,.35-.15h.45c.19,0,.35-.16,.35-.35s-.16-.35-.35-.35h-2.61c-.19,0-.35,.16-.35,.35s.16,.35,.35,.35h.46c.13,0,.26,.05,.35,.15,.09,.09,.15,.22,.15,.35v1.61c0,.25-.19,.46-.44,.49-1.61,.18-3.1,.92-4.23,2.07-.19,.2-.51,.2-.7,0-.2-.19-.2-.51,0-.7,1.18-1.21,2.72-2.02,4.39-2.3v-.68c-.45-.04-.86-.31-1.07-.72-.21-.4-.2-.89,.02-1.29,.22-.4,.64-.65,1.09-.68h2.61c.46,.03,.87,.28,1.09,.68,.22,.4,.23,.88,.02,1.29-.21,.4-.61,.67-1.07,.72v.67c1.11,.19,2.17,.61,3.11,1.23l.6-.6c.34-.34,.84-.47,1.3-.35,.46,.12,.83,.49,.95,.95,.12,.46,0,.96-.35,1.3h0Z"/>
      </g>
    </g>
  </g>
</svg>