<?xml version="1.0" encoding="UTF-8"?>
<svg id="Layer_1" data-name="Layer 1" xmlns="http://www.w3.org/2000/svg" xmlns:xlink="http://www.w3.org/1999/xlink" viewBox="0 0 49.63 48.92">
  <defs>
    <style>
      .cls-1 {
        fill: none;
      }

      .cls-2 {
        clip-path: url(#clippath);
      }

      .cls-3 {
        fill: #f4f4f4;
      }

      .cls-4 {
        fill: #e51f33;
      }

      .cls-5 {
        clip-path: url(#clippath-1);
      }

      .cls-6 {
        clip-path: url(#clippath-2);
      }
    </style>
    <clipPath id="clippath">
      <rect class="cls-1" x="15.74" y="14.78" width="18" height="19.8"/>
    </clipPath>
    <clipPath id="clippath-1">
      <rect class="cls-1" x="15.74" y="14.78" width="18" height="19.8"/>
    </clipPath>
    <clipPath id="clippath-2">
      <rect class="cls-1" x="15.77" y="14.8" width="17.96" height="19.76"/>
    </clipPath>
  </defs>
  <circle class="cls-4" cx="24.74" cy="24.62" r="22.2"/>
  <g class="cls-2">
    <g class="cls-5">
      <g class="cls-6">
        <path class="cls-3" d="M27.24,21.65s-.03-.03-.05-.04c.02,.01,.03,.02,.05,.04Zm4.26,4.78l-.05,.03c-.11,.08-.19,.2-.21,.33-.02,.13,0,.27,.09,.38,.38,.55,.54,1.21,.44,1.87-.2,.61-.65,1.11-1.24,1.37-.01,0-.02,0-.03,0-.27,0-.53-.07-.77-.2,.29-.53,.39-1.15,.27-1.75-.05-.23-.26-.4-.49-.4-.04,0-.07,0-.11,.01-.27,.06-.44,.32-.39,.59,.08,.39,0,.78-.21,1.11-.25,.24-.58,.37-.92,.37-.06,0-.12,0-.18-.01h0s-.02,0-.02,0c-.27,0-.5,.22-.5,.49,0,.27,.22,.5,.49,.51,.03,0,.07,0,.11,0,.02,0,.04,0,.05,0,.38,0,.76-.08,1.11-.24,.35,.24,.74,.41,1.16,.48-.06,.21-.18,.4-.34,.55-.28,.25-.7,.38-1.25,.38-.23,0-.48-.02-.75-.07h0s0,0,0,0c-.02,0-.05,0-.07,0-.2,0-.39,.12-.46,.31-.1,.23-.49,.92-.96,1-.39-.01-.76-.21-1-.52v-1.12s0-.08-.02-.12c.01-.04,.02-.08,.02-.12v-15.1c.14-.2,.58-.76,1.08-.76,.03,0,.06,0,.1,0,.17,.02,.33,.09,.47,.21,.13,.11,.23,.26,.27,.43,0,.04,.01,.07,.01,.11h0s0,.01,0,.02c0,.1-.06,.19-.15,.24h0s0,0,0,0c-.23,.15-.29,.46-.14,.69,.09,.14,.25,.22,.42,.22,.1,0,.19-.03,.28-.08,.23-.15,.4-.36,.51-.61,.47,0,1.29,.08,1.76,.51,.13,.12,.22,.27,.28,.43-.5,.01-.96,.21-1.32,.55-.35-.16-.75-.25-1.14-.25h0c-.27,0-.49,.24-.48,.51,0,.27,.23,.49,.5,.49h.02c.37,0,.72,.14,.99,.38,.25,.3,.36,.68,.31,1.07h0c0,.14,.04,.27,.13,.37,.08,.09,.19,.15,.3,.16h0s.07,0,.07,0c.27,0,.48-.21,.5-.47,.06-.57-.09-1.13-.41-1.6,.18-.13,.4-.2,.63-.2,.11,0,.22,.02,.33,.05,0,0,.02,0,.02,0,0,0,.01,0,.02,0,.48,.16,.88,.49,1.11,.94,.26,.64,.25,1.35,0,1.98-.25-.07-.51-.1-.78-.1-.44,0-.89,.1-1.28,.29h0s0,0,0,0c-.15,.08-.28,.18-.41,.29-.2,.09-.41,.14-.63,.14-.13,0-.26-.02-.38-.05-.37-.15-.67-.44-.82-.82h0s0,0,0,0c-.08-.17-.26-.28-.45-.28-.08,0-.15,.02-.22,.05-.12,.06-.21,.16-.26,.29-.04,.13-.04,.26,.02,.38,.26,.62,.78,1.11,1.42,1.34h0c.19,.06,.39,.1,.59,.1-.08,.23-.14,.48-.18,.72-.02,.13,.01,.26,.09,.37,.08,.11,.2,.18,.33,.2,.03,0,.05,0,.08,0h0c.25,0,.46-.18,.5-.42h0c.03-.58,.33-1.11,.8-1.43,.26-.11,.54-.17,.83-.17s.55,.05,.8,.15c.18,.15,.99,.86,.97,1.69-.01,.58-.42,1.14-1.21,1.69Zm-7.26,5.48h0v1.12c-.24,.31-.6,.5-1,.52-.48-.08-.86-.76-.96-1l-.14-.33v.14c-.09-.07-.2-.12-.32-.12-.03,0-.05,0-.08,0-.27,.04-.52,.07-.75,.07-.55,0-.96-.13-1.24-.37-.16-.15-.28-.34-.35-.56,.41-.08,.81-.24,1.16-.48,.35,.16,.73,.24,1.11,.24,.02,0,.04,0,.06,0h0s.07,0,.1,0c.28,0,.5-.24,.49-.51-.01-.27-.23-.49-.51-.49h-.02c-.06,0-.12,.01-.18,.01-.35,0-.67-.13-.92-.37-.21-.33-.29-.73-.21-1.12,.06-.27-.12-.53-.39-.59-.03,0-.07-.01-.1-.01-.23,0-.44,.17-.49,.4-.12,.6-.02,1.22,.27,1.75-.24,.13-.5,.2-.77,.2h-.03c-.59-.26-1.04-.75-1.24-1.37-.1-.66,.06-1.32,.44-1.87,.08-.11,.11-.25,.09-.38-.02-.13-.1-.25-.21-.33-.83-.55-1.25-1.13-1.26-1.72-.02-.84,.78-1.54,.97-1.69,.26-.1,.53-.15,.8-.15s.57,.06,.83,.17c.47,.33,.77,.86,.8,1.43h0s0,0,0,0c.04,.24,.25,.42,.5,.42,.03,0,.05,0,.08,0,.27-.04,.46-.3,.42-.57-.04-.25-.1-.49-.18-.72,.2,0,.4-.04,.59-.1h0c.64-.23,1.15-.72,1.41-1.34,.06-.12,.07-.26,.02-.38-.04-.13-.14-.23-.26-.29-.07-.03-.14-.05-.22-.05-.19,0-.37,.11-.45,.28h0s0,0,0,0c-.15,.37-.44,.67-.81,.81-.13,.03-.26,.05-.39,.05-.22,0-.43-.05-.63-.14-.12-.11-.26-.21-.4-.29h0s0,0,0,0c-.4-.19-.84-.29-1.28-.29-.26,0-.52,.04-.78,.1-.26-.64-.26-1.34,0-1.98,.24-.45,.63-.78,1.11-.94,0,0,.02,0,.02,0,0,0,0,0,0,0h.01c.11-.04,.22-.06,.33-.06,.23,0,.45,.07,.63,.2-.32,.47-.47,1.03-.41,1.6,.02,.26,.24,.47,.5,.47,0,0,.02,0,.03,0,.13,0,.26-.07,.35-.17,.09-.1,.13-.23,.13-.36h0c-.05-.39,.06-.78,.31-1.07,.28-.24,.63-.38,1-.38h0s0,0,0,0h.01c.27,0,.5-.22,.5-.49,0-.27-.21-.5-.49-.51h0c-.39,0-.78,.09-1.14,.25-.36-.34-.83-.53-1.32-.55,.06-.16,.15-.31,.28-.43,.47-.44,1.29-.51,1.76-.51,.1,.25,.28,.47,.51,.61,.08,.05,.18,.08,.28,.08,.17,0,.32-.08,.42-.22,.15-.23,.09-.54-.14-.69h0s0,0,0,0c-.09-.05-.14-.14-.15-.24,0,0,0-.02,0-.02h0s0-.08,.01-.11c.05-.17,.14-.31,.27-.43,.13-.11,.29-.18,.46-.21,.03,0,.06,0,.09,0,.51,0,.95,.56,1.09,.76v15.1s0,.08,.02,.12c-.01,.04-.02,.08-.02,.12h0Zm9.46-6.95l.02,.03v-.23c-.06-.88-.47-1.72-1.14-2.29,.4-1.13,.4-2.1,0-2.9-.3-.58-.79-1.05-1.39-1.32-.04-.54-.28-1.04-.68-1.4-.72-.66-1.82-.77-2.44-.78-.12-.31-.31-.59-.57-.8-.27-.23-.6-.37-.95-.42h0c-.06,0-.11,0-.17,0-.63,0-1.24,.28-1.65,.77-.41-.48-1.02-.77-1.65-.77-.06,0-.11,0-.17,0h0c-.35,.05-.68,.2-.95,.42-.26,.21-.45,.49-.57,.8-.62,0-1.72,.12-2.44,.78-.4,.37-.64,.86-.68,1.4-.6,.27-1.09,.74-1.39,1.32-.4,.8-.4,1.78,0,2.9-.67,.58-1.08,1.41-1.12,2.29h0s0,0,0,0c.02,.82,.46,1.58,1.32,2.25-.38,.69-.5,1.49-.35,2.26h0s0,0,0,0c.24,.84,.82,1.55,1.6,1.94,.06,.56,.31,1.07,.72,1.46,.47,.42,1.12,.64,1.93,.64,.17,0,.35,0,.54-.03,.31,.62,.88,1.07,1.56,1.25h0s0,0,0,0c.08,.01,.17,.02,.25,.02h0c.53-.03,1.02-.25,1.4-.62,.37,.37,.87,.59,1.4,.62h0c.09,0,.17,0,.25-.02h0c.68-.18,1.24-.63,1.56-1.25,.19,.02,.37,.03,.54,.03,.81,0,1.46-.22,1.93-.64,.41-.39,.66-.9,.72-1.46,.78-.39,1.36-1.1,1.6-1.94h0c.15-.78,.03-1.57-.35-2.26,.79-.62,1.23-1.31,1.31-2.06Z"/>
      </g>
      <path class="cls-3" d="M22.99,27.76c-.06,.12-.17,.21-.3,.24-.05,.01-.1,.02-.15,.02-.22,0-.41-.14-.48-.35h0s0,0,0,0c-.08-.39-.33-.73-.69-.91-.15-.04-.3-.07-.46-.07-.24,0-.48,.06-.7,.16-.07,.04-.15,.06-.23,.06-.19,0-.36-.1-.45-.27-.06-.12-.07-.25-.03-.38,.04-.13,.13-.23,.25-.29,.36-.18,.76-.27,1.16-.27,.29,0,.57,.05,.85,.14h0s0,0,0,0c.64,.3,1.1,.86,1.26,1.55,.04,.13,.03,.26-.04,.38Z"/>
      <path class="cls-3" d="M29.95,26.63c-.09,.17-.26,.27-.45,.27-.08,0-.16-.02-.23-.05-.22-.11-.46-.16-.7-.16-.16,0-.31,.02-.46,.07-.35,.19-.6,.52-.69,.91h0s0,0,0,0c-.07,.21-.26,.35-.48,.35-.05,0-.1,0-.15-.02-.13-.04-.23-.13-.3-.24-.06-.12-.07-.25-.04-.38,.16-.69,.62-1.25,1.26-1.55h0s0,0,0,0c.27-.09,.56-.14,.85-.14,.4,0,.79,.09,1.15,.27h0c.25,.13,.34,.43,.22,.68Z"/>
    </g>
  </g>
</svg>