<?xml version="1.0" encoding="UTF-8"?>
<svg id="Layer_1" data-name="Layer 1" xmlns="http://www.w3.org/2000/svg" xmlns:xlink="http://www.w3.org/1999/xlink" viewBox="0 0 44.28 47.02">
  <defs>
    <style>
      .cls-1 {
        fill: none;
      }

      .cls-2 {
        clip-path: url(#clippath);
      }

      .cls-3 {
        fill: #f4f4f4;
      }

      .cls-4 {
        fill: #e51f33;
      }

      .cls-5 {
        clip-path: url(#clippath-1);
      }

      .cls-6 {
        clip-path: url(#clippath-3);
      }

      .cls-7 {
        clip-path: url(#clippath-2);
      }
    </style>
    <clipPath id="clippath">
      <rect class="cls-1" x="15.12" y="13.99" width="14.04" height="19.32"/>
    </clipPath>
    <clipPath id="clippath-1">
      <rect class="cls-1" x="15.12" y="13.99" width="14.04" height="19.32"/>
    </clipPath>
    <clipPath id="clippath-2">
      <rect class="cls-1" x="15.15" y="14.01" width="14" height="19.28"/>
    </clipPath>
    <clipPath id="clippath-3">
      <rect class="cls-1" x="15.15" y="14.01" width="14" height="19.28"/>
    </clipPath>
  </defs>
  <ellipse class="cls-4" cx="22.14" cy="23.11" rx="22.14" ry="22.2"/>
  <g class="cls-2">
    <g class="cls-5">
      <g class="cls-7">
        <path class="cls-3" d="M28.09,21.18c-.03,2.52-1.79,4.87-4.2,5.59-1.5,.41-3.17,.3-4.55-.45-3.44-1.71-4.21-6.77-1.45-9.45,3.66-3.86,10.38-1.02,10.2,4.3Zm-2.07,11.01c-.73-.27-3.15-2.67-3.86-2.58-.01,0-.02,0-.03,0-.7-.1-3.13,2.31-3.86,2.58-.07,.02-.14-.02-.14-.09h0v-5.05c.06-.34,.52,.13,.66,.16,0,0,.01,0,.02,0,.56,.31,1.18,.55,1.82,.68,.03,0,.06,0,.08,0,.05,0,.11,0,.17,.04,0,0,.02,0,.03,0,.12,.02,.35,.05,.51,.09,.08,.02,.16,.03,.24,.03,.45,0,1.48,.02,1.74-.06,0,0,0,0,.01,0,.94-.15,1.74-.55,2.57-1.01,.04-.02,.08-.02,.11,0,.03,.03,.05,.06,.05,.1l.03,4.99h0c0,.07-.08,.12-.14,.1h0Zm2.76-13.38c-1.15-3.73-5.62-5.81-9.21-4.29-2.87,1.09-4.75,4.21-4.38,7.27,.16,1.51,.82,2.96,1.87,4.07,.1,.07,0,6.15,.04,6.24-.03,.87,1.01,1.47,1.75,1.01,0,0,.05-.03,.06-.04,0,0,0,0,0,0l3.16-2.37s.11-.03,.16,0l3.17,2.39s0,0,0,0l.06,.04c.74,.43,1.77-.16,1.74-1.03v-6.11s0-.05,.03-.07c1.69-1.89,2.42-4.65,1.55-7.1Z"/>
      </g>
      <g class="cls-6">
        <path class="cls-3" d="M28.09,21.19c-.03,2.52-1.79,4.87-4.2,5.59-1.5,.41-3.17,.3-4.55-.45-3.44-1.71-4.21-6.77-1.45-9.45,3.66-3.86,10.38-1.02,10.2,4.3Zm-2,11.03c-.63-.11-3.23-2.74-3.94-2.6-.7-.14-3.32,2.49-3.94,2.6-.04-.02-.07-.07-.07-.12v-5.05c.06-.35,.54,.15,.67,.16,.57,.32,1.21,.56,1.87,.7,.19,.04,.35,.09,.85,.16,.31,.04,1.6,.03,1.88-.06,.96-.15,1.77-.57,2.61-1.03,.07,0,.13,.06,.13,.13l.03,5s-.03,.09-.07,.12Zm2.69-13.4c-1.15-3.73-5.62-5.81-9.21-4.29-2.87,1.09-4.75,4.21-4.38,7.27,.16,1.51,.82,2.96,1.87,4.07,.1,.07,0,6.15,.04,6.24-.03,.87,1.01,1.47,1.75,1.01l.06-.04,3.16-2.37s.11-.03,.16,0l3.17,2.39,.06,.04c.74,.43,1.77-.16,1.74-1.03v-6.15c1.71-1.89,2.45-4.67,1.58-7.13h0Zm-.69,2.36c-.03,2.52-1.79,4.87-4.2,5.59-1.5,.41-3.17,.3-4.55-.45-3.44-1.71-4.21-6.77-1.45-9.45,3.66-3.86,10.38-1.02,10.2,4.3Zm-2,11.03c-.63-.11-3.23-2.74-3.94-2.6-.7-.14-3.32,2.49-3.94,2.6-.04-.02-.07-.07-.07-.12v-5.05c.06-.35,.54,.15,.67,.16,.57,.32,1.21,.56,1.87,.7,.06,0,.14,0,.22,.04,.15,.02,.49,.07,.62,.12,.32,0,1.6,.03,1.88-.06,.96-.15,1.77-.57,2.61-1.03,.07,0,.13,.06,.13,.13l.03,5s-.03,.09-.07,.12Zm2.69-13.4c-1.15-3.73-5.62-5.81-9.21-4.29-2.87,1.09-4.75,4.21-4.38,7.27,.16,1.51,.82,2.96,1.87,4.07,.1,.07,0,6.15,.04,6.24-.03,.87,1.01,1.47,1.75,1.01l.06-.04,3.16-2.37s.11-.03,.16,0l3.17,2.39,.06,.04c.74,.43,1.77-.16,1.74-1.03v-6.15c1.71-1.89,2.45-4.67,1.58-7.13h0Zm-.69,2.36c-.03,2.52-1.79,4.87-4.2,5.59-1.5,.41-3.17,.3-4.55-.45-3.44-1.71-4.21-6.77-1.45-9.45,3.66-3.86,10.38-1.02,10.2,4.3Zm-2,11.03c-.63-.11-3.23-2.74-3.94-2.6-.7-.14-3.32,2.49-3.94,2.6-.04-.02-.07-.07-.07-.12v-5.05c.06-.35,.54,.15,.67,.16,.57,.32,1.21,.56,1.87,.7,.06,0,.14,0,.22,.04,.15,.02,.49,.07,.62,.12,.32,0,1.6,.03,1.88-.06,.96-.15,1.77-.57,2.61-1.03,.07,0,.13,.06,.13,.13l.03,5s-.03,.09-.07,.12Zm2.69-13.4c-1.15-3.73-5.62-5.81-9.21-4.29-2.87,1.09-4.75,4.21-4.38,7.27,.16,1.51,.82,2.96,1.87,4.07,.1,.07,0,6.15,.04,6.24-.03,.87,1.01,1.47,1.75,1.01l.06-.04,3.16-2.37s.11-.03,.16,0l3.17,2.39,.06,.04c.74,.43,1.77-.16,1.74-1.03v-6.15c1.71-1.89,2.45-4.67,1.58-7.13h0Z"/>
      </g>
      <path class="cls-3" d="M25.52,20.32s-.02,.08-.05,.1l-1.22,.93c-.2,.15-.34,.36-.42,.6-.08,.24-.08,.49,0,.74l.47,1.56c.02,.05,0,.11-.05,.14-.02,.02-.05,.02-.07,.02s-.05,0-.08-.03l-1.24-.91c-.2-.15-.45-.23-.7-.23s-.5,.08-.7,.23c0,0,0,0,0,0l-1.22,.87s-.05,.02-.07,.02-.05,0-.08-.02c-.05-.03-.06-.09-.05-.14l.46-1.49s0,0,0,0c.08-.24,.07-.5,0-.74-.08-.24-.22-.45-.42-.6l-1.24-.93s-.05-.06-.05-.1v-.08s.01-.07,.04-.09c.02-.02,.06-.04,.09-.04h1.52c.25,0,.5-.08,.7-.23,.2-.15,.35-.36,.42-.6l.47-1.52c.02-.05,.07-.09,.12-.09s.11,.04,.12,.09l.47,1.5c.07,.24,.22,.46,.42,.61,.2,.15,.45,.23,.7,.23h1.53c.07,0,.13,.06,.13,.13v.08Zm.97-.41c-.08-.24-.22-.44-.42-.59-.2-.15-.43-.23-.68-.23h-1.51c-.06,0-.11-.04-.12-.09l-.47-1.5h0c-.1-.33-.33-.6-.63-.74-.15-.07-.32-.11-.48-.11s-.33,.04-.48,.11c-.31,.14-.54,.41-.63,.74,0,0,0,0,0,0l-.47,1.52c-.02,.05-.07,.09-.12,.09h-1.54c-.25,0-.49,.08-.69,.22-.2,.15-.35,.35-.42,.59,0,0,0,0,0,0-.08,.24-.09,.5-.01,.75,.08,.25,.22,.46,.43,.61l1.24,.97s.06,.09,.04,.14l-.47,1.5c-.08,.25-.08,.51,0,.76,.08,.24,.24,.46,.45,.61,0,0,0,0,0,0,.2,.14,.44,.22,.68,.22s.48-.08,.68-.22l1.22-.95s.05-.03,.08-.03,.05,0,.08,.03l1.22,.93c.2,.15,.45,.24,.7,.24,.24,0,.47-.08,.66-.22,.21-.15,.37-.36,.45-.61,.08-.25,.08-.51,0-.75,0,0,0,0,0,0l-.45-1.56c-.02-.05,0-.11,.05-.14l1.22-.92c.2-.16,.35-.37,.43-.62,.07-.25,.07-.51-.01-.75h0Z"/>
    </g>
  </g>
</svg>