<?xml version="1.0" encoding="UTF-8"?>
<svg id="Layer_1" data-name="Layer 1" xmlns="http://www.w3.org/2000/svg" xmlns:xlink="http://www.w3.org/1999/xlink" viewBox="0 0 46.04 44.4">
  <defs>
    <style>
      .cls-1 {
        fill: none;
      }

      .cls-2 {
        clip-path: url(#clippath);
      }

      .cls-3 {
        fill: #f4f4f4;
      }

      .cls-4 {
        fill: #e51f33;
      }

      .cls-5 {
        clip-path: url(#clippath-1);
      }

      .cls-6 {
        clip-path: url(#clippath-2);
      }
    </style>
    <clipPath id="clippath">
      <rect class="cls-1" x="14.46" y="13.08" width="16.32" height="19.08"/>
    </clipPath>
    <clipPath id="clippath-1">
      <rect class="cls-1" x="14.46" y="13.08" width="16.32" height="19.08"/>
    </clipPath>
    <clipPath id="clippath-2">
      <rect class="cls-1" x="14.49" y="13.11" width="16.28" height="19.03"/>
    </clipPath>
  </defs>
  <circle class="cls-4" cx="22.62" cy="22.2" r="22.2"/>
  <g class="cls-2">
    <g class="cls-5">
      <g class="cls-6">
        <path class="cls-3" d="M19.63,31.1h-3.85c-.14,0-.25-.11-.25-.25,0-.47,.19-.93,.52-1.26,.34-.33,.79-.52,1.26-.52h.77c.47,0,.92,.19,1.25,.53,.33,.33,.52,.79,.52,1.26,0,.13-.1,.24-.23,.25Zm-1.93-5.88c.37,0,.72,.15,.98,.41,.26,.26,.41,.61,.41,.98s-.15,.72-.41,.98c-.26,.26-.61,.41-.98,.41s-.72-.15-.98-.41c-.26-.26-.41-.61-.41-.98s.15-.72,.41-.98c.26-.26,.61-.41,.98-.41Zm1.7,3.15c.47-.46,.74-1.09,.74-1.74,0-.87-.47-1.68-1.22-2.12s-1.69-.44-2.44,0c-.76,.44-1.22,1.24-1.22,2.12,0,.66,.27,1.29,.74,1.74-.45,.24-.83,.59-1.1,1.03-.27,.44-.41,.94-.41,1.45,0,.34,.14,.67,.38,.91,.24,.24,.57,.38,.91,.38h3.85c.34,0,.67-.14,.91-.38,.24-.24,.38-.57,.38-.91,0-.51-.14-1.01-.41-1.45s-.65-.79-1.1-1.03h0Zm8.51,2.73h-3.83c-.14,0-.25-.11-.25-.25,0-.47,.19-.93,.52-1.26,.34-.33,.79-.52,1.26-.52h.77c.47,0,.92,.19,1.25,.53,.33,.33,.52,.79,.52,1.26,0,.13-.1,.24-.23,.25h-.02Zm-1.93-5.88c.37,0,.72,.15,.98,.41,.26,.26,.41,.61,.41,.98s-.15,.72-.41,.98c-.26,.26-.61,.41-.98,.41s-.72-.15-.98-.41c-.26-.26-.41-.61-.41-.98s.15-.73,.41-.99c.26-.26,.62-.4,.99-.4h-.02Zm1.7,3.15c.47-.46,.74-1.09,.74-1.74,0-.87-.47-1.68-1.22-2.12-.76-.44-1.69-.44-2.44,0s-1.22,1.24-1.22,2.12c0,.66,.27,1.29,.74,1.74-.45,.24-.83,.59-1.1,1.03-.27,.44-.41,.94-.41,1.45,0,.34,.14,.67,.38,.91,.24,.24,.57,.38,.91,.38h3.85c.34,0,.67-.14,.91-.38,.24-.24,.38-.57,.38-.91,0-.51-.14-1.01-.4-1.45-.26-.44-.64-.8-1.09-1.04h-.02Zm-.05-11.97c0,.29-.23,.52-.52,.52h-4.85c-.29,0-.52-.23-.52-.52s.23-.52,.52-.52h4.85c.14,0,.28,.05,.38,.15,.1,.1,.16,.23,.16,.37h-.02Zm0,2.77c0,.28-.23,.52-.52,.52h-4.85c-.29,0-.52-.23-.52-.52,0-.29,.23-.52,.52-.52h4.85c.14,0,.28,.05,.38,.15,.1,.1,.16,.23,.16,.37h-.02Zm2.08,.69c0,.41-.17,.8-.46,1.09-.29,.29-.69,.45-1.09,.44h-4.09c-.14,0-.27,.06-.37,.15l-1.62,1.61c-.05,.05-.12,.07-.19,.04-.07-.03-.11-.09-.11-.16v-1.1c0-.14-.05-.27-.15-.37-.1-.1-.23-.15-.37-.15-.41,0-.81-.17-1.1-.46-.29-.29-.45-.69-.45-1.1v-4.15c0-.41,.15-.8,.44-1.09,.28-.29,.67-.46,1.08-.47h6.93c.41,0,.81,.16,1.1,.45,.29,.29,.46,.69,.45,1.1v4.15s0,0,0,0Zm-1.56-6.75h-6.93c-.68,0-1.33,.29-1.81,.77-.48,.49-.75,1.14-.74,1.82v4.15c0,.6,.21,1.17,.59,1.64,.38,.46,.91,.78,1.49,.9v.69c0,.24,.07,.47,.2,.67,.13,.2,.32,.35,.54,.44,.15,.06,.31,.1,.47,.1,.32,0,.63-.13,.85-.36l1.47-1.46h3.86c.69,0,1.36-.28,1.84-.77,.49-.49,.76-1.16,.75-1.85v-4.15c0-.69-.27-1.35-.76-1.83-.49-.49-1.15-.76-1.84-.76Z"/>
      </g>
    </g>
  </g>
</svg>