<svg width="212" height="294" viewBox="0 0 212 294" fill="none" xmlns="http://www.w3.org/2000/svg">
<g clip-path="url(#clip0_305_705)">
<path d="M46.7156 105.191C75.6105 77.9189 211.517 75.3046 211.517 75.3046C211.517 75.3046 215.538 285.074 46.9589 293.992C22.2705 295.299 10.2228 139.63 46.7156 105.191Z" fill="#BFBFBF"/>
<path d="M31.298 78.3232C37.0009 74.9288 93.7749 103.567 101.923 138.882C111.538 201.039 84.6258 254.445 79.3274 252.367C79.0689 252.266 78.8134 251.944 78.5518 251.096C75.6562 241.689 70.9053 227.724 70.3487 227.754C69.5092 227.802 69.1108 237.452 70.4612 250.33C72.3166 268.05 38.6038 299.22 32.7914 293.196C-24.7765 233.51 5.80959 93.4941 31.298 78.3232Z" fill="#ADAEB2"/>
<path d="M119.08 136.505C67.7619 136.505 26.1603 105.977 26.1603 68.3181C26.1603 30.6595 67.7619 0.131104 119.08 0.131104C170.398 0.131104 212 30.6595 212 68.3181C212 105.977 170.398 136.505 119.08 136.505Z" fill="#CECECE"/>
<path d="M80.9545 27.8288C97.7014 27.0724 112.547 36.3596 119.406 50.2591C126.198 36.1929 141.135 26.7687 158.004 27.531C180.405 28.5434 197.726 47.1445 196.692 69.0747C195.658 91.0048 176.658 107.962 154.256 106.95C138.839 106.253 125.827 97.2251 119.549 84.5136C113.329 97.3799 100.238 106.545 84.6987 107.248C62.2975 108.26 43.2968 91.3026 42.2627 69.3724C41.2285 47.4423 58.5503 28.8411 80.9515 27.8288H80.9545Z" fill="#BFBFBF"/>
<path d="M110.211 93.116C114.135 91.0168 117.359 87.8575 119.503 84.0194C121.647 87.8605 124.874 91.0168 128.795 93.116L119.503 109.555L110.211 93.116Z" fill="#25272D"/>
<path d="M80.4094 35.0616C98.7531 34.2308 114.332 48.4073 115.464 66.3503C116.543 83.4389 101.874 99.0594 83.4753 100.093C65.1437 101.123 49.5739 87.0358 48.7284 69.0808C47.8828 51.1258 62.0657 35.8923 80.4063 35.0646L80.4094 35.0616Z" fill="#F4F4F4"/>
<path d="M71.3693 56.5151C71.4787 56.3692 71.5365 56.2917 71.5365 56.2917L79.0127 51.8164L102.968 66.9605C102.971 66.9873 110.919 72.3023 110.922 72.3261C110.922 72.3261 108.939 71.8586 106.886 71.1023C106.454 70.9415 103.306 70.2537 103.284 70.3907C101.219 82.7775 87.52 85.5794 87.52 85.5794C77.2729 87.9942 68.5223 80.5026 66.7521 73.0199C65.3013 66.889 67.2388 60.7581 71.3693 56.518V56.5151Z" fill="#505259"/>
<path d="M72.4169 60.1865L72.4412 60.249C78.8285 58.7602 82.1742 58.7602 88.5615 62.3333C91.089 63.7477 94.1732 65.7189 97.1265 67.6811C98.3158 74.9435 93.5679 81.9647 86.1373 83.65C78.3783 85.4098 70.6315 80.6784 68.8369 73.0825C67.7024 68.2945 69.205 63.5095 72.4169 60.1865Z" fill="white"/>
<path d="M76.5626 77.0683C72.5279 73.4678 72.2248 67.3619 75.8856 63.4302C79.5464 59.4986 85.7848 59.23 89.8195 62.8305C93.8542 66.4309 94.1573 72.5368 90.4966 76.4685C86.8358 80.4002 80.5973 80.6687 76.5626 77.0683Z" fill="#25272D"/>
<path d="M69.6553 39.1377C74.5218 46.8795 110.671 72.1357 110.914 72.3233C110.795 72.2965 108.873 71.8379 106.887 71.1025C106.738 71.0489 105.284 70.0246 103.146 68.5387C101.114 67.1273 98.471 65.3021 95.7428 63.4976C92.9354 61.6396 90.0429 59.8024 87.6492 58.4625C85.2646 57.1285 83.3058 56.2948 81.4505 55.8481C78.339 55.0978 73.4725 57.8818 69.4698 58.8138L69.6523 39.1348L69.6553 39.1377Z" fill="#25272D"/>
<path d="M72.4173 60.1864C73.5366 59.0281 74.8658 58.0455 76.3622 57.3041C77.3781 56.8009 78.473 56.4048 79.6349 56.1428C80.2432 56.0029 80.8485 55.9046 81.4538 55.848C83.3091 56.2947 85.2679 57.1284 87.6525 58.4624C90.0462 59.8023 92.9387 61.6395 95.7461 63.4975C96.2662 64.492 96.6707 65.5699 96.9384 66.7104C97.0083 67.0022 97.0631 67.2821 97.1117 67.5739C97.1178 67.6066 97.1239 67.6483 97.127 67.6811C94.1736 65.7188 91.0925 63.7476 88.565 62.3333C82.1777 58.7601 78.7194 58.7869 72.3321 60.2757L72.4203 60.1834L72.4173 60.1864Z" fill="#CECECE"/>
<path d="M75.7566 64.5844C76.1976 63.9085 77.0584 63.3993 77.7336 63.5422C78.3176 63.6643 78.6339 64.236 78.6248 64.8524C78.6157 65.4688 78.3328 66.1209 77.983 66.7223C77.7671 67.0916 77.5025 67.4757 77.1223 67.6841C76.514 68.0146 75.8448 67.7347 75.6076 67.2315C75.4129 66.8206 75.4038 66.7045 75.4038 66.7045C75.2456 66.0524 75.3186 65.2663 75.7627 64.5874L75.7566 64.5844Z" fill="white"/>
<path d="M123.49 66.0524C124.621 48.1093 140.2 33.9358 158.544 34.7636C176.887 35.5944 191.07 50.8219 190.222 68.7799C189.373 86.7378 173.806 100.825 155.475 99.7917C137.076 98.7584 122.41 83.1379 123.486 66.0494L123.49 66.0524Z" fill="#F4F4F4"/>
<path d="M135.985 66.6629L159.941 51.5188L167.417 55.9941C167.417 55.9941 167.478 56.0716 167.584 56.2175C171.715 60.4576 173.652 66.5885 172.201 72.7193C170.431 80.2021 161.681 87.6937 151.433 85.2789C151.433 85.2789 137.734 82.477 135.669 70.0901C135.645 69.9502 132.5 70.641 132.068 70.8018C130.015 71.5581 128.032 72.0256 128.032 72.0256C128.032 72.0017 135.982 66.6867 135.985 66.6599V66.6629Z" fill="#505259"/>
<path d="M141.827 67.3835C144.78 65.4213 147.864 63.4501 150.392 62.0357C156.779 58.4626 160.125 58.4626 166.512 59.9514L166.536 59.8889C169.748 63.2119 171.251 67.9969 170.116 72.7849C168.322 80.3808 160.575 85.1122 152.816 83.3524C145.385 81.6671 140.637 74.6459 141.827 67.3835Z" fill="white"/>
<path d="M148.536 76.2606C144.832 72.2852 145.1 66.1418 149.134 62.5389C153.169 58.936 159.443 59.2379 163.147 63.2132C166.851 67.1886 166.583 73.332 162.548 76.9349C158.513 80.5378 152.24 80.2359 148.536 76.2606Z" fill="#25272D"/>
<path d="M169.299 38.8401L169.484 58.5161C165.482 57.5841 160.612 54.8001 157.501 55.5504C155.645 55.9971 153.686 56.8308 151.302 58.1648C148.908 59.5047 146.016 61.3419 143.208 63.1999C140.48 65.0043 137.837 66.8296 135.805 68.241C133.667 69.7268 132.213 70.7511 132.064 70.8047C130.078 71.5402 128.155 71.9988 128.037 72.0256C128.28 71.838 164.429 46.5819 169.296 38.8401H169.299Z" fill="#25272D"/>
<path d="M141.847 67.2882C141.895 66.9964 141.953 66.7046 142.023 66.4127C142.291 65.2723 142.695 64.1944 143.215 63.1999C146.023 61.3419 148.915 59.5047 151.309 58.1648C153.693 56.8308 155.652 55.9971 157.508 55.5504C158.113 55.607 158.718 55.7053 159.326 55.8452C160.488 56.1072 161.583 56.5033 162.599 57.0065C164.096 57.7479 165.422 58.7305 166.541 59.8888L166.623 59.9781C160.236 58.4893 156.784 58.4625 150.396 62.0357C147.869 63.45 144.785 65.4212 141.831 67.3835C141.834 67.3507 141.84 67.3209 141.847 67.2882Z" fill="#CECECE"/>
<path d="M161.22 63.5423C161.892 63.4024 162.753 63.9085 163.197 64.5845C163.638 65.2604 163.723 66.0346 163.565 66.6867C163.565 66.6867 163.58 66.7194 163.349 67.2286C163.121 67.7348 162.443 68.0117 161.834 67.6812C161.454 67.4757 161.187 67.0916 160.974 66.7194C160.624 66.1179 160.341 65.4658 160.332 64.8495C160.323 64.2331 160.636 63.6614 161.223 63.5393L161.22 63.5423Z" fill="white"/>
<path d="M86.6879 34.3738L88.2086 35.8626C89.6929 36.6099 90.1127 36.7916 90.1978 36.8273C90.1127 36.8094 89.8146 36.7826 91.8585 38.2446C96.0894 41.2699 98.8542 44.852 102.693 48.3C108.441 53.4662 113.81 62.1102 119.367 69.5631C125.003 62.0447 130.438 53.2369 136.266 48.0023C140.104 44.5542 142.866 40.9721 147.097 37.9469C149.135 36.4908 148.846 36.5117 148.757 36.5295C148.843 36.4938 149.265 36.3122 150.747 35.5648L152.267 34.076C155.309 33.7782 162.016 34.8442 165.361 35.7375C158.947 38.5394 156.638 40.0759 151.002 44.1076C146.771 47.1328 142.878 50.5452 139.04 53.9932C132.859 59.5435 127.916 67.2614 124.875 76.7898C124.501 75.9293 122.883 74.0831 121.541 72.3978L119.348 69.8877L119.236 70.0157C118.576 71.6892 114.707 75.6404 114.099 77.0399C111.057 67.5116 106.099 59.8412 99.9187 54.291C96.0802 50.8429 92.187 47.4306 87.9531 44.4053C82.3201 40.3736 80.0724 38.8193 73.6547 36.0144C77.0004 35.1211 83.6463 34.076 86.6879 34.3738Z" fill="#CECECE"/>
<path d="M119.418 0.023915V0.00604945C142.099 -0.187495 164.886 5.02926 179.924 15.2752L139.854 43.6874L119.585 68.9554V69.1846L119.494 69.0715L119.418 69.1668V68.9762L98.1907 41.6448L59.0791 15.296C74.0802 5.07392 96.7916 -0.142831 119.418 0.023915Z" fill="#E51F33"/>
<path d="M35.0572 12.5715C38.8287 9.69813 44.3979 9.64453 49.5837 10.1477C49.9061 10.1775 50.1586 10.0018 50.262 9.76364C50.3472 9.57307 50.3319 9.34082 50.1707 9.15025C48.2029 6.82474 58.4955 6.7771 70.0048 11.3418C76.1366 14.0484 81.8943 17.8329 87.0497 22.1832C90.9186 25.4467 94.4468 29.0287 97.5371 32.7061C104.916 41.49 113.235 51.8164 119.531 61.3239C125.824 51.8342 134.118 41.5377 141.479 32.7776C144.569 29.1002 148.097 25.5181 151.966 22.2547C157.121 17.9044 162.879 14.1199 169.011 11.4132C180.523 6.84558 190.813 6.8962 188.845 9.22171C188.684 9.41228 188.672 9.64453 188.754 9.8351C188.857 10.0733 189.11 10.249 189.432 10.2192C194.618 9.716 200.187 9.76959 203.958 12.643C204.369 12.9527 204.235 13.566 203.733 13.709C194.913 16.1744 186.025 18.7441 177.552 22.0105C172.198 24.077 167.01 26.4174 162.11 29.1925C162.097 29.1985 162.088 29.2044 162.076 29.2104C155.661 32.6019 149.593 36.4936 144.204 41.234C140.673 44.3396 137.479 47.7698 134.337 51.2328C131.317 54.5587 128.336 59.0103 125.389 63.6553C123.871 66.9188 122.302 75.1727 122.806 78.2664C122.864 78.6237 120.781 77.4297 119.452 76.4799C118.122 77.4178 116.139 78.5463 116.197 78.198C116.699 75.1042 115.133 66.8503 113.615 63.5868C110.671 58.9388 107.687 54.4903 104.666 51.1643C101.528 47.7013 98.334 44.2681 94.7997 41.1655C89.41 36.4251 83.3421 32.5334 76.9274 29.1419C76.9152 29.1359 76.9061 29.13 76.894 29.124C71.994 26.3489 66.8051 24.0085 61.4519 21.942C52.9781 18.6756 44.0907 16.1059 35.2701 13.6405C34.7682 13.5005 34.6375 12.8871 35.045 12.5745L35.0572 12.5715Z" fill="#383744"/>
</g>
<defs>
<clipPath id="clip0_305_705">
<rect width="212" height="294" fill="white" transform="matrix(-1 0 0 1 212 0)"/>
</clipPath>
</defs>
</svg>
