<svg width="65" height="65" viewBox="0 0 65 65" fill="none" xmlns="http://www.w3.org/2000/svg">
<circle cx="32.5" cy="32.5" r="32.5" fill="#E51F33"/>
<path d="M29.792 33.1771C30.4971 33.8117 30.8924 34.1675 31.5975 34.8021L35.2087 30.7396" stroke="white" stroke-width="1.5" stroke-linecap="round" stroke-linejoin="round"/>
<path d="M28.4375 21.9375V20.5833C28.4375 18.3397 30.2563 16.5208 32.5 16.5208C34.7437 16.5208 36.5625 18.3397 36.5625 20.5833V21.9375" stroke="white" stroke-width="1.5" stroke-linecap="round"/>
<path d="M43.6358 30.7744C42.8433 26.5478 42.4471 24.4345 40.9427 23.186C39.4384 21.9375 37.2883 21.9375 32.988 21.9375H32.0114C27.7112 21.9375 25.561 21.9375 24.0567 23.186C22.5524 24.4345 22.1561 26.5478 21.3636 30.7744C20.2493 36.7177 19.6921 39.6894 21.3166 41.6468C22.941 43.6042 25.9645 43.6042 32.0114 43.6042H32.988C39.0349 43.6042 42.0584 43.6042 43.6829 41.6468C44.6254 40.5111 44.8335 39.0341 44.6245 36.8333" stroke="white" stroke-width="1.5" stroke-linecap="round"/>
</svg>
