<?xml version="1.0" encoding="UTF-8" standalone="no"?>
<svg
   version="1.0"
   width="512.000000pt"
   height="512.000000pt"
   viewBox="0 0 512.000000 512.000000"
   preserveAspectRatio="xMidYMid meet"
   id="svg2"
   sodipodi:docname="исследование-продуктов.svg"
   inkscape:version="1.3.2 (091e20e, 2023-11-25, custom)"
   xmlns:inkscape="http://www.inkscape.org/namespaces/inkscape"
   xmlns:sodipodi="http://sodipodi.sourceforge.net/DTD/sodipodi-0.dtd"
   xmlns="http://www.w3.org/2000/svg"
   xmlns:svg="http://www.w3.org/2000/svg">
  <defs
     id="defs2" />
  <sodipodi:namedview
     id="namedview2"
     pagecolor="#ffffff"
     bordercolor="#000000"
     borderopacity="0.25"
     inkscape:showpageshadow="2"
     inkscape:pageopacity="0.0"
     inkscape:pagecheckerboard="0"
     inkscape:deskcolor="#d1d1d1"
     inkscape:document-units="pt"
     inkscape:zoom="0.74560547"
     inkscape:cx="341.33333"
     inkscape:cy="341.33333"
     inkscape:window-width="1366"
     inkscape:window-height="705"
     inkscape:window-x="-8"
     inkscape:window-y="-8"
     inkscape:window-maximized="1"
     inkscape:current-layer="svg2" />
  <g
     transform="translate(0.000000,512.000000) scale(0.100000,-0.100000)"
     fill="#000000"
     stroke="none"
     id="g2">
    <path
       d="M2354 5110 c-323 -27 -624 -111 -919 -255 -643 -314 -1132 -894 -1330 -1576 -71 -245 -99 -447 -99 -719 1 -371 63 -676 206 -1010 132 -308 302 -556 552 -805 443 -440 1023 -700 1642 -734 747 -40 1437 221 1960 744 519 518 786 1223 743 1960 -25 414 -142 799 -352 1150 -403 675 -1089 1129 -1861 1230 -148 19 -408 26 -542 15z m885 -925 c228 -37 431 -139 601 -302 107 -102 169 -185 235 -315 112 -224 149 -455 110 -697 -72 -445 -407 -813 -842 -928 -116 -30 -343 -42 -459 -24 -178 27 -369 106 -503 207 -40 30 -75 54 -79 54 -4 0 -51 -44 -105 -98 l-98 -98 17 -63 c10 -42 14 -79 9 -110 -15 -102 -27 -118 -403 -492 -335 -335 -361 -358 -417 -379 -141 -52 -284 5 -358 144 -17 32 -22 58 -22 121 0 69 4 87 28 131 43 78 706 736 770 764 69 31 133 35 202 15 l58 -17 100 101 c100 99 100 100 83 123 -143 197 -216 362 -247 562 -18 117 -6 343 25 461 101 386 409 700 793 810 162 47 335 57 502 30z"
       id="path1" />
    <path
       d="M2850 4021 c-245 -54 -478 -209 -614 -408 -294 -433 -197 -1031 217 -1344 336 -254 794 -270 1143 -40 92 60 214 179 273 265 50 72 117 221 143 316 19 72 23 109 22 245 0 135 -3 173 -23 245 -46 173 -134 324 -260 451 -125 125 -278 214 -446 259 -116 32 -338 37 -455 11z m309 -141 c106 -54 159 -173 127 -282 -39 -134 -173 -206 -310 -166 -55 16 -140 101 -155 154 -37 134 32 268 159 309 54 18 128 11 179 -15z m-32 -551 c40 -15 92 -67 114 -114 17 -37 19 -72 19 -445 0 -453 0 -453 -73 -517 -47 -41 -98 -57 -159 -50 -62 8 -107 35 -144 89 l-29 41 0 438 0 437 30 43 c53 75 159 110 242 78z"
       id="path2" />
  </g>
  <path
     style="fill:#d40000;stroke-width:1.34119"
     d="M 318.53307,680.43997 C 221.65173,672.59166 141.29807,630.96574 78.170526,555.92403 48.212032,520.31142 23.324102,471.06095 11.426566,423.84509 -10.294209,337.64532 3.0704064,245.30235 48.338098,168.80441 90.77699,97.08686 159.12031,42.803904 239.40275,17.047742 276.65743,5.0957238 308.79988,0.6181141 348.70989,1.8207 c 45.20668,1.3621877 75.96877,7.2534016 113.64577,21.764174 80.44466,30.982137 146.08072,91.168106 184.16858,168.876156 32.26866,65.83555 42.08819,137.89952 28.70703,210.67662 -25.5802,139.12511 -136.97575,249.41599 -275.51919,272.78699 -26.8866,4.53551 -58.92906,6.31778 -81.17901,4.51533 z M 177.31695,556.51946 c 8.03013,-4.00254 98.9156,-94.98429 102.9904,-103.09952 3.79518,-7.55835 4.73839,-18.87926 2.31916,-27.83591 l -1.87731,-6.95034 13.0269,-12.97801 13.02689,-12.97802 10.55922,7.3636 c 17.58553,12.26349 35.50111,20.28559 56.37475,25.24308 21.03871,4.99668 60.21601,3.24155 80.74705,-3.61742 78.56636,-26.24736 122.6946,-109.35768 99.91206,-188.17252 -4.28679,-14.82988 -13.20322,-33.62954 -21.95329,-46.28696 -13.60981,-19.68729 -40.18889,-41.79393 -62.30732,-51.82289 -27.68311,-12.55213 -64.2226,-16.4615 -94.23331,-10.08208 -49.73488,10.57223 -91.68464,45.48757 -110.85181,92.26344 -6.31066,15.40059 -8.6128,25.78731 -10.09879,45.56307 -2.83266,37.69758 4.90132,67.4278 25.93477,99.69597 4.10846,6.30294 7.46993,12.1822 7.46993,13.06502 0,0.88283 -5.47229,7.10029 -12.16065,13.81657 l -12.16065,12.21143 -6.95133,-1.87756 c -8.42215,-2.27485 -20.24861,-1.52448 -26.51644,1.68242 -5.76452,2.94939 -9.75453,6.46823 -39.3461,34.69993 -30.39401,28.99726 -63.60644,64.37337 -66.14886,70.45825 -2.83607,6.78766 -2.59635,25.27948 0.40289,31.07948 5.58015,10.791 12.9515,17.26443 23.62964,20.75129 7.69375,2.51234 20.81981,1.49232 28.2122,-2.19232 z"
     id="path3"
     transform="scale(0.75)" />
  <path
     style="fill:#d40000;stroke-width:1.34119"
     d="m 385.33229,404.48021 c -29.92511,-5.71172 -53.16236,-18.34776 -73.58825,-40.0161 -21.93242,-23.26649 -33.42684,-50.67748 -35.00804,-83.48441 -1.75986,-36.51348 10.92676,-70.56356 35.64478,-95.66832 45.15126,-45.85773 115.00309,-53.62636 167.09532,-18.58366 20.07394,13.50384 40.21741,38.06357 48.60657,59.26311 6.29634,15.91093 8.08162,23.88871 9.00435,40.23717 1.59204,28.20691 -2.21734,45.81484 -15.56495,71.9453 -7.37706,14.44199 -21.70774,31.05075 -36.39513,42.1807 -11.13604,8.43876 -32.53444,18.55765 -46.5572,22.01597 -14.73383,3.63369 -40.00708,4.63548 -53.23745,2.11024 z m 34.5439,-17.58934 c 6.63281,-3.42996 13.05726,-12.02111 14.18168,-18.96456 0.57671,-3.56131 1.0533,-29.71125 1.05908,-58.11099 0.01,-47.45468 -0.18831,-52.01599 -2.44503,-56.33005 -5.91625,-11.30985 -13.89885,-16.54937 -25.05873,-16.44774 -9.48669,0.0864 -16.87428,3.74891 -23.2458,11.52452 l -4.81009,5.87008 v 59.02077 59.02079 l 5.50174,6.2503 c 5.89292,6.69471 8.92962,8.75415 15.28674,10.36719 5.04316,1.27963 14.96182,0.16219 19.53041,-2.20031 z m 4.68085,-164.95907 c 4.06924,-2.51585 8.10842,-6.55506 10.62426,-10.62436 3.58331,-5.79585 4.05904,-7.7566 4.05904,-16.72944 0,-8.73136 -0.53255,-11.07011 -3.77795,-16.59133 -11.04864,-18.7964 -37.69504,-22.26246 -52.0637,-6.77224 -5.37023,5.78941 -8.08524,12.1529 -8.86796,20.78488 -0.92102,10.15716 1.90589,17.63629 9.39229,24.84914 8.88383,8.55921 12.25661,9.89888 23.90457,9.4949 8.61854,-0.29891 11.16256,-0.96977 16.72945,-4.41155 z"
     id="path4"
     transform="scale(0.75)" />
</svg>
