<?xml version="1.0" encoding="UTF-8" standalone="no"?>
<svg
   version="1.0"
   width="512.000000pt"
   height="512.000000pt"
   viewBox="0 0 512.000000 512.000000"
   preserveAspectRatio="xMidYMid meet"
   id="svg12"
   sodipodi:docname="исследование-рынка.svg"
   inkscape:version="1.3.2 (091e20e, 2023-11-25, custom)"
   xmlns:inkscape="http://www.inkscape.org/namespaces/inkscape"
   xmlns:sodipodi="http://sodipodi.sourceforge.net/DTD/sodipodi-0.dtd"
   xmlns="http://www.w3.org/2000/svg"
   xmlns:svg="http://www.w3.org/2000/svg">
  <defs
     id="defs12" />
  <sodipodi:namedview
     id="namedview12"
     pagecolor="#ffffff"
     bordercolor="#000000"
     borderopacity="0.25"
     inkscape:showpageshadow="2"
     inkscape:pageopacity="0.0"
     inkscape:pagecheckerboard="0"
     inkscape:deskcolor="#d1d1d1"
     inkscape:document-units="pt"
     inkscape:zoom="0.74560547"
     inkscape:cx="341.33333"
     inkscape:cy="341.33333"
     inkscape:window-width="1366"
     inkscape:window-height="705"
     inkscape:window-x="-8"
     inkscape:window-y="-8"
     inkscape:window-maximized="1"
     inkscape:current-layer="svg12" />
  <g
     transform="translate(0.000000,512.000000) scale(0.100000,-0.100000)"
     fill="#000000"
     stroke="none"
     id="g12">
    <path
       d="M2330 5110 c-891 -86 -1667 -619 -2060 -1415 -160 -324 -236 -605 -262 -973 -24 -335 30 -720 147 -1038 45 -123 167 -374 231 -474 208 -327 524 -641 839 -833 594 -361 1304 -466 1976 -293 429 110 811 325 1136 640 819 790 1015 2010 488 3023 -125 240 -284 451 -488 650 -385 374 -869 614 -1402 694 -151 23 -462 32 -605 19z m300 -1270 c11 -11 20 -27 20 -35 0 -8 -109 -136 -242 -285 -193 -215 -247 -270 -266 -270 -14 0 -104 40 -200 90 -96 50 -176 90 -177 90 -2 0 -97 -81 -211 -180 -115 -99 -216 -180 -225 -180 -24 0 -51 35 -47 61 2 16 72 83 213 206 116 101 222 190 237 198 27 15 33 13 211 -79 l184 -95 189 212 c288 322 272 309 314 267z m142 -327 c16 -14 18 -33 18 -149 l0 -133 33 7 c17 4 95 7 172 7 127 0 148 -3 228 -29 250 -82 446 -286 517 -538 30 -106 36 -243 16 -350 -18 -95 -60 -208 -100 -268 l-25 -37 38 -37 c35 -34 38 -35 69 -24 l33 13 198 -200 c187 -188 199 -203 209 -250 17 -80 0 -138 -57 -195 -63 -63 -124 -79 -206 -55 -53 15 -69 28 -246 206 -104 104 -189 196 -189 205 0 8 5 25 11 36 9 17 5 26 -26 58 l-37 38 -45 -28 c-63 -40 -156 -76 -246 -94 -341 -71 -701 104 -858 416 l-29 58 -645 0 -644 0 -15 22 c-19 26 -22 142 -6 200 21 74 102 137 178 138 l32 0 0 217 c0 187 2 219 17 235 14 16 33 18 161 18 121 0 148 -3 164 -17 16 -15 18 -36 18 -235 l0 -218 35 0 35 0 0 350 c0 335 1 350 19 360 11 5 83 10 160 10 128 0 143 -2 161 -20 19 -19 20 -33 20 -360 l0 -340 30 0 30 0 0 270 c0 338 -16 310 182 310 172 0 178 -3 178 -94 l0 -60 35 34 35 34 0 235 c0 204 2 237 17 253 14 16 33 18 161 18 121 0 148 -3 164 -17z"
       id="path1" />
    <path
       d="M2530 3270 c0 -82 2 -150 4 -150 3 0 39 18 80 41 l76 41 0 109 0 109 -80 0 -80 0 0 -150z"
       id="path2" />
    <path
       d="M1680 2840 l0 -310 75 0 75 0 0 310 0 310 -75 0 -75 0 0 -310z"
       id="path3" />
    <path
       d="M2845 3135 c-383 -84 -619 -458 -525 -831 33 -130 82 -217 180 -315 138 -138 291 -202 485 -202 116 0 198 19 300 69 352 172 485 614 288 954 -21 36 -72 99 -114 141 -159 160 -398 232 -614 184z m279 -120 c347 -91 522 -475 364 -801 -45 -93 -158 -208 -249 -252 -257 -124 -554 -51 -716 175 -68 95 -103 204 -103 322 0 171 48 290 165 407 75 74 157 123 251 149 68 18 217 18 288 0z"
       id="path4" />
    <path
       d="M2895 2924 c-11 -3 -39 -12 -62 -20 l-43 -16 0 -179 0 -179 33 0 c75 -1 156 -64 177 -138 16 -58 13 -174 -6 -200 -15 -21 -21 -22 -192 -22 l-177 -1 50 -46 c221 -204 586 -132 720 141 122 247 5 537 -256 638 -53 20 -198 33 -244 22z"
       id="path5" />
    <path
       d="M2641 2778 c-46 -47 -95 -140 -110 -205 l-9 -43 84 0 84 0 0 145 c0 80 -2 145 -4 145 -2 0 -22 -19 -45 -42z"
       id="path6" />
    <path
       d="M2520 2413 c0 -13 20 -86 32 -115 l10 -28 169 0 169 0 0 53 c0 40 -5 59 -20 75 -20 21 -29 22 -190 22 -94 0 -170 -3 -170 -7z"
       id="path7" />
    <path
       d="M2110 2765 l0 -235 44 0 43 0 7 54 c3 30 17 87 31 127 20 61 25 93 25 182 l0 107 -75 0 -75 0 0 -235z"
       id="path8" />
    <path
       d="M1250 2710 l0 -180 80 0 80 0 0 180 0 180 -80 0 -80 0 0 -180z"
       id="path9" />
    <path
       d="M1060 2400 c-15 -15 -20 -33 -20 -75 l0 -55 591 0 c548 0 591 1 585 17 -4 9 -9 43 -13 75 l-6 58 -558 0 c-546 0 -559 0 -579 -20z"
       id="path10" />
    <path
       d="M3537 1912 l-27 -28 35 -34 35 -34 27 27 28 27 -36 35 -35 35 -27 -28z"
       id="path11" />
    <path
       d="M3680 1765 l-75 -75 161 -160 c159 -159 161 -160 205 -160 83 1 135 81 98 153 -11 22 -299 317 -309 317 -3 0 -39 -34 -80 -75z"
       id="path12" />
  </g>
  <path
     style="fill:#d40000;stroke-width:1.34119"
     d="M 301.37594,679.36501 C 237.38097,671.26025 177.72367,646.14538 128.89122,606.75141 113.45761,594.30086 88.646578,569.23902 75.123396,552.44007 58.680433,532.01407 48.302379,515.45723 35.548988,489.30422 19.000307,455.36831 9.7335543,425.0787 3.8196463,385.59267 1.0321732,366.98124 1.4487506,311.94968 4.5303245,291.70923 9.9411866,256.16951 19.175849,227.22174 36.191603,192.46103 53.970029,156.1423 72.551556,129.97515 100.56563,101.8073 155.21862,46.854297 222.91614,13.470042 300.42698,3.247954 c 20.4445,-2.69620861 69.08651,-1.9225336 91.20105,1.4505971 85.25223,13.0035269 162.1352,57.7538199 216.58976,126.0676589 35.52018,44.56043 58.86014,97.87368 69.34185,158.39091 4.08744,23.59922 4.43656,78.98165 0.64176,101.80031 -12.71987,76.48595 -44.43297,138.49014 -98.09451,191.79044 -44.45029,44.15106 -96.48334,73.57545 -156.29026,88.38125 -10.696,2.6479 -25.48264,5.77395 -32.8592,6.94677 -18.60417,2.95793 -70.50704,3.70484 -89.58149,1.28912 z M 544.80732,510.29514 c 2.87361,-1.90166 7.00309,-6.26173 9.17663,-9.68903 3.25657,-5.13509 3.95187,-7.66378 3.95187,-14.37226 0,-5.25992 -0.83058,-9.62624 -2.34708,-12.3384 -1.2909,-2.30867 -13.51251,-15.7522 -27.15914,-29.8745 l -24.81205,-25.67689 -4.45895,1.56119 c -4.17269,1.46096 -4.74679,1.28222 -8.94214,-2.78409 l -4.48318,-4.34527 4.46617,-8.22685 c 2.45641,-4.52476 6.1405,-13.3569 8.18689,-19.62697 3.32318,-10.18206 3.72873,-13.40635 3.79572,-30.17682 0.0894,-22.39022 -1.70716,-30.46694 -10.84099,-48.73647 -10.27138,-20.54489 -29.46647,-38.94266 -50.65311,-48.54915 -15.26867,-6.92314 -23.33183,-8.2693 -46.57168,-7.77524 l -21.06762,0.4479 -0.43396,-16.89891 c -0.30333,-11.81232 -0.98801,-17.56505 -2.27466,-19.11199 -2.74935,-3.30553 -41.85389,-3.30417 -44.6015,0.002 -1.40087,1.68545 -2.00093,9.8292 -2.5113,34.08245 l -0.67059,31.86783 -3.68828,2.89768 -3.68828,2.89767 v -6.7075 c 0,-4.15569 -0.7607,-7.46822 -1.99953,-8.70704 -2.50121,-2.50122 -15.92771,-4.00125 -30.06713,-3.35914 -9.04676,0.41083 -11.28742,0.98309 -13.84055,3.53481 -2.98926,2.98764 -3.05473,3.70924 -3.49672,38.55063 l -0.45041,35.50599 h -3.23787 -3.23785 v -44.78135 c 0,-42.1039 -0.15339,-44.97064 -2.56554,-47.94761 -2.50579,-3.0925 -3.0406,-3.16199 -22.96223,-2.98332 -15.60776,0.13998 -20.66875,0.61232 -21.55539,2.01179 -0.63726,1.00587 -1.16792,22.49997 -1.17921,47.76467 l -0.0205,45.93582 h -3.84638 -3.84639 l -0.61522,-28.89045 c -0.5309,-24.93071 -0.92933,-29.20464 -2.90691,-31.18271 -1.95683,-1.95731 -5.2145,-2.29226 -22.29403,-2.29226 -14.60546,0 -20.47307,0.46967 -21.74703,1.74076 -1.29904,1.2961 -1.84856,9.21892 -2.15131,31.01632 l -0.40661,29.27557 -5.98859,0.675 c -7.44044,0.83864 -15.36713,5.95236 -19.43884,12.54052 -4.09958,6.63326 -5.28717,24.20576 -2.14424,31.72784 l 2.09478,5.01351 h 86.30806 86.30806 l 3.08432,6.37066 c 10.82972,22.3687 32.36106,41.92525 56.33969,51.17239 14.63258,5.64292 26.01565,7.30806 44.26256,6.47484 17.87706,-0.81633 29.16819,-3.82423 43.90632,-11.69645 l 9.58622,-5.12039 4.1265,4.25747 c 3.57762,3.69116 4.01845,4.9233 3.31418,9.26322 -0.81061,4.99519 -0.76174,5.0569 23.17006,29.25935 28.38964,28.71071 32.1937,31.23342 45.31786,30.05317 4.03112,-0.36252 8.60745,-1.93207 11.80713,-4.04953 z M 187.78627,266.62044 c 4.78409,-3.84047 16.84608,-13.98528 26.80443,-22.544 9.95835,-8.55872 18.81754,-15.98745 19.6871,-16.5083 0.86955,-0.52085 11.9438,4.19212 24.60941,10.47327 12.66563,6.28115 24.50423,11.42028 26.30802,11.42028 2.38915,0 6.49359,-3.36836 15.11705,-12.40603 13.87074,-14.53697 36.02511,-39.39307 46.74389,-52.44429 7.32082,-8.91385 7.48852,-9.29785 5.56461,-12.74132 -1.18077,-2.11334 -3.36615,-3.71324 -5.39909,-3.9526 -4.31499,-0.50806 -7.20962,2.28668 -37.24742,35.96201 -12.82155,14.37422 -24.04942,26.93025 -24.9508,27.90228 -1.33801,1.44289 -6.07951,-0.51714 -25.8287,-10.67703 -21.10743,-10.85864 -24.59325,-12.25986 -27.3557,-10.99637 -3.80681,1.74118 -41.34457,33.65607 -53.12525,45.16751 -8.69208,8.49342 -9.93809,11.70296 -6.16279,15.8746 3.39889,3.75574 5.80486,3.04035 15.23524,-4.53001 z"
     id="path13"
     transform="scale(0.75)" />
  <path
     style="fill:#d40000;stroke-width:1.34119"
     d="m 383.24011,412.9722 c -7.04771,-1.66102 -18.03442,-7.43428 -25.02679,-13.15099 l -5.92028,-4.8402 22.30409,-0.6706 c 27.83846,-0.83699 27.12287,-0.3649 27.00974,-17.81931 -0.0873,-13.46084 -1.53317,-17.70566 -8.18262,-24.02179 -4.43156,-4.20942 -12.31834,-7.783 -17.17685,-7.783 h -3.39606 v -23.41697 -23.41696 l 9.04922,-2.79502 c 8.18776,-2.52894 10.19868,-2.65689 21.12377,-1.34402 16.02955,1.92627 26.48286,6.82484 36.9939,17.33588 17.2711,17.2711 22.60041,40.77349 14.31278,63.11974 -10.58521,28.54133 -41.96304,45.66815 -71.0909,38.80324 z"
     id="path14"
     transform="scale(0.75)" />
  <path
     style="fill:#d40000;stroke-width:1.34119"
     d="m 503.10976,478.17557 -20.95128,-20.74781 9.70119,-9.73029 9.70119,-9.73029 6.19409,6.00135 c 3.40675,3.30074 12.77167,13.07001 20.81093,21.70949 13.0023,13.97308 14.61683,16.24367 14.61683,20.55635 0,7.11467 -5.92237,12.68901 -13.48125,12.68901 -5.48048,0 -6.23458,-0.58838 -26.5917,-20.74781 z"
     id="path15"
     transform="scale(0.75)" />
  <path
     style="fill:#d40000;stroke-width:1.34119"
     d="m 473.00688,434.79328 -3.61808,-3.77647 3.11721,-2.92847 3.11722,-2.92847 3.83171,3.99944 c 3.73435,3.89783 3.76949,4.06819 1.38326,6.70494 -3.15147,3.48234 -3.51684,3.43237 -7.83132,-1.07097 z"
     id="path16"
     transform="scale(0.75)" />
  <path
     style="fill:#d40000;stroke-width:1.34119"
     d="M 378.88671,441.92593 C 363.9232,438.8307 349.20183,430.749 336.34686,418.57252 c -12.69835,-12.02816 -19.61098,-22.71838 -24.7948,-38.34462 -3.04022,-9.16453 -3.56627,-13.07705 -3.60654,-26.82384 -0.0427,-14.58775 0.33577,-17.17623 4.0434,-27.65236 8.04606,-22.73463 24.46834,-41.65685 45.1249,-51.99421 14.41847,-7.21557 25.60999,-9.95712 40.54957,-9.9333 40.38317,0.0644 76.97972,28.36977 87.40277,67.60113 3.05805,11.51023 3.08163,32.68145 0.0491,44.10841 -8.22363,30.98778 -32.10858,55.75755 -62.63982,64.96032 -10.36261,3.12351 -31.978,3.83357 -43.58873,1.43188 z m 38.09914,-14.80967 c 23.05718,-5.43496 44.33542,-25.20601 52.62791,-48.90015 4.09335,-11.69587 4.41975,-35.78515 0.63606,-46.94172 -10.17099,-29.99016 -32.82847,-48.96821 -62.42466,-52.28729 -26.43431,-2.96448 -45.34659,3.43461 -63.45301,21.46975 -19.32655,19.25046 -26.23261,43.00781 -20.45966,70.3827 3.02102,14.32546 9.02377,25.19187 19.96253,36.13696 15.49112,15.50009 30.81419,21.95381 52.44718,22.08952 6.6389,0.0417 15.93754,-0.83575 20.66365,-1.94977 z"
     id="path17"
     transform="scale(0.75)" />
  <path
     style="fill:#d40000;stroke-width:1.34119"
     d="m 139.48396,373.10768 c 0,-12.58536 -6.3744,-11.6047 78.22811,-12.03489 l 74.42211,-0.37843 1.133,8.42558 1.13298,8.42557 -4.69844,0.92861 c -2.58415,0.51073 -37.44029,0.96338 -77.45811,1.00589 l -72.75965,0.0773 z"
     id="path18"
     transform="scale(0.75)" />
  <path
     style="fill:#d40000;stroke-width:1.34119"
     d="m 225.32024,303.77996 v -40.90635 h 8.71774 8.71775 v 40.90635 40.90635 h -8.71775 -8.71774 z"
     id="path19"
     transform="scale(0.75)" />
  <path
     style="fill:#d40000;stroke-width:1.34119"
     d="M 167.64898,321.21546 V 297.7446 h 10.05894 10.05894 v 23.47086 23.47085 h -10.05894 -10.05894 z"
     id="path20"
     transform="scale(0.75)" />
  <path
     style="fill:#d40000;stroke-width:1.34119"
     d="m 338.22004,339.65684 c 2.17074,-8.00031 10.18896,-22.31773 15.24083,-27.2142 l 4.63736,-4.4947 v 18.36919 18.36918 h -10.62142 -10.62143 z"
     id="path21"
     transform="scale(0.75)" />
  <path
     style="fill:#d40000;stroke-width:1.34119"
     d="m 339.37543,370.69828 c -1.50495,-4.87246 -2.73627,-9.09722 -2.73627,-9.38834 0,-0.29113 9.68402,-0.52932 21.52004,-0.52932 21.06017,0 21.59038,0.0703 24.81205,3.29201 2.52956,2.52957 3.29201,4.70396 3.29201,9.38834 v 6.09633 h -22.07578 -22.07577 z"
     id="path22"
     transform="scale(0.75)" />
  <path
     style="fill:#d40000;stroke-width:1.34119"
     d="m 337.98035,246.17419 v -19.51276 h 10.10432 10.10431 l -0.38067,14.41781 -0.38067,14.41781 -9.72365,5.09496 -9.72364,5.09495 z"
     id="path23"
     transform="scale(0.75)" />
  <path
     style="fill:#d40000;stroke-width:1.34119"
     d="m 281.65029,313.8389 v -30.84741 h 9.38835 9.38834 l -9.6e-4,13.07662 c -7e-4,9.60265 -0.86213,16.28336 -3.24258,25.14735 -1.7829,6.63889 -3.64612,14.63575 -4.14051,17.77079 -0.88017,5.58142 -1.00808,5.70006 -6.14576,5.70006 h -5.24688 z"
     id="path24"
     transform="scale(0.75)" />
  <path
     style="fill:#d40000;stroke-width:1.34119"
     d="M 299.75639,678.55058 C 229.95664,669.15424 163.14462,638.26206 114.43529,592.86282 99.903886,579.31891 78.270805,555.63739 68.43989,542.51212 44.197735,510.14635 22.845783,465.47412 12.831289,426.16862 4.0352597,391.64542 3.3696333,385.65082 3.4113773,341.33333 3.4452942,305.3255 3.774784,299.26721 6.5470251,283.67862 16.042981,230.28187 42.177743,172.65348 76.197685,130.09561 122.03006,72.760766 188.44952,29.820497 258.7974,12.044648 c 32.19139,-8.1342766 37.49859,-8.6951081 81.86534,-8.6510066 45.82164,0.045548 56.50814,1.3067913 90.53045,10.6845986 77.6872,21.413467 147.76903,72.312781 193.10568,140.24956 25.34564,37.98033 44.1658,86.14113 52.39661,134.083 2.83406,16.50751 4.11423,70.62345 2.13071,90.07111 -7.50695,73.60316 -42.45918,146.21525 -96.74891,200.99258 -51.36519,51.82651 -112.53083,83.61885 -187.09627,97.24784 -14.25692,2.60587 -80.06292,3.8693 -95.22462,1.82825 z M 540.20811,512.93792 c 5.73114,-2.39039 13.06775,-9.00998 15.83035,-14.28324 2.93434,-5.60107 2.48066,-20.94674 -0.76527,-25.88454 -1.45471,-2.21297 -13.37058,-15.38421 -26.4797,-29.26945 l -23.83475,-25.24586 -5.41181,0.80807 c -4.7195,0.70469 -5.86702,0.33125 -8.96999,-2.91917 l -3.55817,-3.72723 4.62412,-9.38834 c 9.17478,-18.62753 10.64331,-25.63014 10.5475,-50.2947 -0.084,-21.62108 -0.18686,-22.39876 -4.47611,-33.83854 -9.9974,-26.66394 -29.64249,-48.67382 -54.10361,-60.6164 -15.17744,-7.41003 -22.76769,-8.81683 -47.57025,-8.81683 -12.01633,0 -21.89343,-0.15088 -21.94911,-0.3353 -0.0557,-0.18441 -0.56287,-8.08611 -1.12711,-17.55933 -0.68883,-11.56521 -1.58821,-17.57157 -2.73745,-18.28184 -4.81531,-2.97602 -39.64189,-2.92517 -44.48,0.0649 -1.32877,0.82122 -2.11982,9.35427 -3.15259,34.00675 -1.33427,31.84968 -1.47597,32.97839 -4.39639,35.01913 -3.00664,2.10101 -3.01768,2.08451 -3.01768,-4.50906 0,-9.90412 -0.93201,-10.29921 -24.296,-10.29921 -17.27745,0 -20.17544,0.31171 -22.26044,2.39431 -2.11689,2.11444 -2.49937,6.19022 -3.27238,34.87099 -0.48142,17.86217 -0.93407,34.1364 -1.00589,36.16496 -0.0974,2.75062 -0.81251,3.68827 -2.81296,3.68827 -2.62857,0 -2.68325,-0.90835 -2.72504,-45.26522 -0.0361,-38.2783 -0.35576,-45.67927 -2.07112,-47.94761 -1.86695,-2.46883 -3.59874,-2.68239 -21.7517,-2.68239 -10.84781,0 -20.77945,0.43372 -22.07035,0.96381 -2.17231,0.89203 -2.34708,4.46241 -2.34708,47.94761 v 46.9838 h -3.35298 c -2.73891,0 -3.37169,-0.67547 -3.45513,-3.68827 -0.97514,-35.21029 -2.3125,-55.59265 -3.74129,-57.01978 -1.92074,-1.91853 -43.46198,-2.41399 -45.33485,-0.54072 -0.61403,0.61416 -1.42812,13.89196 -1.8091,29.50622 -0.38097,15.61426 -1.12068,29.06256 -1.64379,29.88508 -0.5231,0.82253 -3.45122,1.83085 -6.50691,2.24071 -5.79631,0.77744 -13.03553,5.69183 -17.81561,12.09423 -3.34574,4.48125 -4.74027,24.68453 -2.22907,32.29356 l 1.60166,4.85307 h 86.32973 86.32973 l 4.77464,9.08615 c 12.16491,23.14987 33.55736,41.27567 59.39851,50.32832 10.22815,3.58311 14.0338,4.19081 29.37513,4.69066 22.5618,0.7351 35.49034,-1.68425 52.11731,-9.75286 l 12.07072,-5.85759 3.68828,3.49802 c 2.9186,2.76805 3.68828,4.71151 3.68828,9.31304 0,5.72675 0.34097,6.15861 22.46496,28.45329 12.35573,12.45105 25.44992,24.50801 29.09821,26.79326 7.64878,4.79111 16.32554,5.52329 24.59255,2.07522 z M 185.98764,268.69973 c 3.56037,-2.69688 11.90522,-9.51245 18.54412,-15.14573 29.6226,-25.13552 30.09853,-25.4963 32.50218,-24.63822 1.30284,0.4651 11.85891,5.27821 23.45791,10.69578 11.59902,5.41757 22.62704,9.85013 24.50673,9.85013 4.51333,0 10.90967,-6.02824 35.63005,-33.57954 24.4448,-27.24416 33.44603,-38.3255 33.44603,-41.17513 0,-3.26155 -4.05452,-7.05804 -7.53776,-7.05804 -4.42804,0 -9.2839,4.68991 -37.44807,36.16815 -22.05409,24.64921 -25.41647,27.88836 -27.93188,26.90816 -1.5728,-0.6129 -12.19852,-5.70097 -23.61272,-11.30685 -11.41418,-5.60587 -22.02326,-10.19251 -23.57573,-10.19251 -4.01742,0 -46.00991,34.96631 -58.60404,48.7984 -5.16017,5.66742 -6.45253,10.94052 -3.42366,13.96938 2.82023,2.82023 7.38956,1.74873 14.04684,-3.29398 z"
     id="path25"
     transform="scale(0.75)" />
  <path
     style="fill:#d40000;stroke-width:1.34119"
     d="m 1.7921089,344.68631 c 0,-5.53241 0.2367445,-7.79567 0.5260989,-5.02947 0.2893544,2.76621 0.2893544,7.29273 0,10.05894 -0.2893544,2.76621 -0.5260989,0.50295 -0.5260989,-5.02947 z"
     id="path26"
     transform="scale(0.75)" />
  <path
     style="fill:#d40000;stroke-width:1.34119"
     d="m 680.19605,352.73346 c 0,-1.84413 0.30442,-2.59855 0.67648,-1.67649 0.37206,0.92207 0.37206,2.43091 0,3.35298 -0.37206,0.92207 -0.67648,0.16765 -0.67648,-1.67649 z"
     id="path27"
     transform="scale(0.75)" />
</svg>
