<svg width="65" height="65" viewBox="0 0 65 65" fill="none" xmlns="http://www.w3.org/2000/svg">
<circle cx="32.5" cy="32.5" r="32.5" fill="#E51F33"/>
<circle cx="31.5726" cy="29.3021" r="12.8646" stroke="#F8F8F8" stroke-width="1.5"/>
<path d="M41.0518 38.7812L45.7913 43.5208" stroke="#F4F4F4" stroke-width="1.5" stroke-linecap="round"/>
<path d="M31.4375 34.1771H34.8229M34.8229 34.1771H38.2083M34.8229 34.1771V37.5625M34.8229 34.1771V30.7917" stroke="#F4F4F4" stroke-width="1.5" stroke-linecap="round"/>
<path d="M25.3437 32.5521H29.4062" stroke="#F4F4F4" stroke-width="1.5" stroke-linecap="round"/>
<path d="M26.6979 29.8438V24.6979C26.6979 24.4463 26.6979 24.3205 26.7146 24.2153C26.8064 23.6358 27.2608 23.1814 27.8402 23.0896C27.9455 23.0729 28.0713 23.0729 28.3229 23.0729H31.4375C33.3072 23.0729 34.8229 24.5886 34.8229 26.4584C34.8229 28.3281 33.3072 29.8438 31.4375 29.8438H26.6979ZM26.6979 29.8438V36.6146M26.6979 29.8438H25.3438" stroke="#F4F4F4" stroke-width="1.5" stroke-linecap="round"/>
</svg>
