<?xml version="1.0" encoding="UTF-8" standalone="no"?>
<svg
   version="1.0"
   width="512.000000pt"
   height="512.000000pt"
   viewBox="0 0 512.000000 512.000000"
   preserveAspectRatio="xMidYMid meet"
   id="svg14"
   sodipodi:docname="Исследование-потребителей.svg"
   inkscape:version="1.3.2 (091e20e, 2023-11-25, custom)"
   xmlns:inkscape="http://www.inkscape.org/namespaces/inkscape"
   xmlns:sodipodi="http://sodipodi.sourceforge.net/DTD/sodipodi-0.dtd"
   xmlns="http://www.w3.org/2000/svg"
   xmlns:svg="http://www.w3.org/2000/svg">
  <defs
     id="defs14" />
  <sodipodi:namedview
     id="namedview14"
     pagecolor="#ffffff"
     bordercolor="#000000"
     borderopacity="0.25"
     inkscape:showpageshadow="2"
     inkscape:pageopacity="0.0"
     inkscape:pagecheckerboard="0"
     inkscape:deskcolor="#d1d1d1"
     inkscape:document-units="pt"
     inkscape:zoom="0.74560547"
     inkscape:cx="341.33333"
     inkscape:cy="341.33333"
     inkscape:window-width="1366"
     inkscape:window-height="705"
     inkscape:window-x="-8"
     inkscape:window-y="-8"
     inkscape:window-maximized="1"
     inkscape:current-layer="svg14" />
  <g
     transform="translate(0.000000,512.000000) scale(0.100000,-0.100000)"
     fill="#000000"
     stroke="none"
     id="g14">
    <path
       d="M2340 5109 c-599 -51 -1150 -309 -1581 -739 -207 -207 -340 -385 -465 -624 -416 -799 -385 -1756 83 -2520 206 -335 527 -654 863 -856 991 -597 2255 -456 3086 343 146 140 252 267 359 427 229 343 357 688 416 1120 17 122 17 478 0 600 -65 481 -221 868 -499 1240 -99 132 -337 376 -462 472 -525 404 -1156 592 -1800 537z m1352 -952 c115 -37 203 -91 289 -176 360 -360 234 -956 -242 -1148 -34 -14 -91 -30 -128 -37 l-66 -12 -3 -57 -3 -57 61 0 c102 0 100 5 100 -285 0 -232 -1 -246 -20 -265 -18 -18 -33 -20 -194 -20 l-175 0 -20 26 c-20 25 -21 39 -21 256 0 285 1 288 103 288 l57 0 0 60 c0 59 -1 60 -28 60 -47 0 -174 40 -247 78 -107 56 -239 192 -293 302 -57 115 -75 194 -75 315 0 116 18 197 68 303 97 205 288 351 513 392 83 16 239 5 324 -23z m-1262 -564 c80 -22 166 -71 205 -116 19 -22 49 -74 66 -116 17 -42 45 -95 61 -119 44 -64 58 -105 58 -171 0 -89 -16 -152 -75 -296 -30 -71 -61 -160 -69 -197 -20 -87 -64 -183 -121 -264 l-45 -65 0 -93 c0 -90 1 -93 33 -127 31 -33 42 -37 293 -97 287 -69 331 -88 380 -161 20 -30 53 -139 125 -412 100 -381 104 -407 64 -423 -9 -3 -561 -6 -1226 -6 -1196 0 -1209 0 -1229 20 -11 11 -20 25 -20 31 0 7 43 177 96 378 100 382 113 416 177 465 50 39 84 50 317 105 305 73 284 66 314 109 23 34 26 48 26 123 0 81 -1 86 -36 134 -68 96 -113 200 -139 325 -7 36 -27 103 -43 150 -78 221 -62 424 42 563 75 101 221 202 355 247 115 38 279 44 391 13z"
       id="path1" />
    <path
       d="M3412 4069 c-292 -37 -512 -287 -512 -582 0 -164 54 -293 174 -412 122 -121 249 -175 417 -175 153 0 301 63 414 176 231 232 222 622 -20 842 -129 118 -301 173 -473 151z m110 -96 c21 -18 24 -66 6 -80 -7 -6 -46 -15 -87 -21 -186 -27 -322 -165 -341 -349 -7 -68 -23 -93 -62 -93 -23 0 -58 35 -58 58 0 56 26 157 56 219 60 125 187 230 325 267 74 20 138 20 161 -1z"
       id="path2" />
    <path
       d="M3390 2385 l0 -165 100 0 100 0 0 165 0 165 -100 0 -100 0 0 -165z"
       id="path3" />
    <path
       d="M2124 3486 c-106 -24 -264 -118 -337 -201 -45 -50 -71 -127 -75 -224 -5 -96 21 -256 39 -245 5 2 22 48 39 100 60 188 86 208 215 164 77 -27 112 -19 191 42 35 26 75 53 90 58 73 28 168 -2 230 -73 37 -43 124 -211 124 -241 0 -37 19 -11 41 57 15 46 24 96 24 137 0 59 -4 70 -41 126 -22 33 -51 89 -64 124 -47 126 -139 180 -315 186 -62 2 -123 -2 -161 -10z"
       id="path4" />
    <path
       d="M2273 3036 c-32 -24 -73 -51 -92 -61 -52 -26 -130 -30 -190 -10 -29 9 -55 14 -58 11 -3 -3 -20 -50 -38 -104 -17 -54 -47 -126 -65 -161 -33 -61 -33 -64 -22 -118 30 -145 141 -297 258 -354 58 -29 71 -31 131 -27 40 3 85 13 109 26 99 50 199 179 245 314 27 79 22 148 -20 279 -48 149 -121 249 -181 249 -10 0 -44 -20 -77 -44z"
       id="path5" />
    <path
       d="M1970 2117 l1 -42 103 -62 c57 -35 108 -63 112 -63 5 0 54 29 109 64 98 62 100 64 103 104 l3 41 -68 -32 c-59 -27 -79 -32 -148 -32 -69 0 -89 5 -147 32 l-68 32 0 -42z"
       id="path6" />
    <path
       d="M1912 1953 c-11 -21 53 -173 72 -173 13 0 102 87 95 94 -9 8 -149 96 -154 96 -2 0 -8 -8 -13 -17z"
       id="path7" />
    <path
       d="M2360 1921 c-41 -26 -74 -50 -72 -54 1 -3 24 -27 51 -52 l49 -45 36 77 c24 50 35 85 31 100 -3 13 -9 23 -13 22 -4 0 -41 -22 -82 -48z"
       id="path8" />
    <path
       d="M1749 1868 c-22 -6 -42 -20 -52 -37 -16 -28 -16 -29 24 -85 55 -77 51 -99 -23 -149 l-57 -38 43 -92 c24 -51 78 -167 121 -259 l79 -168 57 0 58 0 5 43 c4 23 15 143 26 267 11 124 22 237 25 251 2 15 -2 34 -9 44 -12 17 -14 17 -43 -4 -56 -42 -71 -30 -139 108 -33 69 -65 126 -70 127 -5 1 -25 -2 -45 -8z"
       id="path9" />
    <path
       d="M2514 1770 c-27 -61 -57 -119 -67 -130 -23 -26 -59 -26 -82 0 -54 59 -58 11 -27 -310 l27 -285 59 0 60 0 118 249 c65 137 118 254 118 260 0 7 -24 27 -54 45 -81 49 -84 64 -22 146 l44 59 -19 28 c-16 22 -69 48 -100 48 -3 0 -28 -50 -55 -110z"
       id="path10" />
    <path
       d="M1422 1789 c-114 -29 -163 -53 -183 -91 -6 -11 -47 -156 -90 -322 -44 -165 -82 -309 -85 -318 -5 -17 16 -18 340 -18 221 0 346 4 346 10 0 5 -54 125 -121 266 -66 141 -119 265 -117 277 2 13 23 35 51 53 26 17 50 34 53 37 3 3 -11 29 -31 58 -20 29 -34 58 -31 66 7 17 1 16 -132 -18z"
       id="path11" />
    <path
       d="M2810 1799 c0 -12 -15 -42 -34 -68 l-35 -47 54 -32 c30 -18 57 -41 60 -53 5 -14 -30 -98 -115 -277 -67 -141 -124 -263 -127 -269 -4 -10 68 -13 341 -13 255 0 346 3 346 12 0 34 -165 637 -181 659 -10 14 -35 33 -56 42 -31 14 -228 67 -247 67 -3 0 -6 -10 -6 -21z"
       id="path12" />
    <path
       d="M2149 1772 c-29 -26 -30 -30 -18 -50 20 -32 91 -31 106 1 10 21 7 27 -23 50 l-33 27 -32 -28z"
       id="path13" />
    <path
       d="M2166 1558 c-6 -27 -46 -462 -46 -495 0 -22 4 -23 65 -23 45 0 65 4 65 13 0 6 -11 127 -25 267 -14 140 -25 256 -25 258 0 1 -7 2 -15 2 -8 0 -17 -10 -19 -22z"
       id="path14" />
  </g>
  <path
     style="fill:#d40000;stroke-width:1.34119"
     d="M 312.49771,680.55784 C 310.65357,680.24637 303.7129,679.34093 297.074,678.54577 243.77571,672.16212 183.96889,648.11444 140.89136,615.74641 70.185502,562.6187 24.591905,491.6691 8.0729122,409.06352 2.3979687,380.68516 0.84701256,361.64564 1.73764,331.29184 3.3894945,274.99436 17.231771,224.53293 44.419713,175.69614 82.276376,107.69548 149.15103,50.089791 222.00488,22.724635 258.89225,8.869099 291.17331,2.6999154 331.94499,1.7141469 c 40.8137,-0.98678457 72.33,3.204297 109.01682,14.4972151 38.8772,11.967152 83.5813,35.596144 113.50957,59.997115 12.3828,10.095894 39.11496,36.952663 51.12022,51.358523 34.35957,41.23019 58.44225,92.94843 69.7541,149.79886 9.25554,46.51597 7.72673,99.6695 -4.22781,146.99174 -24.10591,95.42367 -89.61751,176.84348 -177.8131,220.99154 -30.96045,15.49786 -67.40593,27.20027 -101.67676,32.64775 -13.33739,2.12002 -70.7417,3.97784 -79.13032,2.56095 z M 452.65226,558.10601 c 3.61486,-0.76694 4.06553,-1.43331 4.43662,-6.56019 0.75171,-10.38563 -22.73818,-97.66782 -28.72121,-106.72039 -4.9746,-7.52676 -15.35916,-11.7614 -50.18403,-20.46415 -32.47318,-8.11506 -35.80875,-9.34504 -40.08486,-14.78124 -2.33661,-2.97051 -2.80081,-5.43231 -2.80081,-14.8535 0,-10.89604 0.18205,-11.56123 5.18121,-18.93111 7.58594,-11.18336 13.2087,-22.96472 16.25586,-34.06084 1.4786,-5.38428 6.03432,-18.48569 10.12382,-29.11424 11.49407,-29.87296 12.58317,-43.73921 4.56216,-58.085 -2.17889,-3.89699 -6.95325,-13.19168 -10.60969,-20.65484 -7.65378,-15.62211 -12.15329,-20.24015 -26.11429,-26.80227 -22.65315,-10.64771 -55.63185,-8.56614 -79.78852,5.03611 -29.1028,16.38734 -43.0002,37.35527 -43.0002,64.87723 0,11.94263 1.6796,21.15712 7.57214,41.54149 10.13364,35.0559 12.83769,42.30326 20.09903,53.86924 7.15464,11.39601 7.19982,11.53549 7.19982,22.2298 0,12.2088 -2.67359,18.38997 -9.06491,20.95745 -2.02203,0.81228 -17.447,4.85384 -34.27771,8.98124 -16.83071,4.12741 -32.65106,8.36083 -35.15635,9.4076 -6.43894,2.69037 -13.73595,9.46058 -16.91678,15.6955 -2.66242,5.21881 -15.21511,49.93062 -23.91158,85.17144 -4.18465,16.95756 -4.28464,17.93945 -2.07533,20.3807 1.27662,1.41065 4.52037,2.79775 7.20832,3.08245 8.41475,0.89122 315.82883,0.69674 320.06729,-0.20248 z m 38.17031,-157.71167 c 2.79984,-2.53383 2.85332,-3.32889 2.4637,-36.63549 -0.46003,-39.32612 0.0617,-37.84922 -13.37026,-37.84922 h -7.76515 l 0.81879,-6.37066 c 0.45034,-3.50387 1.19321,-6.73825 1.65084,-7.18752 0.45761,-0.44927 4.32095,-1.48898 8.58519,-2.31046 31.01415,-5.97471 58.69546,-29.51087 69.87703,-59.41327 9.74021,-26.04788 7.14529,-56.42717 -6.848,-80.17076 -6.0652,-10.29134 -19.70882,-24.65486 -29.87584,-31.45223 -15.9877,-10.68888 -41.89563,-17.03388 -61.43206,-15.04505 -31.88854,3.2463 -59.86945,23.03063 -74.1191,52.40705 -7.26634,14.97992 -9.29756,24.06317 -9.29756,41.57695 0,17.74594 2.04404,26.74988 9.55547,42.09151 7.22957,14.76596 25.22565,33.33262 39.39803,40.64715 10.05289,5.18843 26.2005,10.47418 31.99791,10.47418 3.40124,0 3.54368,0.29649 3.54368,7.37655 v 7.37656 l -7.04126,0.0205 c -12.87454,0.0376 -13.07662,0.64448 -13.07662,39.27558 0,30.16625 0.11601,31.5728 2.89573,35.10664 l 2.89573,3.68132 23.14089,-0.50467 c 20.56148,-0.44841 23.45992,-0.79335 26.00286,-3.09469 z"
     id="path15"
     transform="scale(0.75)" />
  <path
     style="fill:#d40000;stroke-width:1.34119"
     d="m 143.29105,542.51917 c -0.71002,-0.71002 17.17519,-68.92291 21.38931,-81.57727 2.83323,-8.50776 7.08464,-11.18497 25.70986,-16.19004 14.67696,-3.94407 16.15333,-4.12426 16.15333,-1.97158 0,0.84049 1.84715,4.53017 4.10479,8.19929 l 4.10479,6.67114 -3.05958,2.14301 c -1.68276,1.17865 -4.88787,3.78054 -7.12247,5.78198 l -4.06289,3.63897 2.50928,7.1425 c 1.38011,3.92838 8.15068,19.39566 15.04571,34.37173 6.89504,14.97608 12.70653,28.25388 12.91442,29.50622 0.34812,2.09702 -3.07463,2.30492 -43.30449,2.63031 -24.02536,0.19432 -43.99729,0.0385 -44.38206,-0.34626 z"
     id="path16"
     transform="scale(0.75)" />
  <path
     style="fill:#d40000;stroke-width:1.34119"
     d="m 236.42501,510.61494 c -8.27665,-17.86402 -15.21732,-33.14762 -15.4237,-33.96356 -0.20639,-0.81594 2.79332,-3.99854 6.66601,-7.07244 8.61688,-6.83956 8.98658,-9.94977 2.41794,-20.34181 -4.04753,-6.40346 -4.40631,-7.64847 -2.88079,-9.99679 2.17318,-3.34531 8.3825,-6.49994 10.8957,-5.53554 1.0381,0.39836 4.69746,6.33334 8.13191,13.18885 3.43445,6.85551 7.41782,14.12429 8.85194,16.15285 3.02418,4.2777 7.53727,4.79422 12.64541,1.44724 4.5521,-2.98265 6.1793,-0.61061 5.21749,7.6058 -0.38857,3.31945 -1.91566,19.31316 -3.39352,35.54159 -1.47786,16.22842 -2.99336,30.86417 -3.36777,32.5239 -0.60132,2.6656 -1.49928,3.01256 -7.69645,2.97381 l -7.0157,-0.0439 z"
     id="path17"
     transform="scale(0.75)" />
  <path
     style="fill:#d40000;stroke-width:1.34119"
     d="m 283.82431,542.104 c -0.66125,-1.06992 3.74448,-53.98604 5.29748,-63.62677 1.05889,-6.57337 2.94209,-7.58652 3.82176,-2.05609 0.82255,5.17137 6.14615,60.98621 6.14383,64.41449 -10e-4,1.94754 -1.24382,2.34708 -7.29899,2.34708 -4.01357,0 -7.59741,-0.48542 -7.96408,-1.07871 z"
     id="path18"
     transform="scale(0.75)" />
  <path
     style="fill:#d40000;stroke-width:1.34119"
     d="m 315.91588,541.50622 c -0.84148,-2.70659 -6.14529,-65.45247 -6.12191,-72.42436 0.0225,-6.70339 2.06709,-8.35806 5.38612,-4.35887 2.13313,2.57026 8.60944,2.59909 11.15885,0.0497 1.07916,-1.07916 5.15412,-8.62336 9.05546,-16.7649 4.5795,-9.55676 7.83941,-14.80102 9.19852,-14.79778 2.87199,0.007 10.74346,4.93329 11.64777,7.28989 0.40413,1.05312 -1.80796,5.52036 -4.91574,9.9272 -7.14093,10.12583 -6.68361,12.77587 3.35501,19.44114 5.98446,3.97345 7.1831,5.37578 6.39719,7.48425 -0.53192,1.42705 -7.60603,16.81576 -15.72024,34.19715 l -14.75311,31.60252 -7.08335,0.0153 c -4.50604,0.01 -7.273,-0.59472 -7.60457,-1.66121 z"
     id="path19"
     transform="scale(0.75)" />
  <path
     style="fill:#d40000;stroke-width:1.34119"
     d="m 350.82672,542.01148 c -0.41067,-0.66448 5.96138,-15.59542 14.16011,-33.17987 8.19873,-17.58444 15.20067,-34.1628 15.55987,-36.8408 0.62109,-4.63062 0.31727,-5.08669 -6.20352,-9.31201 -3.77113,-2.44361 -6.85661,-4.62209 -6.85661,-4.84107 0,-0.21898 1.81061,-3.25318 4.02358,-6.74266 2.21297,-3.48949 4.02358,-7.13167 4.02358,-8.09373 0,-2.48006 1.76474,-2.25285 18.07606,2.32728 18.7764,5.27232 20.82585,6.80213 24.46664,18.26306 5.83693,18.37423 19.27117,69.26123 19.54332,74.02732 l 0.2794,4.89312 -43.16288,0.35375 c -24.58853,0.20153 -43.48419,-0.16614 -43.90955,-0.85439 z"
     id="path20"
     transform="scale(0.75)" />
  <path
     style="fill:#d40000;stroke-width:1.34119"
     d="m 453.32286,364.80419 v -21.45907 h 12.07072 12.07073 v 21.45907 21.45907 h -12.07073 -12.07072 z"
     id="path21"
     transform="scale(0.75)" />
  <path
     style="fill:#d40000;stroke-width:1.34119"
     d="m 446.12612,292.93447 c -12.53629,-3.03438 -23.27215,-9.55832 -35.11292,-21.33731 -12.04354,-11.98071 -18.17446,-22.2275 -21.3436,-35.67221 -11.35826,-48.18603 25.33928,-95.14947 74.41138,-95.22748 22.43072,-0.0357 39.21634,6.90707 55.09874,22.78947 15.81043,15.81043 22.6618,32.41192 22.6618,54.91157 0,20.67803 -7.40546,38.4986 -22.11337,53.21383 -19.79942,19.8093 -47.13526,27.72834 -73.60203,21.32213 z m -34.39263,-70.63192 c 0.6992,-1.65972 1.88893,-6.57503 2.64384,-10.92291 4.14569,-23.87678 19.69301,-39.05801 45.4651,-44.39453 5.42991,-1.12435 10.40908,-2.37586 11.06483,-2.78114 0.65576,-0.40528 1.19228,-2.7794 1.19228,-5.27583 0,-15.97139 -34.86824,-8.65327 -55.1412,11.57299 -14.41249,14.37928 -24.68655,44.69707 -17.74589,52.36641 3.28709,3.63219 10.89755,3.28878 12.52104,-0.56499 z"
     id="path22"
     transform="scale(0.75)" />
  <path
     style="fill:#d40000;stroke-width:1.34119"
     d="m 276.60462,383.52861 c -15.62558,-7.8082 -32.41347,-30.67774 -34.68496,-47.25009 -0.71658,-5.22799 -0.0604,-7.94574 4.50033,-18.63889 2.93657,-6.88516 6.70153,-16.65077 8.36659,-21.70136 3.00509,-9.11529 3.05833,-9.17707 7.23369,-8.39407 19.35347,3.62932 24.3145,2.61833 40.71816,-8.29784 10.73592,-7.14445 11.11769,-7.28162 14.35763,-5.15873 5.51658,3.61459 8.83261,7.79045 13.50662,17.00877 6.6519,13.11923 10.58844,27.26787 10.62481,38.18746 0.027,8.10496 -0.65442,10.8536 -4.91457,19.82427 -9.90123,20.84918 -23.92337,34.40367 -38.41608,37.13487 -10.57496,1.99289 -12.31636,1.77089 -21.29222,-2.71439 z"
     id="path23"
     transform="scale(0.75)" />
  <path
     style="fill:#d40000;stroke-width:1.34119"
     d="m 230.64216,296.68404 c -2.32919,-13.03336 -1.09679,-33.97164 2.47851,-42.10946 4.64251,-10.56691 16.3715,-20.63923 34.63518,-29.74307 12.74767,-6.3543 21.72012,-8.0747 37.57517,-7.20475 23.53979,1.29161 32.10927,6.4664 40.77476,24.62237 2.97833,6.24021 7.19681,14.15523 9.37439,17.58893 3.26518,5.14866 3.95794,7.66653 3.95177,14.36296 -0.007,7.93174 -1.36016,15.10965 -4.24721,22.53454 -1.3873,3.56785 -1.6434,3.25606 -8.04681,-9.79656 -7.23288,-14.74338 -13.74858,-22.959 -21.13681,-26.65129 -11.34223,-5.66834 -19.21467,-4.64638 -31.70348,4.11557 -13.51034,9.47862 -15.40349,9.92122 -27.98718,6.54303 -16.8546,-4.52475 -19.56893,-2.49684 -27.58851,20.61167 -2.33283,6.72209 -4.72892,12.73054 -5.32463,13.35211 -0.59571,0.62157 -1.83552,-3.08015 -2.75515,-8.22605 z"
     id="path24"
     transform="scale(0.75)" />
  <path
     style="fill:#d40000;stroke-width:1.34119"
     d="m 311.11435,438.83014 -5.7519,-5.10437 9.85381,-6.30438 c 10.80601,-6.9136 12.97244,-6.56284 10.05067,1.62727 -2.56081,7.17831 -6.43397,14.88585 -7.48037,14.88585 -0.50616,0 -3.50866,-2.29697 -6.67221,-5.10437 z"
     id="path25"
     transform="scale(0.75)" />
  <path
     style="fill:#d40000;stroke-width:1.34119"
     d="m 276.28553,413.28881 c -12.08644,-7.2691 -12.7626,-7.91734 -13.15531,-12.61191 l -0.41398,-4.94894 7.79054,3.62909 c 11.64881,5.42641 27.67886,5.88359 39.01403,1.11269 4.54346,-1.91232 8.58079,-3.47694 8.97185,-3.47694 2.0049,0 0.31323,6.60284 -2.30667,9.00328 -4.65905,4.26876 -22.81806,15.14923 -25.11266,15.04693 -1.12557,-0.0502 -7.78008,-3.53957 -14.7878,-7.7542 z"
     id="path26"
     transform="scale(0.75)" />
  <path
     style="fill:#d40000;stroke-width:1.34119"
     d="m 260.92227,438.90504 c -3.69672,-7.59453 -6.10509,-16.26556 -4.7503,-17.10287 0.65844,-0.40693 5.53106,2.03808 10.82805,5.43336 l 9.63089,6.17324 -5.13906,5.26287 c -2.82647,2.89458 -5.81009,5.26287 -6.63024,5.26287 -0.82016,0 -2.59286,-2.26326 -3.93934,-5.02947 z"
     id="path27"
     transform="scale(0.75)" />
  <path
     style="fill:#d40000;stroke-width:1.34119"
     d=""
     id="path28"
     transform="scale(0.75)" />
  <path
     style="fill:#d40000;stroke-width:1.34119"
     d="m 287.35036,454.62225 c -3.92527,-1.57776 -3.81954,-4.10209 0.3353,-8.00535 l 3.35298,-3.14996 3.35298,3.14996 c 4.0243,3.78063 4.2474,6.1329 0.75876,7.99996 -3.03499,1.62428 -3.77118,1.62479 -7.80002,0.005 z"
     id="path29"
     transform="scale(0.75)" />
</svg>
