<?xml version="1.0" encoding="UTF-8" standalone="no"?>
<svg
   version="1.0"
   width="512.000000pt"
   height="512.000000pt"
   viewBox="0 0 512.000000 512.000000"
   preserveAspectRatio="xMidYMid meet"
   id="svg9"
   sodipodi:docname="исследование-компании.svg"
   inkscape:version="1.3.2 (091e20e, 2023-11-25, custom)"
   xmlns:inkscape="http://www.inkscape.org/namespaces/inkscape"
   xmlns:sodipodi="http://sodipodi.sourceforge.net/DTD/sodipodi-0.dtd"
   xmlns="http://www.w3.org/2000/svg"
   xmlns:svg="http://www.w3.org/2000/svg">
  <defs
     id="defs9" />
  <sodipodi:namedview
     id="namedview9"
     pagecolor="#ffffff"
     bordercolor="#000000"
     borderopacity="0.25"
     inkscape:showpageshadow="2"
     inkscape:pageopacity="0.0"
     inkscape:pagecheckerboard="0"
     inkscape:deskcolor="#d1d1d1"
     inkscape:document-units="pt"
     inkscape:zoom="0.74560547"
     inkscape:cx="341.33333"
     inkscape:cy="341.33333"
     inkscape:window-width="1366"
     inkscape:window-height="705"
     inkscape:window-x="-8"
     inkscape:window-y="-8"
     inkscape:window-maximized="1"
     inkscape:current-layer="svg9" />
  <g
     transform="translate(0.000000,512.000000) scale(0.100000,-0.100000)"
     fill="#000000"
     stroke="none"
     id="g9">
    <path
       d="M2340 5109 c-599 -51 -1150 -309 -1581 -739 -207 -207 -340 -385 -465 -624 -416 -799 -385 -1756 83 -2520 206 -335 527 -654 863 -856 991 -597 2255 -456 3086 343 146 140 252 267 359 427 229 343 357 688 416 1120 17 122 17 478 0 600 -65 481 -221 868 -499 1240 -99 132 -337 376 -462 472 -525 404 -1156 592 -1800 537z m1185 -1028 c44 -12 121 -41 172 -66 540 -266 671 -980 259 -1412 -113 -120 -259 -211 -395 -249 l-61 -17 0 -170 c0 -202 -2 -207 -87 -207 l-53 0 0 -70 0 -70 74 0 c113 0 106 25 106 -407 0 -350 -1 -364 -20 -383 -19 -19 -33 -20 -217 -20 -169 0 -199 2 -215 17 -17 15 -18 40 -18 389 0 325 2 375 16 388 11 12 36 16 90 16 l74 0 0 70 0 70 -55 0 c-92 0 -95 7 -95 208 l0 168 -53 17 c-30 9 -57 17 -60 17 -4 0 -7 -253 -7 -562 0 -508 -2 -563 -17 -580 -15 -17 -60 -18 -1011 -18 -912 0 -997 1 -1014 17 -17 15 -18 70 -18 1331 0 1210 1 1317 17 1334 15 17 57 18 907 18 l891 0 60 41 c114 77 216 119 350 145 95 19 277 11 380 -15z"
       id="path1" />
    <path
       d="M3110 3970 c-149 -40 -280 -119 -383 -229 -356 -385 -236 -1005 238 -1232 105 -51 179 -69 300 -76 447 -25 816 329 816 782 0 338 -206 625 -529 738 -78 28 -101 31 -227 34 -116 2 -153 -1 -215 -17z m318 -131 c35 -12 39 -22 69 -166 9 -46 22 -83 27 -83 6 0 56 14 112 31 60 19 112 29 126 26 17 -5 41 -36 86 -115 34 -59 62 -118 62 -130 0 -15 -29 -51 -87 -107 l-88 -85 88 -83 c61 -57 88 -89 87 -105 0 -31 -109 -221 -137 -239 -21 -14 -33 -12 -135 20 -62 19 -116 32 -119 29 -4 -4 -17 -54 -29 -112 -12 -58 -29 -113 -38 -122 -13 -15 -34 -18 -147 -18 -89 0 -137 4 -148 13 -10 7 -26 55 -43 127 -14 63 -26 116 -28 117 -1 1 -51 -14 -111 -33 -61 -19 -120 -32 -132 -29 -15 3 -42 41 -87 118 -36 63 -66 121 -66 131 0 9 10 27 23 39 13 12 54 51 91 86 l67 64 -90 86 c-50 47 -91 92 -91 100 0 16 104 206 128 234 21 24 41 22 159 -15 57 -17 105 -29 107 -27 3 2 17 56 33 119 24 98 32 117 53 127 31 16 215 17 258 2z"
       id="path2" />
    <path
       d="M3235 3718 c-2 -7 -11 -47 -20 -88 -22 -105 -31 -123 -71 -145 -44 -23 -52 -23 -154 9 -44 14 -87 26 -95 26 -7 0 -27 -23 -43 -52 l-30 -52 84 -81 c81 -77 84 -82 84 -124 0 -43 -3 -48 -85 -125 l-85 -81 31 -50 c17 -27 33 -51 34 -53 2 -2 48 10 103 27 54 17 104 31 111 31 6 0 29 -11 50 -25 37 -23 40 -29 61 -117 11 -51 23 -101 26 -110 4 -15 17 -18 68 -18 l63 0 16 78 c31 143 33 147 81 172 l43 24 103 -33 c115 -36 110 -37 150 36 l23 42 -82 76 -81 77 0 52 0 51 81 75 82 75 -32 56 -32 57 -91 -29 c-111 -35 -135 -36 -179 -6 -32 21 -36 31 -58 130 l-24 107 -64 0 c-42 0 -65 -4 -68 -12z m185 -322 c122 -80 134 -245 26 -344 -123 -113 -313 -53 -357 112 -25 92 32 204 126 248 57 27 151 20 205 -16z"
       id="path3" />
    <path
       d="M3264 3310 c-66 -27 -85 -120 -35 -171 56 -55 159 -26 176 50 10 45 -18 99 -59 116 -40 17 -52 17 -82 5z"
       id="path4" />
    <path
       d="M1030 2560 l0 -1240 915 0 915 0 0 555 0 554 -62 42 c-158 107 -287 278 -346 459 -33 99 -43 165 -43 287 0 189 57 365 166 519 l46 64 -795 0 -796 0 0 -1240z m1292 1053 c22 -20 23 -51 1 -75 -15 -17 -46 -18 -556 -18 -489 0 -542 2 -559 17 -22 20 -23 56 -2 77 14 14 78 16 556 16 490 0 543 -2 560 -17z m-4 -249 c25 -17 29 -51 8 -80 -14 -18 -33 -19 -548 -21 -416 -2 -539 0 -558 10 -31 16 -39 61 -14 88 16 18 38 19 553 19 469 0 539 -2 559 -16z m8 -258 c19 -26 18 -55 -3 -78 -15 -17 -46 -18 -556 -18 -489 0 -542 2 -559 17 -31 27 -18 81 22 96 8 3 255 5 548 4 516 -2 534 -3 548 -21z m-4 -253 c22 -20 23 -56 2 -77 -14 -14 -78 -16 -559 -16 -481 0 -545 2 -559 16 -21 20 -20 53 1 76 15 17 46 18 556 18 489 0 542 -2 559 -17z m136 -249 c30 -20 30 -68 0 -88 -20 -14 -96 -16 -623 -16 -662 0 -645 -2 -645 60 0 62 -17 60 645 60 527 0 603 -2 623 -16z m234 -261 c22 -20 23 -51 1 -75 -15 -17 -51 -18 -741 -18 -661 0 -727 1 -744 17 -22 20 -23 56 -2 77 14 14 95 16 741 16 662 0 728 -1 745 -17z m-855 -205 c22 -21 23 -27 23 -180 l0 -158 49 0 c59 0 72 -13 79 -80 l5 -50 106 0 106 1 27 44 c59 97 198 116 281 37 42 -39 57 -75 57 -132 0 -122 -95 -204 -214 -186 -51 8 -107 49 -132 97 l-15 29 -109 0 -110 0 0 -39 c0 -24 -8 -48 -21 -65 -20 -26 -20 -26 -168 -26 -186 0 -184 -1 -191 138 l-5 95 -132 76 c-136 79 -163 105 -143 141 6 11 19 24 30 30 22 12 38 5 182 -78 48 -28 90 -47 93 -41 4 5 28 9 56 9 l49 0 0 154 c0 140 2 156 21 180 25 32 45 33 76 4z"
       id="path5" />
    <path
       d="M1730 1620 l0 -70 70 0 70 0 0 70 0 70 -70 0 -70 0 0 -70z"
       id="path6" />
    <path
       d="M2340 1670 c-26 -26 -26 -81 0 -105 29 -26 79 -24 102 4 25 32 23 67 -7 96 -29 30 -68 32 -95 5z"
       id="path7" />
    <path
       d="M3220 2193 l0 -124 83 3 82 3 3 121 3 121 -86 0 -85 -1 0 -123z"
       id="path8" />
    <path
       d="M3180 1420 l0 -290 120 0 120 0 0 290 0 290 -120 0 -120 0 0 -290z"
       id="path9" />
  </g>
  <path
     style="fill:#d40000;stroke-width:1.34119"
     d="M 312.49771,680.55784 C 310.65357,680.24637 303.7129,679.34093 297.074,678.54577 243.77571,672.16212 183.96889,648.11444 140.89136,615.74641 70.185502,562.6187 24.591905,491.6691 8.0729122,409.06352 2.3979687,380.68516 0.84701256,361.64564 1.73764,331.29184 3.3894945,274.99436 17.231771,224.53293 44.419713,175.69614 82.276376,107.69548 149.15103,50.089791 222.00488,22.724635 258.89225,8.869099 291.17331,2.6999154 331.94499,1.7141469 c 40.8137,-0.98678457 72.33,3.204297 109.01682,14.4972151 38.8772,11.967152 83.5813,35.596144 113.50957,59.997115 12.3828,10.095894 39.11496,36.952663 51.12022,51.358523 34.35957,41.23019 58.44225,92.94843 69.7541,149.79886 9.25554,46.51597 7.72673,99.6695 -4.22781,146.99174 -24.10591,95.42367 -89.61751,176.84348 -177.8131,220.99154 -30.96045,15.49786 -67.40593,27.20027 -101.67676,32.64775 -13.33739,2.12002 -70.7417,3.97784 -79.13032,2.56095 z M 469.41716,545.86509 c 2.58312,-2.58312 2.68164,-4.45672 2.66261,-50.62999 -0.0148,-35.88235 -0.44537,-48.79134 -1.7111,-51.30059 -1.53618,-3.0454 -2.58011,-3.38912 -11.38035,-3.74703 l -9.68904,-0.39406 v -8.48835 -8.48835 l 6.9311,-0.66599 c 10.23256,-0.98322 10.50439,-1.70348 10.50439,-27.83267 v -22.27992 l 9.72365,-3.11394 c 31.65243,-10.13649 59.96248,-35.22675 73.54363,-65.17934 7.22666,-15.93804 9.82547,-28.87685 9.82547,-48.9184 0,-22.18868 -2.88831,-34.59793 -12.64285,-54.31827 -11.80209,-23.85982 -29.82216,-41.68055 -54.29665,-53.69603 -18.69701,-9.17908 -29.76042,-11.59165 -53.64768,-11.69885 -18.12395,-0.0813 -21.28863,0.26535 -31.93038,3.49784 -13.34515,4.05366 -21.69019,7.99728 -34.79201,16.44167 l -9.05114,5.83363 -118.63073,0.36359 c -95.16887,0.29168 -118.97548,0.7084 -120.37388,2.10709 -2.57718,2.57772 -2.5772,353.37443 -10e-6,355.95231 1.40006,1.40045 26.87195,1.82388 129.42502,2.15146 70.22503,0.22433 130.80012,0.0363 134.61132,-0.41783 4.62321,-0.55088 7.27382,-1.57936 7.96419,-3.09024 0.56912,-1.2455 1.27901,-35.653 1.57756,-76.4611 0.44077,-60.24799 0.87136,-74.07047 2.29045,-73.52592 0.9612,0.36885 4.18668,1.40138 7.16774,2.29454 l 5.42011,1.6239 0.41956,23.2202 c 0.2709,14.9928 0.95861,23.75804 1.94092,24.73813 0.83676,0.83485 5.2124,1.8526 9.72364,2.26166 l 8.20228,0.74376 v 8.53147 8.53147 h -10.68235 c -9.18867,0 -10.87648,0.36274 -12.07073,2.59421 -0.88444,1.65258 -1.38838,20.39504 -1.38838,51.63589 0,47.25342 0.0978,49.13948 2.68239,51.72405 2.49897,2.49898 4.47063,2.68239 28.83562,2.68239 24.36499,0 26.33665,-0.18341 28.83563,-2.68239 z"
     id="path10"
     transform="scale(0.75)" />
  <path
     style="fill:#d40000;stroke-width:1.34119"
     d="m 313.10734,472.8311 c -3.80604,-3.80604 -4.14649,-6.96193 -1.20418,-11.16267 2.96009,-4.22612 9.01834,-3.95953 12.56793,0.55304 3.71017,4.71672 3.50292,7.77333 -0.75412,11.12192 -4.57851,3.60146 -6.59316,3.50418 -10.60963,-0.51229 z"
     id="path11"
     transform="scale(0.75)" />
  <path
     style="fill:#d40000;stroke-width:1.34119"
     d="m 230.685,466.06418 v -8.71775 h 8.71775 8.71775 v 8.71775 8.71775 h -8.71775 -8.71775 z"
     id="path12"
     transform="scale(0.75)" />
  <path
     style="fill:#d40000;stroke-width:1.34119"
     d="m 138.14276,341.33333 v -164.296 H 242.8057 347.46864 l -5.51837,8.12616 c -7.53569,11.09679 -14.08346,25.30772 -17.57552,38.14496 -2.37938,8.74689 -2.93721,14.57091 -3.01885,31.51801 -0.0869,18.03226 0.31596,22.21103 3.03822,31.51801 7.87414,26.92049 24.7334,50.65911 47.53286,66.92848 l 8.97151,6.40193 v 72.97723 72.97723 H 259.52063 138.14276 Z m 122.85358,149.85766 c 2.60949,-1.74241 4.55965,-6.71514 4.55965,-11.62672 v -4.78234 h 14.04808 c 13.96588,0 14.05929,0.0216 15.96687,3.68827 6.99595,13.4475 26.03201,18.05521 37.7301,9.13265 11.73224,-8.94862 13.46153,-26.98202 3.58809,-37.41742 -5.29058,-5.5917 -10.41449,-7.80729 -18.2177,-7.87741 -8.95242,-0.0804 -16.68234,3.82818 -21.26456,10.7524 l -3.50378,5.29456 -13.00323,0.9749 c -14.3496,1.07584 -15.286,0.66551 -15.32333,-6.71449 -0.0357,-7.04961 -3.24658,-10.02207 -10.82612,-10.02207 H 248.1205 V 421.1865 c 0,-20.29448 -0.15253,-21.54893 -2.93528,-24.14145 -3.7459,-3.48984 -7.00581,-3.46878 -10.29945,0.0665 -2.25885,2.42459 -2.73971,5.6701 -3.57679,24.14145 l -0.96709,21.34028 h -7.37381 c -6.44206,0 -9.28005,-1.01682 -22.45989,-8.04715 -8.29735,-4.42593 -15.87758,-8.04715 -16.84495,-8.04715 -2.60384,0 -7.9671,5.48099 -7.9671,8.142 0,3.3985 7.04777,9.02001 22.99362,18.34039 l 14.1663,8.28023 0.86732,8.29807 c 0.47703,4.56394 0.86732,10.32192 0.86732,12.79551 0,2.70918 1.06656,5.56399 2.68238,7.17982 2.44202,2.44201 4.45511,2.68054 22.46497,2.66185 10.88042,-0.0113 20.44665,-0.46395 21.25829,-1.0059 z m 89.48827,-108.76465 c 9.0636,-1.00706 11.57286,-2.51297 11.61666,-6.97157 0.0113,-1.14991 -0.83616,-3.26229 -1.88324,-4.69417 -1.8547,-2.53629 -4.4499,-2.60343 -100.63841,-2.60343 -107.77085,0 -101.25162,-0.48574 -101.29844,7.54764 -0.0288,4.94393 2.24273,6.31098 11.42598,6.87632 15.81037,0.97333 171.82659,0.83973 180.77745,-0.15479 z M 327.53506,348.2335 c 5.44816,-2.64005 4.54025,-12.28384 -1.31056,-13.921 -2.01732,-0.56448 -39.2765,-1.02632 -82.79817,-1.02632 -87.32745,0 -85.16569,-0.20344 -85.16569,8.01519 0,5.459 1.27571,6.41863 10.05894,7.56663 9.72194,1.27069 156.49085,0.68579 159.21548,-0.6345 z m -17.25411,-35.56471 c 2.71996,-2.25855 2.85903,-6.82686 0.31382,-10.30898 -1.82823,-2.50124 -4.36819,-2.62144 -64.7125,-3.06241 -34.54527,-0.25245 -67.82786,-0.0441 -73.96132,0.46293 -9.92844,0.82079 -11.30801,1.26488 -12.57624,4.04837 -2.22111,4.87479 -0.37528,9.75196 3.94867,10.43343 2.02676,0.31943 35.42931,0.51026 74.2279,0.42407 57.64646,-0.12806 70.94816,-0.49322 72.75967,-1.99741 z m -0.68868,-33.15912 c 4.21077,-2.94934 3.57849,-9.86338 -1.11814,-12.22683 -2.56653,-1.29155 -20.05543,-1.69194 -74.56358,-1.70708 -68.42272,-0.019 -71.30143,0.0806 -73.53078,2.54401 -3.26999,3.61329 -2.28915,9.69225 1.90445,11.80319 2.5657,1.2915 19.89438,1.69243 73.80243,1.70756 62.35649,0.0175 70.80053,-0.22613 73.50562,-2.12085 z m 1.00262,-34.6632 c 2.78251,-3.80701 2.32641,-8.3479 -1.07799,-10.73244 -2.60803,-1.82673 -11.98872,-2.08783 -75.01095,-2.08783 -79.80759,0 -76.85,-0.33165 -75.98244,8.52009 0.75473,7.70058 0.10474,7.64062 78.64113,7.2549 69.04155,-0.33908 71.59357,-0.44177 73.43025,-2.95472 z m -14.06972,-31.59696 c 12.84322,0 15.97254,-1.45792 15.97254,-7.44144 0,-7.43121 0.20529,-7.41299 -78.99628,-7.0104 -78.1205,0.39709 -75.19971,0.12229 -75.19971,7.07528 0,6.4389 0.87971,6.65675 30.41972,7.53312 15.33458,0.45493 43.21824,0.60582 61.9637,0.33529 18.74546,-0.27052 39.37348,-0.49185 45.84003,-0.49185 z"
     id="path13"
     transform="scale(0.75)" />
  <path
     style="fill:#d40000;stroke-width:1.34119"
     d="m 425.15783,492.88802 v -38.22397 h 15.4237 15.42371 v 38.22397 38.22396 h -15.42371 -15.4237 z"
     id="path14"
     transform="scale(0.75)" />
  <path
     style="fill:#d40000;stroke-width:1.34119"
     d="m 430.52259,390.46013 v -16.2676 h 10.49452 10.49451 l -0.59686,15.08841 c -0.32828,8.29863 -0.67517,15.18826 -0.77088,15.31029 -0.0957,0.12204 -4.54964,0.65267 -9.89765,1.17919 l -9.72364,0.95731 z"
     id="path15"
     transform="scale(0.75)" />
  <path
     style="fill:#d40000;stroke-width:1.34119"
     d="m 424.88848,356.68908 c -23.76886,-3.29706 -51.5402,-19.71576 -66.09246,-39.07455 -14.90436,-19.82718 -21.34401,-38.92386 -21.3991,-63.45867 -0.0433,-19.28242 2.05624,-28.32906 10.62441,-45.7792 9.63375,-19.62033 26.46137,-36.23066 47.29915,-46.68842 24.92054,-12.50675 57.81162,-13.74995 83.27924,-3.14775 32.61685,13.57843 55.50181,41.00633 62.79336,75.25862 2.8343,13.31422 1.76769,37.14473 -2.23177,49.86297 -15.71692,49.97956 -62.92674,80.14939 -114.27283,73.027 z m 33.70337,-18.65747 c 3.04392,-1.62906 4.7636,-5.92592 7.96538,-19.90265 1.40277,-6.1235 2.87072,-11.45388 3.26212,-11.84529 0.39142,-0.3914 7.43843,1.19376 15.66004,3.52257 13.41835,3.80082 15.24892,4.03577 17.88447,2.29544 3.69768,-2.44169 15.75413,-22.63673 17.56545,-29.42284 l 1.3606,-5.09747 -11.25686,-11.31564 -11.25686,-11.31564 10.97373,-11.43048 c 6.8059,-7.08919 10.97372,-12.52811 10.97372,-14.32048 0,-3.57542 -9.90681,-22.38749 -15.12082,-28.713 -2.16113,-2.62183 -5.08362,-4.67212 -6.65964,-4.67212 -1.54466,0 -8.79645,1.60912 -16.11508,3.57582 -10.50272,2.82235 -13.53041,3.21369 -14.36876,1.85721 -0.58418,-0.94524 -2.11359,-6.62823 -3.39867,-12.62887 -4.13656,-19.31547 -4.593,-19.64304 -27.32328,-19.60822 -18.49205,0.0283 -18.77662,0.25034 -23.6385,18.44242 -2.86955,10.73718 -4.6006,15.04901 -6.03537,15.03332 -1.10648,-0.0121 -7.11085,-1.51818 -13.34303,-3.34684 -15.2262,-4.4677 -17.9467,-4.33974 -21.98331,1.03404 -4.24629,5.65291 -15.63895,26.86519 -15.63895,29.11857 0,0.95642 5.17952,7.03199 11.51004,13.50126 l 11.51003,11.7623 -11.51003,11.05009 c -6.33052,6.07756 -11.51004,11.95019 -11.51004,13.0503 0,2.94609 11.86192,24.93065 16.46375,30.51349 4.51868,5.48193 4.44752,5.48232 23.29537,-0.12649 6.00792,-1.78786 11.47035,-3.25066 12.13873,-3.25066 0.66838,0 2.58477,5.79777 4.25865,12.88393 3.7558,15.89976 5.13619,19.01496 8.73976,19.72342 5.86535,1.15313 33.28497,0.87006 35.59736,-0.36749 z"
     id="path16"
     transform="scale(0.75)" />
  <path
     style="fill:#d40000;stroke-width:1.34119"
     d="m 432.78184,322.28475 c -0.3629,-0.58812 -1.92158,-6.38355 -3.46375,-12.87875 -3.51798,-14.81683 -4.39056,-16.40492 -10.81445,-19.68214 l -5.2233,-2.66473 -13.84384,3.98695 -13.84383,3.98696 -2.20365,-2.9145 c -1.21201,-1.60298 -3.17398,-4.55714 -4.35994,-6.56481 l -2.15629,-3.65031 9.15936,-8.50901 c 17.69013,-16.43409 17.90513,-20.24881 2.04065,-36.20689 l -10.34418,-10.40521 2.59083,-4.85276 c 4.6218,-8.65688 3.05069,-8.4902 24.69029,-2.61933 14.2472,3.8653 19.75649,-0.73876 24.2732,-20.28491 l 2.93894,-12.71834 8.13605,0.39465 8.13605,0.39465 2.89703,12.07072 c 3.70939,15.45551 4.18093,16.47195 8.73373,18.82629 5.41446,2.79993 12.42909,2.4057 24.631,-1.38427 5.85443,-1.81842 10.74528,-3.16732 10.86857,-2.99756 0.12328,0.16976 1.92647,3.25705 4.0071,6.86063 l 3.78295,6.55198 -11.01066,10.21292 -11.01066,10.21292 0.0474,6.92506 c 0.0474,6.92045 0.0547,6.93176 10.91897,17.02493 l 10.87154,10.09987 -3.17984,5.77533 c -4.02842,7.31654 -6.22161,7.62862 -21.23832,3.02217 l -11.85741,-3.63733 -4.65371,2.87616 c -6.9701,4.30775 -7.83179,5.87884 -10.9772,20.01444 l -2.89409,13.00612 -7.49437,0.39869 c -4.12191,0.21929 -7.7913,-0.0825 -8.15419,-0.67059 z m 15.06836,-39.26232 c 7.43723,-2.13297 14.24866,-7.7363 18.17612,-14.95234 3.22575,-5.92675 3.61642,-7.90249 3.15995,-15.98081 -0.6338,-11.21675 -5.268,-18.82839 -14.39787,-23.6484 -9.01682,-4.76031 -21.68863,-4.42199 -29.92106,0.79886 -7.0935,4.49856 -13.02397,13.56874 -14.09556,21.55801 -2.69979,20.12849 17.63467,37.80107 37.07842,32.22468 z"
     id="path17"
     transform="scale(0.75)" />
  <path
     style="fill:#d40000;stroke-width:1.34119"
     d="m 433.87557,265.27727 c -4.32992,-2.48321 -5.94727,-5.42208 -5.99271,-10.88928 -0.10899,-13.11553 17.53231,-17.6689 23.52879,-6.07299 2.97418,5.75143 2.35059,10.30199 -2.0092,14.66178 -4.23305,4.23305 -10.53025,5.16605 -15.52688,2.30049 z"
     id="path18"
     transform="scale(0.75)" />
</svg>
