<?xml version="1.0" encoding="UTF-8" standalone="no"?>
<svg
   version="1.0"
   width="512.000000pt"
   height="512.000000pt"
   viewBox="0 0 512.000000 512.000000"
   preserveAspectRatio="xMidYMid meet"
   id="svg20"
   sodipodi:docname="аудит-бренда.svg"
   inkscape:version="1.3.2 (091e20e, 2023-11-25, custom)"
   xmlns:inkscape="http://www.inkscape.org/namespaces/inkscape"
   xmlns:sodipodi="http://sodipodi.sourceforge.net/DTD/sodipodi-0.dtd"
   xmlns="http://www.w3.org/2000/svg"
   xmlns:svg="http://www.w3.org/2000/svg">
  <defs
     id="defs20" />
  <sodipodi:namedview
     id="namedview20"
     pagecolor="#ffffff"
     bordercolor="#000000"
     borderopacity="0.25"
     inkscape:showpageshadow="2"
     inkscape:pageopacity="0.0"
     inkscape:pagecheckerboard="0"
     inkscape:deskcolor="#d1d1d1"
     inkscape:document-units="pt"
     inkscape:zoom="0.74560547"
     inkscape:cx="341.33333"
     inkscape:cy="341.33333"
     inkscape:window-width="1366"
     inkscape:window-height="705"
     inkscape:window-x="-8"
     inkscape:window-y="-8"
     inkscape:window-maximized="1"
     inkscape:current-layer="svg20" />
  <g
     transform="translate(0.000000,512.000000) scale(0.100000,-0.100000)"
     fill="#000000"
     stroke="none"
     id="g20">
    <path
       d="M2340 5109 c-599 -51 -1150 -309 -1581 -739 -207 -207 -340 -385 -465 -624 -416 -799 -385 -1756 83 -2520 206 -335 527 -654 863 -856 991 -597 2255 -456 3086 343 146 140 252 267 359 427 229 343 357 688 416 1120 17 122 17 478 0 600 -65 481 -221 868 -499 1240 -99 132 -337 376 -462 472 -525 404 -1156 592 -1800 537z m-758 -926 c9 -10 58 -110 109 -223 l93 -205 124 -127 c97 -99 125 -132 125 -153 0 -22 -36 -63 -181 -207 -189 -190 -208 -202 -250 -165 -17 15 -24 10 -112 -78 -71 -71 -101 -95 -121 -95 -19 0 -45 20 -102 79 -42 43 -77 87 -77 96 0 10 44 62 97 116 57 58 93 103 87 107 -5 5 -101 50 -214 101 -200 91 -240 116 -240 150 0 9 43 59 95 111 l94 94 -49 52 c-28 29 -50 61 -50 70 0 23 181 204 204 204 9 0 41 -22 70 -50 l52 -49 94 94 c98 98 123 111 152 78z m2598 -3 c20 -20 20 -33 20 -728 0 -624 -2 -710 -16 -730 l-15 -22 -920 0 c-906 0 -919 0 -939 20 -20 20 -20 33 -20 730 0 697 0 710 20 730 20 20 33 20 935 20 902 0 915 0 935 -20z m-2315 -1249 c126 -44 267 -167 323 -281 24 -48 27 -67 27 -150 0 -57 -5 -104 -13 -117 -8 -14 -12 -67 -12 -152 0 -107 -4 -140 -21 -185 -27 -75 -96 -166 -163 -216 l-54 -41 23 -57 23 -57 124 -6 c74 -4 141 -13 168 -23 64 -24 145 -82 180 -129 l30 -41 99 3 c110 3 101 7 174 -79 l38 -44 55 62 56 62 91 0 c103 0 159 -19 213 -71 l30 -29 25 26 c46 51 114 74 216 74 l91 0 57 -62 56 -63 20 25 c12 14 36 42 54 63 l34 37 94 0 c84 0 101 -3 148 -28 113 -59 149 -144 149 -354 0 -125 -2 -140 -20 -158 -20 -20 -33 -20 -1620 -20 -1587 0 -1600 0 -1620 20 -19 19 -20 33 -20 209 0 157 3 199 19 250 24 77 77 149 143 194 82 56 128 69 265 75 l121 4 27 61 c25 57 25 61 8 71 -38 21 -129 117 -160 168 -44 73 -63 154 -63 269 l0 97 -31 12 c-63 27 -148 89 -155 114 -9 35 12 65 59 85 55 24 65 36 132 161 85 160 143 210 247 210 29 1 78 10 108 21 67 24 138 21 225 -10z m1024 -946 c61 -21 104 -58 136 -117 109 -201 -105 -431 -310 -334 -95 45 -145 121 -145 221 0 100 50 176 145 221 57 27 115 30 174 9z m906 -9 c95 -45 145 -121 145 -221 0 -100 -50 -176 -145 -221 -115 -55 -247 -8 -310 108 -109 201 105 431 310 334z"
       id="path1" />
    <path
       d="M1301 3816 l-222 -223 157 -72 157 -73 139 139 140 140 -68 149 c-37 82 -70 152 -74 156 -3 4 -106 -93 -229 -216z"
       id="path2" />
    <path
       d="M1182 3937 l-32 -33 20 -19 c20 -19 21 -18 53 13 l32 32 -21 20 -20 20 -32 -33z"
       id="path3" />
    <path
       d="M1610 3505 l-125 -125 80 -80 80 -80 127 127 128 128 -77 77 c-43 43 -80 78 -83 78 -3 0 -61 -56 -130 -125z"
       id="path4" />
    <path
       d="M1397 3172 l-68 -68 21 -19 c21 -19 21 -18 88 48 l67 67 -20 20 -21 20 -67 -68z"
       id="path5" />
    <path
       d="M2410 4045 l0 -35 835 0 835 0 0 35 0 35 -835 0 -835 0 0 -35z"
       id="path6" />
    <path
       d="M2410 3350 l0 -540 835 0 835 0 0 540 0 540 -835 0 -835 0 0 -540z m408 434 c14 -10 22 -26 22 -44 0 -51 -27 -60 -177 -60 -120 0 -135 2 -153 20 -11 11 -20 29 -20 40 0 11 9 29 20 40 18 18 33 20 153 20 104 0 137 -3 155 -16z m421 -33 c59 -43 84 -120 60 -189 -10 -31 -8 -36 75 -139 l85 -108 48 3 48 4 63 91 62 92 -16 42 c-40 102 37 213 149 213 58 0 98 -19 131 -63 78 -102 3 -257 -123 -257 l-47 0 -63 -92 c-60 -87 -63 -94 -52 -123 18 -52 14 -118 -12 -155 -93 -139 -309 -67 -295 99 3 25 8 53 11 61 5 10 -21 50 -78 122 l-85 106 -59 -1 -59 -2 -130 -151 -130 -151 10 -39 c28 -104 -47 -204 -152 -204 -92 0 -164 70 -164 158 1 97 67 162 166 162 l57 0 131 153 c115 133 130 155 123 177 -23 78 9 164 75 200 49 27 126 22 171 -9z m-337 -158 c22 -20 23 -56 2 -77 -24 -24 -369 -24 -396 1 -22 20 -23 42 -2 71 15 21 20 22 196 22 155 0 184 -2 200 -17z"
       id="path7" />
    <path
       d="M3116 3654 c-19 -18 -21 -55 -4 -72 19 -19 55 -14 72 9 16 23 12 47 -12 67 -21 16 -37 15 -56 -4z"
       id="path8" />
    <path
       d="M3788 3639 c-26 -15 -23 -65 3 -80 34 -18 69 3 69 40 0 42 -36 62 -72 40z"
       id="path9" />
    <path
       d="M3480 3190 c-24 -24 -25 -43 -4 -65 25 -25 67 -15 79 19 8 24 6 31 -14 47 -29 24 -36 24 -61 -1z"
       id="path10" />
    <path
       d="M2648 3109 c-34 -19 -12 -89 28 -89 15 0 54 35 54 48 0 4 -7 18 -16 30 -16 24 -39 27 -66 11z"
       id="path11" />
    <path
       d="M1665 2829 c-11 -7 -23 -17 -27 -23 -9 -14 -10 -78 -2 -138 l6 -46 75 -12 c103 -16 234 -55 321 -96 l73 -33 -7 47 c-10 70 -32 111 -100 178 -79 79 -173 127 -258 131 -35 2 -69 -2 -81 -8z"
       id="path12" />
    <path
       d="M1467 2781 c-18 -16 -57 -76 -86 -132 -30 -56 -69 -119 -87 -139 -31 -34 -32 -37 -13 -48 33 -21 52 -13 121 47 37 33 81 68 98 78 18 10 28 23 25 31 -3 8 -5 54 -5 103 0 50 -4 89 -10 89 -5 0 -24 -13 -43 -29z"
       id="path13" />
    <path
       d="M1555 2484 c-21 -14 -65 -49 -97 -77 l-58 -52 0 -120 c0 -105 3 -126 24 -171 60 -128 188 -215 318 -216 114 0 252 93 309 209 20 41 24 67 27 175 l4 127 -47 30 c-55 35 -206 84 -324 106 -109 20 -112 19 -156 -11z"
       id="path14" />
    <path
       d="M1602 1694 c-12 -30 -22 -58 -22 -63 0 -5 35 -43 78 -84 l77 -76 79 78 79 79 -22 55 -22 54 -87 -1 c-48 -1 -98 2 -112 6 -23 7 -27 3 -48 -48z"
       id="path15" />
    <path
       d="M1195 1526 c-61 -28 -112 -77 -136 -131 -15 -33 -19 -67 -19 -197 l0 -158 695 0 695 0 0 158 c0 130 -4 164 -19 197 -24 54 -75 103 -136 131 -44 21 -65 24 -171 24 l-120 0 -116 -110 c-64 -60 -124 -110 -133 -110 -9 0 -69 49 -133 110 l-117 110 -120 0 c-105 0 -126 -3 -170 -24z"
       id="path16" />
    <path
       d="M2548 1363 c-2 -5 -2 -79 0 -165 l3 -158 326 0 325 0 -3 108 c-6 160 -42 210 -160 219 l-64 5 -68 -81 c-92 -111 -100 -110 -206 17 -52 60 -54 62 -101 62 -27 0 -50 -3 -52 -7z"
       id="path17" />
    <path
       d="M3413 1359 c-39 -11 -79 -57 -93 -107 -5 -20 -10 -76 -10 -124 l0 -88 385 0 385 0 0 105 c0 87 -4 113 -21 146 -24 49 -81 78 -150 79 -44 0 -48 -2 -99 -62 -107 -127 -115 -127 -206 -18 -67 79 -68 80 -113 79 -25 0 -60 -5 -78 -10z"
       id="path18" />
    <path
       d="M2731 1855 c-91 -77 -42 -225 76 -225 55 0 98 24 118 66 44 92 -15 184 -118 184 -34 0 -53 -6 -76 -25z"
       id="path19" />
    <path
       d="M3628 1862 c-75 -46 -74 -170 1 -215 45 -26 113 -22 150 9 92 77 41 224 -77 224 -26 0 -59 -8 -74 -18z"
       id="path20" />
  </g>
  <path
     style="fill:#d40000;stroke-width:1.34119"
     d="M 312.49771,680.55784 C 310.65357,680.24637 303.7129,679.34093 297.074,678.54577 243.77571,672.16212 183.96889,648.11444 140.89136,615.74641 70.185502,562.6187 24.591905,491.6691 8.0729122,409.06352 2.3979687,380.68516 0.84701256,361.64564 1.73764,331.29184 3.0768893,285.64837 11.370162,248.25297 29.63214,205.51203 46.008717,167.18375 66.969334,136.4718 98.732177,104.26517 151.45075,50.810014 211.98019,18.71489 284.33268,5.8523704 c 26.20535,-4.6586757 67.22668,-5.81332829 94.37857,-2.656531 29.84089,3.4694328 60.12178,11.0348206 87.20018,21.7861246 29.31658,11.639948 66.10986,32.922615 88.55995,51.226513 12.29451,10.023903 38.33147,36.186953 50.79028,51.036233 34.48165,41.09767 58.72285,93.02271 70.08404,150.12115 9.25554,46.51597 7.72673,99.6695 -4.22781,146.99174 -24.10591,95.42367 -89.61751,176.84348 -177.8131,220.99154 -30.96045,15.49786 -67.40593,27.20027 -101.67676,32.64775 -13.33739,2.12002 -70.7417,3.97784 -79.13032,2.56095 z M 558.05454,556.78135 c 2.1832,-2.69636 2.56367,-5.3967 2.56367,-18.19506 0,-25.15686 -3.25901,-36.52219 -12.90007,-44.98715 -7.3875,-6.48631 -13.13967,-8.39763 -27.4413,-9.11814 -12.58174,-0.63388 -12.90351,-0.57531 -15.58801,2.8375 -1.50761,1.91661 -4.66512,5.67607 -7.01672,8.35439 l -4.27561,4.86966 -7.57151,-8.36679 -7.5715,-8.36678 -11.6531,0.75497 c -14.84343,0.96167 -21.39901,2.95879 -27.8568,8.48642 l -5.1706,4.42584 -3.08904,-3.28814 c -5.66939,-6.03478 -13.39665,-8.70854 -27.68347,-9.57894 l -13.2693,-0.80839 -7.2921,8.41738 -7.2921,8.41737 -6.07729,-6.82912 c -7.68071,-8.63091 -11.45513,-10.05226 -23.65751,-8.9088 l -9.58064,0.89778 -8.55781,-8.5244 c -12.64098,-12.59159 -19.6612,-15.51917 -42.14461,-17.57515 l -18.35841,-1.67877 -2.48693,-6.34569 -2.48693,-6.34568 11.16034,-11.08982 c 16.17285,-16.07065 18.51038,-21.5993 19.71581,-46.63139 0.51507,-10.696 1.67605,-23.0685 2.57995,-27.49443 2.24111,-10.97358 0.89744,-23.64008 -3.45049,-32.52692 -6.83689,-13.97408 -27.13106,-30.93851 -43.97571,-36.76041 -8.44202,-2.91777 -22.09387,-3.11221 -30.90212,-0.44014 -3.6211,1.09851 -8.75116,2.00065 -11.40013,2.00476 -14.30509,0.0222 -22.93744,7.18388 -34.91521,28.96673 -7.10402,12.91941 -13.38908,20.64989 -16.78881,20.64989 -3.01905,0 -8.77176,6.48634 -8.77176,9.89039 0,4.01481 7.73702,11.01772 18.22993,16.50023 l 7.24635,3.7862 0.003,11.66941 c 0.006,23.24995 4.71392,34.94033 20.4491,50.78158 l 10.50527,10.57609 -2.89943,6.73989 c -1.59468,3.70694 -3.27775,6.75838 -3.74015,6.78098 -15.81613,0.7728 -34.43057,2.97031 -39.06471,4.61175 -12.81184,4.53803 -25.4391,17.11613 -30.33625,30.21816 -1.73523,4.64251 -2.39642,12.15339 -2.865,32.54518 -0.72252,31.44262 -0.3465,32.69797 10.04798,33.54599 3.51361,0.28666 100.14082,0.47094 214.72713,0.40951 L 555.4909,559.94761 Z M 388.32697,478.9685 c 6.82365,-3.09959 15.75488,-13.13544 17.81809,-20.02181 5.01739,-16.74654 -4.01034,-35.56563 -19.72012,-41.10838 -21.57858,-7.61337 -44.42101,8.21983 -44.42101,30.79037 0,12.93033 7.14977,23.83383 19.44728,29.65736 8.28664,3.92418 19.13287,4.1996 26.87576,0.68246 z m 114.75515,0.96865 c 13.9411,-4.74204 22.68796,-16.81246 22.63564,-31.2365 -0.0508,-14.01176 -6.17101,-23.37315 -19.41783,-29.7014 -11.63883,-5.56009 -24.37161,-3.95514 -33.999,4.28556 -8.42289,7.20969 -11.52185,14.02627 -11.52185,25.34387 0,7.03399 0.72695,10.76554 2.89882,14.8801 3.28036,6.2145 10.8996,13.40509 17.03515,16.07672 5.13002,2.23378 16.31867,2.40968 22.36907,0.35165 z M 558.1069,321.0098 c 1.52222,-1.83377 1.84071,-18.76613 1.84071,-97.85862 0,-90.02858 -0.14056,-95.78173 -2.39509,-98.03664 -2.26453,-2.26492 -9.07858,-2.39548 -125.01833,-2.39548 -115.9301,0 -122.75398,0.13072 -125.01814,2.39498 -2.25396,2.25406 -2.3949,7.98347 -2.3949,97.36558 0,102.58227 -0.28051,98.66128 7.13941,99.79646 1.97457,0.30209 57.68361,0.63968 123.79788,0.75021 110.32044,0.18443 120.35915,0.0186 122.04846,-2.01649 z M 198.18908,280.9797 c 12.09505,-11.38578 14.51018,-12.7551 17.39996,-9.86531 3.09046,3.09045 10.1605,-2.10997 31.14898,-22.91191 21.94978,-21.75465 25.93464,-26.9732 24.16934,-31.65187 -0.56742,-1.50385 -8.21615,-10.25513 -16.99718,-19.44728 -15.65867,-16.39181 -16.11656,-17.04812 -23.82403,-34.14852 -15.85966,-35.18746 -19.1885,-40.90635 -23.81066,-40.90635 -1.39409,0 -8.19534,5.47614 -15.11388,12.16921 l -12.57918,12.1692 -7.53069,-6.13383 c -4.1419,-3.37363 -8.44977,-6.13385 -9.57307,-6.13385 -2.76394,0 -27.35948,24.46682 -27.35948,27.21631 0,1.20204 2.77015,5.58653 6.15589,9.74331 l 6.1559,7.55778 -12.19126,12.43163 c -6.70519,6.8374 -12.19126,13.44704 -12.19126,14.68812 0,4.20506 6.70914,8.50254 30.54421,19.56473 13.07574,6.06864 25.20513,11.7748 26.9542,12.68038 3.16039,1.63628 3.11589,1.71657 -7.16203,12.92403 -14.25722,15.54664 -14.93405,16.64662 -12.75184,20.72411 3.27325,6.11612 19.58324,20.73024 23.13583,20.73024 2.30969,0 6.96961,-3.44507 15.42025,-11.40013 z"
     id="path21"
     transform="scale(0.75)" />
  <path
     style="fill:#d40000;stroke-width:1.34119"
     d="m 222.5431,434.11824 c -13.66417,-3.82865 -25.50705,-13.92136 -31.54048,-26.87933 -2.80475,-6.02373 -3.21121,-8.86722 -3.22265,-22.54486 l -0.0131,-15.65173 7.71186,-6.91906 c 4.24152,-3.80548 10.27314,-8.43544 13.40362,-10.28879 5.51234,-3.26351 5.99854,-3.3184 15.4237,-1.74102 14.17776,2.37277 35.37555,8.9312 44.41522,13.74172 l 7.85945,4.18246 -0.51245,17.53633 c -0.47795,16.35561 -0.76776,17.97197 -4.30429,24.0066 -10.85259,18.51855 -32.40216,29.27024 -49.22087,24.55768 z"
     id="path22"
     transform="scale(0.75)" />
  <path
     style="fill:#d40000;stroke-width:1.34119"
     d="m 139.49144,524.07073 c 0.004,-10.51159 0.60524,-21.26381 1.33585,-23.89381 1.84763,-6.65101 9.15295,-14.72343 17.37317,-19.19743 6.15506,-3.35 8.70558,-3.85537 22.61089,-4.4802 l 15.67326,-0.70427 14.75311,13.71334 c 8.11421,7.54234 16.08634,14.34067 17.71585,15.10741 3.89818,1.83422 5.97683,0.41163 23.14944,-15.843 l 13.7658,-13.02993 15.71251,0.72393 c 18.32622,0.84435 26.03878,3.81619 33.9795,13.09313 6.26596,7.32037 7.66642,13.79437 7.66642,35.44003 v 18.18278 H 231.3556 139.48396 Z"
     id="path23"
     transform="scale(0.75)" />
  <path
     style="fill:#d40000;stroke-width:1.34119"
     d="m 221.37335,475.52972 -9.9378,-10.00456 1.81465,-5.49843 c 2.90638,-8.80642 3.10817,-8.89537 18.88794,-8.32595 l 14.19446,0.51221 2.42003,6.72988 2.42004,6.72989 -9.93077,9.93076 -9.93076,9.93077 z"
     id="path24"
     transform="scale(0.75)" />
  <path
     style="fill:#d40000;stroke-width:1.34119"
     d="m 340.96398,522.05894 c 0.36747,-21.01613 0.38538,-21.12604 3.51437,-21.56904 5.16519,-0.73128 9.8905,2.21007 16.88029,10.50738 11.88846,14.11236 15.3467,14.01821 27.56287,-0.7504 l 8.42504,-10.18536 6.86438,0.92092 c 9.92086,1.33099 15.10942,3.866 17.54236,8.57078 2.14839,4.15452 4.62712,19.22404 4.70432,28.60002 l 0.0414,5.02947 h -42.9522 -42.9522 z"
     id="path25"
     transform="scale(0.75)" />
  <path
     style="fill:#d40000;stroke-width:1.34119"
     d="m 365.98642,462.03646 c -1.93157,-1.04969 -4.56612,-4.13004 -5.85455,-6.84521 -1.99102,-4.19575 -2.10295,-5.73657 -0.74584,-10.26623 2.34049,-7.81184 7.1624,-11.72004 14.46012,-11.72004 14.33314,0 21.89194,13.23378 14.2342,24.92096 -3.79072,5.78538 -14.99484,7.76846 -22.09393,3.91052 z"
     id="path26"
     transform="scale(0.75)" />
  <path
     style="fill:#d40000;stroke-width:1.34119"
     d="m 484.73384,462.51733 c -4.1708,-2.02381 -7.26953,-8.23233 -7.26953,-14.565 0,-4.61136 0.82323,-6.45048 4.56005,-10.1873 3.72075,-3.72075 5.58442,-4.56005 10.12554,-4.56005 3.06102,0 7.39368,0.94539 9.62812,2.10086 3.9007,2.01713 7.87489,8.78591 7.87489,13.41237 0,4.2039 -4.41622,11.44477 -8.1614,13.38147 -4.29225,2.21961 -12.61652,2.42708 -16.75767,0.41765 z"
     id="path27"
     transform="scale(0.75)" />
  <path
     style="fill:#d40000;stroke-width:1.34119"
     d="m 442.80996,528.65557 c 0.42138,-13.48457 0.72257,-14.87896 4.19675,-19.42927 4.6241,-6.05642 6.45922,-7.02294 15.5288,-8.17878 l 7.20087,-0.91768 10.08206,10.7969 c 7.42445,7.95087 10.96857,10.7969 13.44521,10.7969 2.45926,0 6.16976,-2.93384 13.80573,-10.91599 l 10.44256,-10.91599 5.78729,0.92542 c 7.1087,1.13673 12.6703,4.28044 16.39031,9.26468 2.38146,3.19079 2.89352,6.07284 3.27654,18.44139 l 0.45396,14.65956 h -50.53202 -50.53203 z"
     id="path28"
     transform="scale(0.75)" />
  <path
     style="fill:#d40000;stroke-width:1.34119"
     d="M 321.88605,236.04977 V 164.9666 h 110.64833 110.64833 v 71.08317 71.08317 H 432.53438 321.88605 Z m 44.74782,57.16318 c 8.88898,-3.71405 14.03216,-14.73537 11.70654,-25.08595 l -1.27129,-5.6581 17.00309,-19.81856 17.0031,-19.81857 7.69571,-0.097 7.69572,-0.097 8.21518,10.33795 c 12.6579,15.92862 12.53344,15.65765 12.13277,26.41629 -0.30253,8.12337 0.10911,10.24622 2.7454,14.1582 4.35746,6.46604 10.5948,9.7507 18.51588,9.7507 7.91193,0 14.12778,-3.26891 18.57835,-9.77036 2.88102,-4.20863 3.09771,-5.60085 2.42455,-15.57861 l -0.73922,-10.95695 7.74129,-11.17271 7.74129,-11.17272 7.6774,-0.83588 c 8.99327,-0.97914 13.26571,-4.21597 17.24177,-13.06248 6.48905,-14.43778 -3.69553,-29.69038 -19.82508,-29.69038 -7.7404,0 -14.52609,3.11219 -18.27984,8.38386 -3.43054,4.81774 -4.69825,15.22841 -2.59061,21.27441 1.43473,4.11563 1.09618,4.99555 -6.20854,16.13721 -7.41334,11.30734 -7.96654,11.82087 -13.66996,12.68946 -6.71762,1.02304 -5.5458,2.02022 -20.13308,-17.13266 l -7.83223,-10.2836 0.69643,-8.6761 c 0.59241,-7.3802 0.2333,-9.50014 -2.40425,-14.19303 -4.19873,-7.47063 -12.32536,-11.44923 -21.57137,-10.5608 -12.54896,1.20579 -19.00355,9.25779 -19.16152,23.9037 -0.11284,10.46133 0.40743,9.57669 -19.05415,32.39852 l -12.90264,15.13042 -7.96562,0.93434 c -14.49596,1.70033 -22.54097,9.38318 -22.54097,21.52627 0,8.94602 3.18533,15.10783 9.88646,19.12472 6.32918,3.79393 14.57269,4.36862 21.44944,1.49533 z m 21.30588,-80.10874 c 3.04513,-3.67718 2.96287,-5.94488 -0.3353,-9.24304 -2.48846,-2.48847 -4.47064,-2.68239 -27.41838,-2.68239 -24.04108,0 -24.79465,0.0837 -26.82384,2.98081 -7.05915,10.07835 2.29465,13.39667 34.79494,12.34373 15.73251,-0.5097 17.66474,-0.8417 19.78258,-3.39911 z M 377.0613,189.60998 c 3.25834,-2.94876 3.1767,-7.86838 -0.18638,-11.23146 -2.42692,-2.42692 -4.47064,-2.68238 -21.45907,-2.68238 -16.98843,0 -19.03215,0.25546 -21.45907,2.68238 -3.20317,3.20317 -3.40604,6.41714 -0.65316,10.34744 2.56678,3.66459 6.99671,4.28731 25.98688,3.65305 11.9245,-0.39828 15.82225,-1.00562 17.7708,-2.76903 z"
     id="path29"
     transform="scale(0.75)" />
  <path
     style="fill:#d40000;stroke-width:1.34119"
     d="m 416.74074,205.02199 c -5.09394,-2.85071 -1.29976,-11.68555 4.26054,-9.92077 2.85789,0.90706 4.87421,5.17251 3.49782,7.39954 -1.61468,2.61261 -5.39809,3.8421 -7.75836,2.52123 z"
     id="path30"
     transform="scale(0.75)" />
  <path
     style="fill:#d40000;stroke-width:1.34119"
     d="m 464.10586,264.94983 c -2.08501,-2.51229 -1.35675,-6.08445 1.62302,-7.96097 4.64709,-2.92652 9.88001,3.66803 6.31719,7.96097 -2.07162,2.49614 -5.86859,2.49614 -7.94021,0 z"
     id="path31"
     transform="scale(0.75)" />
  <path
     style="fill:#d40000;stroke-width:1.34119"
     d="m 504.28815,205.20236 c -3.0214,-5.64553 3.98754,-10.92689 8.03269,-6.05278 0.94933,1.14386 1.29444,3.43169 0.80927,5.36476 -1.0637,4.2381 -6.70701,4.67722 -8.84196,0.68802 z"
     id="path32"
     transform="scale(0.75)" />
  <path
     style="fill:#d40000;stroke-width:1.34119"
     d="m 352.41764,275.45738 c -1.40671,-3.08741 -1.23369,-3.80675 1.43549,-5.96812 3.49495,-2.83004 5.5684,-2.39394 8.13154,1.71031 1.61641,2.58828 1.48581,3.17753 -1.18333,5.33887 -4.13621,3.3493 -6.50422,3.04395 -8.3837,-1.08106 z"
     id="path33"
     transform="scale(0.75)" />
  <path
     style="fill:#d40000;stroke-width:1.34119"
     d="m 274.94434,348.01083 c -5.30676,-3.07865 -34.61046,-12.19332 -44.90886,-13.96851 -5.152,-0.88808 -9.82017,-2.32682 -10.3737,-3.1972 -0.55354,-0.87038 -1.01567,-6.23869 -1.02697,-11.92956 -0.0186,-9.35529 0.26871,-10.50614 2.99715,-12.00686 1.65972,-0.91289 6.42811,-1.59708 10.59642,-1.52042 10.79035,0.19845 23.20807,6.41873 33.84966,16.95594 8.68322,8.59804 12.02371,14.16871 13.59864,22.67739 1.01588,5.4883 0.32625,5.92391 -4.73234,2.98922 z"
     id="path34"
     transform="scale(0.75)" />
  <path
     style="fill:#d40000;stroke-width:1.34119"
     d="m 171.87761,354.22977 c -1.41263,-0.89525 -0.64583,-2.86556 3.51521,-9.03251 2.92707,-4.33813 8.09858,-12.74535 11.49225,-18.68273 6.2874,-11.00008 12.19407,-17.90472 13.87708,-16.22171 0.51432,0.51432 1.18973,6.2603 1.50091,12.76885 l 0.56577,11.83372 -4.5133,3.14516 c -2.48232,1.72984 -7.53099,5.66121 -11.21926,8.73637 -5.81059,4.84469 -11.59933,8.68576 -12.98845,8.61839 -0.23291,-0.0113 -1.2365,-0.53579 -2.23021,-1.16554 z"
     id="path35"
     transform="scale(0.75)" />
  <path
     style="fill:#d40000;stroke-width:1.34119"
     d="m 209.21968,242.07884 -10.01219,-10.07946 16.40737,-16.40736 16.40736,-16.40737 10.06559,10.06559 10.06558,10.06559 -16.46076,16.42123 -16.46076,16.42124 z"
     id="path36"
     transform="scale(0.75)" />
  <path
     style="fill:#d40000;stroke-width:1.34119"
     d="m 179.92887,270.50218 c -1.12219,-1.35215 0.49625,-3.6991 6.98719,-10.13235 7.51985,-7.45301 8.6442,-8.13576 10.2371,-6.21643 1.55576,1.87457 0.75866,3.1978 -6.10353,10.13235 -4.34113,4.38691 -8.29062,7.9762 -8.77663,7.9762 -0.48601,0 -1.54087,-0.79189 -2.34413,-1.75977 z"
     id="path37"
     transform="scale(0.75)" />
  <path
     style="fill:#d40000;stroke-width:1.34119"
     d="m 163.80202,212.11914 -19.27066,-8.92857 29.1958,-28.45495 c 16.0577,-15.65022 29.58535,-28.2142 30.06144,-27.91995 0.4761,0.29424 4.71216,9.06571 9.41346,19.49214 l 8.54781,18.95716 -17.97876,18.01584 c -9.88832,9.90872 -18.59069,17.95984 -19.33859,17.89138 -0.74791,-0.0685 -10.03163,-4.14234 -20.6305,-9.05305 z"
     id="path38"
     transform="scale(0.75)" />
  <path
     style="fill:#d40000;stroke-width:1.34119"
     d="m 156.2432,163.61626 c -0.45901,-0.74269 0.47617,-3.19111 2.07818,-5.44092 2.78671,-3.91357 3.02341,-3.99042 5.47039,-1.77593 2.5105,2.27197 2.5035,2.37227 -0.37934,5.44091 -3.12331,3.32462 -5.80199,3.98817 -7.16923,1.77594 z"
     id="path39"
     transform="scale(0.75)" />
  <path
     style="fill:#d40000;stroke-width:1.34119"
     d="m 321.88605,143.50753 v -4.02357 h 110.64833 110.64833 v 4.02357 4.02358 H 432.53438 321.88605 Z"
     id="path40"
     transform="scale(0.75)" />
</svg>
