<svg width="65" height="65" viewBox="0 0 65 65" fill="none" xmlns="http://www.w3.org/2000/svg">
<circle cx="32.5" cy="32.5" r="32.5" fill="#E51F33"/>
<path d="M37.0312 27.2292L37.2636 27.4615C39.0691 29.267 39.9719 30.1698 39.9719 31.2917C39.9719 32.4135 39.0691 33.3163 37.2636 35.1218L37.0312 35.3542" stroke="#F4F4F4" stroke-width="1.5" stroke-linecap="round"/>
<path d="M34.0439 24.7515L32.2915 31.2916L30.5391 37.8318" stroke="#F4F4F4" stroke-width="1.5" stroke-linecap="round"/>
<path d="M27.552 27.2292L27.3197 27.4615C25.5141 29.267 24.6113 30.1698 24.6113 31.2917C24.6113 32.4135 25.5141 33.3163 27.3197 35.1218L27.552 35.3542" stroke="#F4F4F4" stroke-width="1.5" stroke-linecap="round"/>
<path d="M25.5208 19.5616C27.5126 18.4094 29.8251 17.75 32.2917 17.75C39.7705 17.75 45.8333 23.8128 45.8333 31.2917C45.8333 38.7705 39.7705 44.8333 32.2917 44.8333C24.8128 44.8333 18.75 38.7705 18.75 31.2917C18.75 28.8251 19.4094 26.5126 20.5616 24.5208" stroke="#F4F4F4" stroke-width="1.5" stroke-linecap="round"/>
</svg>
