<?xml version="1.0" encoding="UTF-8" standalone="no"?>
<svg
   version="1.0"
   width="512.000000pt"
   height="512.000000pt"
   viewBox="0 0 512.000000 512.000000"
   preserveAspectRatio="xMidYMid meet"
   id="svg10"
   sodipodi:docname="исследование-рекламы.svg"
   inkscape:version="1.3.2 (091e20e, 2023-11-25, custom)"
   xmlns:inkscape="http://www.inkscape.org/namespaces/inkscape"
   xmlns:sodipodi="http://sodipodi.sourceforge.net/DTD/sodipodi-0.dtd"
   xmlns="http://www.w3.org/2000/svg"
   xmlns:svg="http://www.w3.org/2000/svg">
  <defs
     id="defs10" />
  <sodipodi:namedview
     id="namedview10"
     pagecolor="#ffffff"
     bordercolor="#000000"
     borderopacity="0.25"
     inkscape:showpageshadow="2"
     inkscape:pageopacity="0.0"
     inkscape:pagecheckerboard="0"
     inkscape:deskcolor="#d1d1d1"
     inkscape:document-units="pt"
     inkscape:zoom="0.74560547"
     inkscape:cx="341.33333"
     inkscape:cy="341.33333"
     inkscape:window-width="1366"
     inkscape:window-height="705"
     inkscape:window-x="-8"
     inkscape:window-y="-8"
     inkscape:window-maximized="1"
     inkscape:current-layer="svg10" />
  <g
     transform="translate(0.000000,512.000000) scale(0.100000,-0.100000)"
     fill="#000000"
     stroke="none"
     id="g10">
    <path
       d="M2335 5109 c-1139 -99 -2082 -958 -2290 -2086 -133 -721 46 -1450 503 -2043 150 -195 431 -447 662 -594 98 -63 349 -185 474 -231 292 -108 650 -164 966 -151 536 21 1026 196 1460 519 122 92 395 365 487 487 150 201 285 449 368 674 117 317 171 703 147 1038 -26 363 -101 646 -257 963 -123 252 -265 453 -460 654 -540 556 -1290 836 -2060 770z m1493 -921 c9 -9 12 -108 12 -385 l0 -373 153 0 c106 0 157 -4 165 -12 9 -9 12 -217 12 -874 0 -771 -2 -864 -16 -878 -14 -14 -81 -16 -585 -16 l-569 0 0 -185 0 -184 320 -3 c245 -2 322 -6 332 -16 19 -19 18 -302 -1 -325 -12 -16 -99 -17 -1062 -17 l-1048 0 -15 22 c-13 18 -16 52 -16 160 0 125 2 140 20 158 19 19 33 20 335 20 l315 0 0 185 0 185 -599 0 c-532 0 -601 2 -615 16 -14 14 -16 107 -16 878 0 657 3 865 12 874 8 8 59 12 165 12 l153 0 0 373 c0 277 3 376 12 385 17 17 2519 17 2536 0z"
       id="path1" />
    <path
       d="M1370 3090 l0 -1020 1190 0 1190 0 0 1020 0 1020 -1190 0 -1190 0 0 -1020z m1843 718 c14 -11 17 -38 19 -198 l3 -185 104 -3 c58 -1 111 -8 118 -14 10 -8 13 -53 13 -184 0 -144 -3 -175 -16 -188 -12 -13 -38 -16 -120 -16 l-104 0 0 -183 c0 -189 -4 -207 -41 -207 -10 0 -174 49 -366 110 -191 60 -365 110 -385 110 l-38 0 0 -227 c0 -197 -2 -229 -17 -245 -14 -16 -33 -18 -163 -18 -100 0 -150 4 -158 12 -9 9 -12 77 -12 245 l0 233 -50 0 c-45 0 -52 3 -60 26 -6 14 -10 36 -10 50 l0 24 -128 0 c-86 0 -132 4 -140 12 -15 15 -17 430 -2 459 10 17 22 19 140 19 l130 0 0 60 c0 102 -7 100 303 100 l263 0 344 109 c190 60 348 110 351 110 3 1 13 -5 22 -11z"
       id="path2" />
    <path
       d="M2832 3611 l-302 -95 2 -295 3 -295 298 -94 c165 -51 301 -92 303 -89 2 2 3 220 2 483 l-3 479 -303 -94z"
       id="path3" />
    <path
       d="M2020 3220 l0 -280 210 0 210 0 0 280 0 280 -210 0 -210 0 0 -280z"
       id="path4" />
    <path
       d="M1740 3195 l0 -155 95 0 95 0 0 155 0 155 -95 0 -95 0 0 -155z"
       id="path5" />
    <path
       d="M3230 3220 l0 -110 75 0 75 0 0 110 0 110 -75 0 -75 0 0 -110z"
       id="path6" />
    <path
       d="M2140 2650 l0 -200 85 0 85 0 0 200 0 200 -85 0 -85 0 0 -200z"
       id="path7" />
    <path
       d="M1040 2540 l0 -800 1520 0 1520 0 0 800 0 800 -120 0 -120 0 0 -668 c0 -506 -3 -671 -12 -680 -17 -17 -2519 -17 -2536 0 -9 9 -12 174 -12 680 l0 668 -120 0 -120 0 0 -800z"
       id="path8" />
    <path
       d="M2270 1465 l0 -185 320 0 320 0 0 185 0 185 -320 0 -320 0 0 -185z"
       id="path9" />
    <path
       d="M1600 1095 l0 -85 985 0 985 0 0 85 0 85 -985 0 -985 0 0 -85z"
       id="path10" />
  </g>
  <path
     style="fill:#d40000;stroke-width:1.34119"
     d="m 313.1683,680.5475 c -2.21296,-0.29767 -9.4554,-1.19865 -16.0943,-2.00216 -18.36031,-2.22216 -47.42377,-8.87046 -64.84405,-14.83317 -19.05964,-6.52383 -57.96419,-25.23379 -72.9856,-35.10018 C 143.74266,618.43013 129.82862,607.47964 111.21386,590.81147 50.85263,536.7624 11.55344,458.48776 2.5957149,374.46996 0.57085539,355.47805 1.6868915,310.2489 4.6378481,291.70923 10.27456,256.29605 21.188322,222.2626 37.109649,190.44925 55.432759,153.83675 72.805276,129.74171 101.93058,100.54501 152.83344,49.517369 218.57092,16.043416 290.36804,4.5914074 308.5277,1.6948501 355.28802,0.58443779 374.48045,2.5939996 469.82228,12.576864 555.27841,60.762508 612.96419,137.06642 c 25.87466,34.22572 47.23967,78.18325 57.7307,118.77822 7.80169,30.18858 9.77783,47.03031 9.87354,84.1475 0.0907,35.1803 -0.76047,44.3228 -6.86763,73.76555 -9.88615,47.66142 -35.1793,101.03405 -65.78328,138.81336 -10.18498,12.57294 -49.14828,50.96543 -60.42477,59.53956 -32.60982,24.79505 -74.99796,45.81702 -114.22621,56.64933 -31.10149,8.58823 -51.9124,11.47827 -85.89784,11.92879 -16.59725,0.22001 -31.98743,0.15646 -34.2004,-0.14123 z M 487.00393,558.32151 c 1.97827,-1.97886 3.26293,-26.50831 1.942,-37.08071 -0.66043,-5.28593 -1.58338,-7.62902 -3.1879,-8.0932 -1.2421,-0.35931 -20.8171,-1.07349 -43.50001,-1.58703 l -41.24165,-0.93371 V 486.66903 462.7112 l 75.44205,-0.0205 c 45.18124,-0.0123 76.24899,-0.53046 77.45383,-1.29182 1.75646,-1.10993 2.05724,-15.10718 2.36988,-110.29248 0.19696,-59.96167 -0.10674,-112.64244 -0.67489,-117.06838 l -1.03299,-8.04715 -21.11949,-0.36935 -21.11946,-0.36936 -0.0205,-49.25474 c -0.012,-28.69571 -0.55136,-50.09447 -1.29227,-51.26654 -1.11942,-1.77082 -21.44413,-2.01178 -169.68916,-2.01178 -148.24502,0 -168.56974,0.24096 -169.68915,2.01178 -0.74091,1.17207 -1.28031,22.57083 -1.29228,51.26654 l -0.0205,49.25474 -21.11947,0.36936 -21.11948,0.36935 -1.03299,8.04715 c -0.56815,4.42594 -0.87185,57.10671 -0.6749,117.06838 0.31266,95.1853 0.61342,109.18255 2.36989,110.29248 1.208,0.76337 33.76125,1.27949 81.47741,1.29182 l 79.46562,0.0205 v 24.14145 24.14146 l -36.54748,0.0799 c -38.07083,0.0833 -48.75671,0.94394 -50.74711,4.08719 -1.79911,2.8412 -1.50361,38.01127 0.35363,42.08748 l 1.5777,3.46269 140.52207,-0.38191 c 107.88108,-0.29318 140.89966,-0.75961 142.14767,-2.00799 z"
     id="path11"
     transform="scale(0.75)" />
  <path
     style="fill:#d40000;stroke-width:1.34119"
     d="M 139.48396,344.01572 V 237.39096 h 15.4237 15.42371 v 88.26232 c 0,74.11062 0.30523,88.67976 1.90367,90.86575 1.86679,2.55299 5.14005,2.60343 168.92312,2.60343 135.227,0 167.35133,-0.33178 168.76299,-1.74301 1.38816,-1.38775 1.81759,-19.90871 2.10676,-90.86576 l 0.36322,-89.12273 h 15.39578 15.3958 V 344.01572 450.64047 H 341.33333 139.48396 Z"
     id="path12"
     transform="scale(0.75)" />
  <path
     style="fill:#d40000;stroke-width:1.34119"
     d="m 214.5907,536.47675 v -10.72953 h 130.09561 130.09562 v 10.72953 10.72954 H 344.68631 214.5907 Z"
     id="path13"
     transform="scale(0.75)" />
  <path
     style="fill:#d40000;stroke-width:1.34119"
     d="M 303.10936,486.85265 V 462.7112 h 42.24755 42.24754 v 24.14145 24.14146 h -42.24754 -42.24755 z"
     id="path14"
     transform="scale(0.75)" />
  <path
     style="fill:#d40000;stroke-width:1.34119"
     d="M 183.74329,270.92076 V 135.46038 H 341.33333 498.92338 V 270.92076 406.38114 H 341.33333 183.74329 Z m 134.39127,95.49552 c 1.29974,-1.30064 1.84252,-9.56624 2.14623,-32.68394 l 0.40653,-30.94302 5.24762,0.83913 c 4.88956,0.78187 16.02492,4.04488 76.25868,22.34628 17.30258,5.2572 23.86743,6.73007 25.48264,5.71722 2.71259,-1.701 3.84647,-11.31828 4.04197,-34.28265 l 0.14556,-17.1002 h 13.31611 c 10.31731,0 13.79075,-0.47463 15.42371,-2.10759 1.75832,-1.7583 2.10759,-6.06876 2.10759,-26.00974 0,-21.40448 -0.24202,-23.99503 -2.316,-24.79089 -1.27378,-0.48881 -8.21445,-1.24808 -15.42371,-1.68729 l -13.1077,-0.79856 -0.0994,-18.90938 c -0.11712,-22.27579 -1.1231,-30.19953 -4.06933,-32.0524 -1.61439,-1.01529 -14.09681,2.40757 -49.6241,13.60763 l -47.46715,14.96413 -33.13139,-0.003 c -21.63623,-0.002 -34.27719,0.51954 -36.43381,1.50216 -3.79166,1.7276 -4.82688,4.62545 -4.85264,13.58373 l -0.0183,6.37066 h -17.292 c -14.53081,0 -17.422,0.33876 -18.10609,2.12148 -1.62463,4.23371 -0.90543,60.28673 0.79534,61.9875 1.07667,1.07666 7.0501,1.60943 18.04532,1.60943 h 16.43588 l 0.90625,5.02947 c 1.27435,7.07233 2.74951,8.38244 9.43846,8.38244 h 5.87114 l 0.01,23.13556 c 0.005,12.72456 0.3913,27.17747 0.8579,32.11759 1.0149,10.7451 -0.26494,10.24544 25.5579,9.97803 12.51888,-0.12964 18.21735,-0.69349 19.44727,-1.92426 z"
     id="path15"
     transform="scale(0.75)" />
  <path
     style="fill:#d40000;stroke-width:1.34119"
     d="m 285.67387,329.26261 v -26.15325 h 10.72954 10.72953 v 26.15325 26.15324 h -10.72953 -10.72954 z"
     id="path16"
     transform="scale(0.75)" />
  <path
     style="fill:#d40000;stroke-width:1.34119"
     d="m 376.37346,303.81701 c -19.82368,-6.17817 -36.5814,-11.77138 -37.23938,-12.42936 -0.66183,-0.66183 -1.03701,-18.16846 -0.83973,-39.18298 l 0.3566,-37.98664 35.54158,-11.15537 c 19.54788,-6.13544 37.20131,-11.53137 39.22987,-11.99095 l 3.68827,-0.83559 v 62.47198 c 0,58.62778 -0.14442,62.46799 -2.34708,62.40697 -1.2909,-0.0358 -18.56646,-5.11989 -38.39013,-11.29806 z"
     id="path17"
     transform="scale(0.75)" />
  <path
     style="fill:#d40000;stroke-width:1.34119"
     d="m 268.82675,253.48527 c 0,-20.28553 0.18641,-28.58416 0.41425,-18.44139 0.22785,10.14276 0.22785,26.74001 0,36.88277 -0.22784,10.14277 -0.41425,1.84414 -0.41425,-18.44138 z"
     id="path18"
     transform="scale(0.75)" />
  <path
     style="fill:#d40000;stroke-width:1.34119"
     d="m 269.57957,253.48527 v -36.21219 h 27.49443 27.49443 v 36.21219 36.21218 H 297.074 269.57957 Z"
     id="path19"
     transform="scale(0.75)" />
  <path
     style="fill:#d40000;stroke-width:1.34119"
     d="m 232.0262,256.16765 v -20.11788 h 12.07072 12.07073 v 20.11788 20.11788 H 244.09692 232.0262 Z"
     id="path20"
     transform="scale(0.75)" />
  <path
     style="fill:#d40000;stroke-width:1.34119"
     d="m 431.86379,252.81467 v -14.08252 h 9.38834 9.38834 v 14.08252 14.08251 h -9.38834 -9.38834 z"
     id="path21"
     transform="scale(0.75)" />
</svg>
