<svg width="65" height="65" viewBox="0 0 65 65" fill="none" xmlns="http://www.w3.org/2000/svg">
<circle cx="32.5" cy="32.5" r="32.5" fill="#E51F33"/>
<path d="M38.7193 21.7393L38.2176 22.2968V22.2968L38.7193 21.7393ZM44.0801 26.5641L43.5784 27.1215L44.0801 26.5641ZM47.1978 30.0003L46.5127 30.3054V30.3054L47.1978 30.0003ZM22.1695 44.4551L22.6998 43.9248L22.6998 43.9248L22.1695 44.4551ZM46.0798 44.4551L45.5495 43.9248L45.5495 43.9248L46.0798 44.4551ZM36.833 45.2916H31.4163V46.7916H36.833V45.2916ZM21.333 35.2083V29.7916H19.833V35.2083H21.333ZM46.9163 34.6164V35.2083H48.4163V34.6164H46.9163ZM38.2176 22.2968L43.5784 27.1215L44.5818 26.0066L39.221 21.1818L38.2176 22.2968ZM48.4163 34.6164C48.4163 32.3066 48.4315 30.9269 47.8829 29.6952L46.5127 30.3054C46.9012 31.1778 46.9163 32.1741 46.9163 34.6164H48.4163ZM43.5784 27.1215C45.3937 28.7553 46.1241 29.4331 46.5127 30.3054L47.8829 29.6952C47.3344 28.4635 46.2987 27.5517 44.5818 26.0066L43.5784 27.1215ZM31.4567 19.7083C33.5786 19.7083 34.4456 19.7199 35.2226 20.0181L35.76 18.6177C34.6631 18.1967 33.465 18.2083 31.4567 18.2083V19.7083ZM39.221 21.1818C37.7356 19.8449 36.8568 19.0385 35.76 18.6177L35.2226 20.0181C35.9998 20.3163 36.6484 20.8845 38.2176 22.2968L39.221 21.1818ZM31.4163 45.2916C28.8417 45.2916 26.9862 45.2901 25.5727 45.1C24.1809 44.9129 23.3305 44.5555 22.6998 43.9248L21.6392 44.9855C22.595 45.9413 23.8146 46.3771 25.3728 46.5866C26.9095 46.7932 28.8841 46.7916 31.4163 46.7916V45.2916ZM19.833 35.2083C19.833 37.7406 19.8314 39.7152 20.038 41.2518C20.2475 42.81 20.6834 44.0296 21.6392 44.9855L22.6998 43.9248C22.0692 43.2941 21.7118 42.4438 21.5246 41.0519C21.3346 39.6385 21.333 37.783 21.333 35.2083H19.833ZM36.833 46.7916C39.3652 46.7916 41.3399 46.7932 42.8765 46.5866C44.4347 46.3771 45.6543 45.9413 46.6102 44.9855L45.5495 43.9248C44.9188 44.5555 44.0685 44.9129 42.6766 45.1C41.2632 45.2901 39.4077 45.2916 36.833 45.2916V46.7916ZM46.9163 35.2083C46.9163 37.783 46.9147 39.6385 46.7247 41.0519C46.5376 42.4438 46.1802 43.2941 45.5495 43.9248L46.6102 44.9855C47.566 44.0296 48.0018 42.81 48.2113 41.2518C48.4179 39.7152 48.4163 37.7406 48.4163 35.2083H46.9163ZM21.333 29.7916C21.333 27.217 21.3346 25.3615 21.5246 23.948C21.7118 22.5562 22.0692 21.7058 22.6998 21.0751L21.6392 20.0145C20.6834 20.9703 20.2475 22.19 20.038 23.7482C19.8314 25.2848 19.833 27.2594 19.833 29.7916H21.333ZM31.4567 18.2083C28.9109 18.2083 26.9265 18.2067 25.3834 18.4133C23.8193 18.6226 22.5956 19.0581 21.6392 20.0145L22.6998 21.0751C23.3299 20.4451 24.1829 20.0873 25.5824 19.9C27.0028 19.7099 28.8687 19.7083 31.4567 19.7083V18.2083Z" fill="white"/>
<path d="M35.4795 19.6354V23.0209C35.4795 26.2127 35.4795 27.8086 36.4711 28.8001C37.4626 29.7917 39.0585 29.7917 42.2503 29.7917H47.667" stroke="white" stroke-width="1.5"/>
<path d="M26 38.5937L27.8056 40.625L31.4167 36.5625" stroke="white" stroke-width="1.5" stroke-linecap="round" stroke-linejoin="round"/>
</svg>
