<svg width="484" height="179" viewBox="0 0 484 179" fill="none" xmlns="http://www.w3.org/2000/svg">
<g filter="url(#filter0_d_167_314)">
<path d="M416.181 30.778H67.8185C55.2162 30.778 45 39.414 45 50.0671V98.9328C45 109.586 55.2162 118.222 67.8185 118.222H416.181C428.784 118.222 439 109.586 439 98.9328V50.0671C439 39.414 428.784 30.778 416.181 30.778Z" fill="white"/>
</g>
<path d="M123.853 54.433H105.605C100.3 54.433 96 59.1878 96 65.0533V85.2318C96 91.0973 100.3 95.8521 105.605 95.8521H123.853C129.158 95.8521 133.458 91.0973 133.458 85.2318V65.0533C133.458 59.1878 129.158 54.433 123.853 54.433Z" fill="url(#paint0_linear_167_314)"/>
<path d="M114.729 65.5843V86.2939" stroke="white" stroke-width="3" stroke-linecap="round"/>
<path d="M123.373 75.1426H106.085" stroke="white" stroke-width="3" stroke-linecap="round"/>
<defs>
<filter id="filter0_d_167_314" x="0" y="0.778015" width="484" height="177.444" filterUnits="userSpaceOnUse" color-interpolation-filters="sRGB">
<feFlood flood-opacity="0" result="BackgroundImageFix"/>
<feColorMatrix in="SourceAlpha" type="matrix" values="0 0 0 0 0 0 0 0 0 0 0 0 0 0 0 0 0 0 127 0" result="hardAlpha"/>
<feOffset dy="15"/>
<feGaussianBlur stdDeviation="22.5"/>
<feColorMatrix type="matrix" values="0 0 0 0 0.301961 0 0 0 0 0.243137 0 0 0 0 0.243137 0 0 0 0.29 0"/>
<feBlend mode="normal" in2="BackgroundImageFix" result="effect1_dropShadow_167_314"/>
<feBlend mode="normal" in="SourceGraphic" in2="effect1_dropShadow_167_314" result="shape"/>
</filter>
<linearGradient id="paint0_linear_167_314" x1="114.729" y1="54.433" x2="114.729" y2="95.8521" gradientUnits="userSpaceOnUse">
<stop stop-color="#E63946"/>
<stop offset="1" stop-color="#FF8591"/>
</linearGradient>
</defs>
</svg>
