<?xml version="1.0" encoding="UTF-8"?>
<svg id="Layer_1" data-name="Layer 1" xmlns="http://www.w3.org/2000/svg" xmlns:xlink="http://www.w3.org/1999/xlink" viewBox="0 0 45 44.4">
  <defs>
    <style>
      .cls-1 {
        fill: none;
      }

      .cls-2 {
        clip-path: url(#clippath);
      }

      .cls-3, .cls-4 {
        fill: #f4f4f4;
      }

      .cls-5 {
        fill: #e51f33;
      }

      .cls-6 {
        clip-path: url(#clippath-1);
      }

      .cls-7 {
        clip-path: url(#clippath-2);
      }

      .cls-4 {
        fill-rule: evenodd;
      }
    </style>
    <clipPath id="clippath">
      <rect class="cls-1" x="15.6" y="12" width="17.64" height="20.64"/>
    </clipPath>
    <clipPath id="clippath-1">
      <rect class="cls-1" x="15.6" y="12" width="17.64" height="20.64"/>
    </clipPath>
    <clipPath id="clippath-2">
      <rect class="cls-1" x="15.75" y="12.15" width="17.41" height="20.42"/>
    </clipPath>
  </defs>
  <ellipse class="cls-5" cx="22.86" cy="22.2" rx="22.14" ry="22.2"/>
  <g class="cls-2">
    <g class="cls-6">
      <g class="cls-7">
        <path class="cls-4" d="M26.77,14.85c0,.17-.13,.3-.3,.3h-6.49c-.17,0-.3-.13-.3-.3v-1.5c0-.17,.14-.3,.3-.3h6.49c.17,0,.3,.14,.3,.3v1.5Zm2.45-1.2h-1.55v-.3c0-.66-.54-1.2-1.2-1.2h-6.49c-.66,0-1.2,.54-1.2,1.2v.3h-1.55c-.8,0-1.45,.65-1.45,1.45v13.54c0,.39,.15,.75,.42,1.03,.27,.27,.64,.43,1.02,.43h5.77c.25,0,.45-.2,.45-.45s-.2-.45-.45-.45h-5.77c-.14,0-.29-.06-.39-.16-.1-.1-.16-.24-.16-.39V15.1c0-.31,.25-.55,.55-.55h1.55v.3c0,.66,.54,1.2,1.2,1.2h6.49c.66,0,1.2-.54,1.2-1.2v-.3h1.55c.3,0,.55,.25,.55,.55v7.02c0,.25,.2,.45,.45,.45s.45-.2,.45-.45v-7.02c0-.8-.65-1.45-1.45-1.45Zm-1,4.51h-6c-.25,0-.45,.2-.45,.45s.2,.45,.45,.45h6c.25,0,.45-.2,.45-.45s-.2-.45-.45-.45Zm-3,4.01h-3c-.25,0-.45,.2-.45,.45s.2,.45,.45,.45h3c.25,0,.45-.2,.45-.45s-.2-.45-.45-.45Zm2.01,6.41s.09,.04,.14,.05c-.05-.01-.09-.03-.14-.05Zm.23,.06s-.07,0-.1,0c.04,0,.09,.01,.13,0h-.04Zm1.94-2.57c-.02-.12-.08-.22-.17-.29-.08-.06-.17-.09-.27-.09h-.02c-.13,0-.26,.07-.34,.18l-1.15,1.54-.04,.05-.04-.04-.59-.59c-.08-.08-.2-.13-.32-.13s-.23,.05-.31,.13c-.17,.17-.17,.46,0,.63l1,1c.08,.08,.2,.13,.31,.13h.03c.13,0,.25-.07,.33-.18l1.5-2.01c.07-.09,.1-.21,.08-.33Zm-2.18,2.51s.09,.04,.14,.05c-.05-.01-.09-.03-.14-.05Zm.23,.06s-.07,0-.1,0c.04,0,.09,.01,.13,0h-.04Zm1.94-2.57c-.02-.12-.08-.22-.17-.29-.08-.06-.17-.09-.27-.09h-.02c-.13,0-.26,.07-.34,.18l-1.15,1.54-.04,.05-.04-.04-.59-.59c-.08-.08-.2-.13-.32-.13s-.23,.05-.31,.13c-.17,.17-.17,.46,0,.63l1,1c.08,.08,.2,.13,.31,.13h.03c.13,0,.25-.07,.33-.18l1.5-2.01c.07-.09,.1-.21,.08-.33Zm-2.18,2.51s.09,.04,.14,.05c-.05-.01-.09-.03-.14-.05Zm.23,.06s-.07,0-.1,0c.04,0,.09,.01,.13,0h-.04Zm1.94-2.57c-.02-.12-.08-.22-.17-.29-.08-.06-.17-.09-.27-.09h-.02c-.13,0-.26,.07-.34,.18l-1.15,1.54-.04,.05-.04-.04-.59-.59c-.08-.08-.2-.13-.32-.13s-.23,.05-.31,.13c-.17,.17-.17,.46,0,.63l1,1c.08,.08,.2,.13,.31,.13h.03c.13,0,.25-.07,.33-.18l1.5-2.01c.07-.09,.1-.21,.08-.33Zm-2.18,2.51s.09,.04,.14,.05c-.05-.01-.09-.03-.14-.05Zm.23,.06s-.07,0-.1,0c.04,0,.09,.01,.13,0h-.04Zm1.94-2.57c-.02-.12-.08-.22-.17-.29-.08-.06-.17-.09-.27-.09h-.02c-.13,0-.26,.07-.34,.18l-1.15,1.54-.04,.05-.04-.04-.59-.59c-.08-.08-.2-.13-.32-.13s-.23,.05-.31,.13c-.17,.17-.17,.46,0,.63l1,1c.08,.08,.2,.13,.31,.13h.03c.13,0,.25-.07,.33-.18l1.5-2.01c.07-.09,.1-.21,.08-.33Zm-2.18,2.51s.09,.04,.14,.05c-.05-.01-.09-.03-.14-.05Zm.23,.06s-.07,0-.1,0c.04,0,.09,.01,.13,0h-.04Zm1.94-2.57c-.02-.12-.08-.22-.17-.29-.08-.06-.17-.09-.27-.09h-.02c-.13,0-.26,.07-.34,.18l-1.15,1.54-.04,.05-.04-.04-.59-.59c-.08-.08-.2-.13-.32-.13s-.23,.05-.31,.13c-.17,.17-.17,.46,0,.63l1,1c.08,.08,.2,.13,.31,.13h.03c.13,0,.25-.07,.33-.18l1.5-2.01c.07-.09,.1-.21,.08-.33Zm0,0c-.02-.12-.08-.22-.17-.29-.08-.06-.17-.09-.27-.09h-.02c-.13,0-.26,.07-.34,.18l-1.15,1.54-.04,.05-.04-.04-.59-.59c-.08-.08-.2-.13-.32-.13s-.23,.05-.31,.13c-.17,.17-.17,.46,0,.63l1,1c.08,.08,.2,.13,.31,.13h.03c.13,0,.25-.07,.33-.18l1.5-2.01c.07-.09,.1-.21,.08-.33Zm-1.94,2.57s-.07,0-.1,0c.04,0,.09,.01,.13,0h-.04Zm-.23-.06s.09,.04,.14,.05c-.05-.01-.09-.03-.14-.05Zm0,0s.09,.04,.14,.05c-.05-.01-.09-.03-.14-.05Zm.23,.06s-.07,0-.1,0c.04,0,.09,.01,.13,0h-.04Zm1.94-2.57c-.02-.12-.08-.22-.17-.29-.08-.06-.17-.09-.27-.09h-.02c-.13,0-.26,.07-.34,.18l-1.15,1.54-.04,.05-.04-.04-.59-.59c-.08-.08-.2-.13-.32-.13s-.23,.05-.31,.13c-.17,.17-.17,.46,0,.63l1,1c.08,.08,.2,.13,.31,.13h.03c.13,0,.25-.07,.33-.18l1.5-2.01c.07-.09,.1-.21,.08-.33Zm0,0c-.02-.12-.08-.22-.17-.29-.08-.06-.17-.09-.27-.09h-.02c-.13,0-.26,.07-.34,.18l-1.15,1.54-.04,.05-.04-.04-.59-.59c-.08-.08-.2-.13-.32-.13s-.23,.05-.31,.13c-.17,.17-.17,.46,0,.63l1,1c.08,.08,.2,.13,.31,.13h.03c.13,0,.25-.07,.33-.18l1.5-2.01c.07-.09,.1-.21,.08-.33Zm-1.94,2.57s-.07,0-.1,0c.04,0,.09,.01,.13,0h-.04Zm-.23-.06s.09,.04,.14,.05c-.05-.01-.09-.03-.14-.05Zm0,0s.09,.04,.14,.05c-.05-.01-.09-.03-.14-.05Zm.23,.06s-.07,0-.1,0c.04,0,.09,.01,.13,0h-.04Zm1.94-2.57c-.02-.12-.08-.22-.17-.29-.08-.06-.17-.09-.27-.09h-.02c-.13,0-.26,.07-.34,.18l-1.15,1.54-.04,.05-.04-.04-.59-.59c-.08-.08-.2-.13-.32-.13s-.23,.05-.31,.13c-.17,.17-.17,.46,0,.63l1,1c.08,.08,.2,.13,.31,.13h.03c.13,0,.25-.07,.33-.18l1.5-2.01c.07-.09,.1-.21,.08-.33Zm0,0c-.02-.12-.08-.22-.17-.29-.08-.06-.17-.09-.27-.09h-.02c-.13,0-.26,.07-.34,.18l-1.15,1.54-.04,.05-.04-.04-.59-.59c-.08-.08-.2-.13-.32-.13s-.23,.05-.31,.13c-.17,.17-.17,.46,0,.63l1,1c.08,.08,.2,.13,.31,.13h.03c.13,0,.25-.07,.33-.18l1.5-2.01c.07-.09,.1-.21,.08-.33Zm-1.94,2.57s-.07,0-.1,0c.04,0,.09,.01,.13,0h-.04Zm-.23-.06s.09,.04,.14,.05c-.05-.01-.09-.03-.14-.05Zm0,0s.09,.04,.14,.05c-.05-.01-.09-.03-.14-.05Zm.23,.06s-.07,0-.1,0c.04,0,.09,.01,.13,0h-.04Zm1.94-2.57c-.02-.12-.08-.22-.17-.29-.08-.06-.17-.09-.27-.09h-.02c-.13,0-.26,.07-.34,.18l-1.15,1.54-.04,.05-.04-.04-.59-.59c-.08-.08-.2-.13-.32-.13s-.23,.05-.31,.13c-.17,.17-.17,.46,0,.63l1,1c.08,.08,.2,.13,.31,.13h.03c.13,0,.25-.07,.33-.18l1.5-2.01c.07-.09,.1-.21,.08-.33Zm0,0c-.02-.12-.08-.22-.17-.29-.08-.06-.17-.09-.27-.09h-.02c-.13,0-.26,.07-.34,.18l-1.15,1.54-.04,.05-.04-.04-.59-.59c-.08-.08-.2-.13-.32-.13s-.23,.05-.31,.13c-.17,.17-.17,.46,0,.63l1,1c.08,.08,.2,.13,.31,.13h.03c.13,0,.25-.07,.33-.18l1.5-2.01c.07-.09,.1-.21,.08-.33Zm-1.94,2.57s-.07,0-.1,0c.04,0,.09,.01,.13,0h-.04Zm-.23-.06s.09,.04,.14,.05c-.05-.01-.09-.03-.14-.05Zm0,0s.09,.04,.14,.05c-.05-.01-.09-.03-.14-.05Zm.23,.06s-.07,0-.1,0c.04,0,.09,.01,.13,0h-.04Zm1.94-2.57c-.02-.12-.08-.22-.17-.29-.08-.06-.17-.09-.27-.09h-.02c-.13,0-.26,.07-.34,.18l-1.15,1.54-.04,.05-.04-.04-.59-.59c-.08-.08-.2-.13-.32-.13s-.23,.05-.31,.13c-.17,.17-.17,.46,0,.63l1,1c.08,.08,.2,.13,.31,.13h.03c.13,0,.25-.07,.33-.18l1.5-2.01c.07-.09,.1-.21,.08-.33Zm0,0c-.02-.12-.08-.22-.17-.29-.08-.06-.17-.09-.27-.09h-.02c-.13,0-.26,.07-.34,.18l-1.15,1.54-.04,.05-.04-.04-.59-.59c-.08-.08-.2-.13-.32-.13s-.23,.05-.31,.13c-.17,.17-.17,.46,0,.63l1,1c.08,.08,.2,.13,.31,.13h.03c.13,0,.25-.07,.33-.18l1.5-2.01c.07-.09,.1-.21,.08-.33Zm-1.94,2.57s-.07,0-.1,0c.04,0,.09,.01,.13,0h-.04Zm-.23-.06s.09,.04,.14,.05c-.05-.01-.09-.03-.14-.05Zm0,0s.09,.04,.14,.05c-.05-.01-.09-.03-.14-.05Zm.23,.06s-.07,0-.1,0c.04,0,.09,.01,.13,0h-.04Zm1.94-2.57c-.02-.12-.08-.22-.17-.29-.08-.06-.17-.09-.27-.09h-.02c-.13,0-.26,.07-.34,.18l-1.15,1.54-.04,.05-.04-.04-.59-.59c-.08-.08-.2-.13-.32-.13s-.23,.05-.31,.13c-.17,.17-.17,.46,0,.63l1,1c.08,.08,.2,.13,.31,.13h.03c.13,0,.25-.07,.33-.18l1.5-2.01c.07-.09,.1-.21,.08-.33Zm0,0c-.02-.12-.08-.22-.17-.29-.08-.06-.17-.09-.27-.09h-.02c-.13,0-.26,.07-.34,.18l-1.15,1.54-.04,.05-.04-.04-.59-.59c-.08-.08-.2-.13-.32-.13s-.23,.05-.31,.13c-.17,.17-.17,.46,0,.63l1,1c.08,.08,.2,.13,.31,.13h.03c.13,0,.25-.07,.33-.18l1.5-2.01c.07-.09,.1-.21,.08-.33Zm-1.94,2.57s-.07,0-.1,0c.04,0,.09,.01,.13,0h-.04Zm-.23-.06s.09,.04,.14,.05c-.05-.01-.09-.03-.14-.05Zm.14,.05s-.09-.03-.14-.05c.04,.02,.09,.04,.14,.05Zm0,0s.09,.01,.13,0h-.04s-.07,0-.1,0Zm1.87-2.86c-.08-.06-.17-.09-.27-.09h-.02c-.13,0-.26,.07-.34,.18l-1.15,1.54-.04,.05-.04-.04-.59-.59c-.08-.08-.2-.13-.32-.13s-.23,.05-.31,.13c-.17,.17-.17,.46,0,.63l1,1c.08,.08,.2,.13,.31,.13h.03c.13,0,.25-.07,.33-.18l1.5-2.01c.07-.09,.1-.21,.08-.33-.02-.12-.08-.22-.17-.29Zm2.84,5.74c-.1,.11-.24,.16-.39,.16s-.29-.06-.39-.16l-1.16-1.17-.04-.04,.05-.04c.26-.2,.5-.44,.7-.7l.04-.05,.04,.04,1.16,1.17c.22,.21,.22,.57,0,.78Zm-4.36-1.31c-1.68,0-3.05-1.37-3.05-3.06s1.37-3.06,3.05-3.06,3.05,1.37,3.05,3.06-1.37,3.06-3.05,3.06Zm4.99-.1l-1.35-1.35-.03-.03v-.03c.22-.49,.33-1.01,.33-1.55,0-2.18-1.77-3.96-3.94-3.96s-3.95,1.78-3.95,3.96c0,2.18,1.77,3.96,3.95,3.96,.54,0,1.05-.11,1.54-.31h.03s.03,.01,.03,.01l1.35,1.35c.27,.27,.64,.43,1.02,.43s.75-.15,1.02-.43c.27-.27,.42-.64,.42-1.03s-.15-.75-.42-1.03Zm-5.34-1.46s-.09-.03-.14-.05c.04,.02,.09,.04,.14,.05Zm0,0s.09,.01,.13,0h-.04s-.07,0-.1,0Zm2.04-2.56c-.02-.12-.08-.22-.17-.29-.08-.06-.17-.09-.27-.09h-.02c-.13,0-.26,.07-.34,.18l-1.15,1.54-.04,.05-.04-.04-.59-.59c-.08-.08-.2-.13-.32-.13s-.23,.05-.31,.13c-.17,.17-.17,.46,0,.63l1,1c.08,.08,.2,.13,.31,.13h.03c.13,0,.25-.07,.33-.18l1.5-2.01c.07-.09,.1-.21,.08-.33Zm0,0c-.02-.12-.08-.22-.17-.29-.08-.06-.17-.09-.27-.09h-.02c-.13,0-.26,.07-.34,.18l-1.15,1.54-.04,.05-.04-.04-.59-.59c-.08-.08-.2-.13-.32-.13s-.23,.05-.31,.13c-.17,.17-.17,.46,0,.63l1,1c.08,.08,.2,.13,.31,.13h.03c.13,0,.25-.07,.33-.18l1.5-2.01c.07-.09,.1-.21,.08-.33Zm-1.94,2.57s-.07,0-.1,0c.04,0,.09,.01,.13,0h-.04Zm-.23-.06s.09,.04,.14,.05c-.05-.01-.09-.03-.14-.05Zm0,0s.09,.04,.14,.05c-.05-.01-.09-.03-.14-.05Zm.23,.06s-.07,0-.1,0c.04,0,.09,.01,.13,0h-.04Zm1.94-2.57c-.02-.12-.08-.22-.17-.29-.08-.06-.17-.09-.27-.09h-.02c-.13,0-.26,.07-.34,.18l-1.15,1.54-.04,.05-.04-.04-.59-.59c-.08-.08-.2-.13-.32-.13s-.23,.05-.31,.13c-.17,.17-.17,.46,0,.63l1,1c.08,.08,.2,.13,.31,.13h.03c.13,0,.25-.07,.33-.18l1.5-2.01c.07-.09,.1-.21,.08-.33Zm0,0c-.02-.12-.08-.22-.17-.29-.08-.06-.17-.09-.27-.09h-.02c-.13,0-.26,.07-.34,.18l-1.15,1.54-.04,.05-.04-.04-.59-.59c-.08-.08-.2-.13-.32-.13s-.23,.05-.31,.13c-.17,.17-.17,.46,0,.63l1,1c.08,.08,.2,.13,.31,.13h.03c.13,0,.25-.07,.33-.18l1.5-2.01c.07-.09,.1-.21,.08-.33Zm-1.94,2.57s-.07,0-.1,0c.04,0,.09,.01,.13,0h-.04Zm-.23-.06s.09,.04,.14,.05c-.05-.01-.09-.03-.14-.05Zm0,0s.09,.04,.14,.05c-.05-.01-.09-.03-.14-.05Zm.23,.06s-.07,0-.1,0c.04,0,.09,.01,.13,0h-.04Zm1.94-2.57c-.02-.12-.08-.22-.17-.29-.08-.06-.17-.09-.27-.09h-.02c-.13,0-.26,.07-.34,.18l-1.15,1.54-.04,.05-.04-.04-.59-.59c-.08-.08-.2-.13-.32-.13s-.23,.05-.31,.13c-.17,.17-.17,.46,0,.63l1,1c.08,.08,.2,.13,.31,.13h.03c.13,0,.25-.07,.33-.18l1.5-2.01c.07-.09,.1-.21,.08-.33Zm0,0c-.02-.12-.08-.22-.17-.29-.08-.06-.17-.09-.27-.09h-.02c-.13,0-.26,.07-.34,.18l-1.15,1.54-.04,.05-.04-.04-.59-.59c-.08-.08-.2-.13-.32-.13s-.23,.05-.31,.13c-.17,.17-.17,.46,0,.63l1,1c.08,.08,.2,.13,.31,.13h.03c.13,0,.25-.07,.33-.18l1.5-2.01c.07-.09,.1-.21,.08-.33Zm-1.94,2.57s-.07,0-.1,0c.04,0,.09,.01,.13,0h-.04Zm-.23-.06s.09,.04,.14,.05c-.05-.01-.09-.03-.14-.05Zm0,0s.09,.04,.14,.05c-.05-.01-.09-.03-.14-.05Zm.23,.06s-.07,0-.1,0c.04,0,.09,.01,.13,0h-.04Zm1.94-2.57c-.02-.12-.08-.22-.17-.29-.08-.06-.17-.09-.27-.09h-.02c-.13,0-.26,.07-.34,.18l-1.15,1.54-.04,.05-.04-.04-.59-.59c-.08-.08-.2-.13-.32-.13s-.23,.05-.31,.13c-.17,.17-.17,.46,0,.63l1,1c.08,.08,.2,.13,.31,.13h.03c.13,0,.25-.07,.33-.18l1.5-2.01c.07-.09,.1-.21,.08-.33Zm0,0c-.02-.12-.08-.22-.17-.29-.08-.06-.17-.09-.27-.09h-.02c-.13,0-.26,.07-.34,.18l-1.15,1.54-.04,.05-.04-.04-.59-.59c-.08-.08-.2-.13-.32-.13s-.23,.05-.31,.13c-.17,.17-.17,.46,0,.63l1,1c.08,.08,.2,.13,.31,.13h.03c.13,0,.25-.07,.33-.18l1.5-2.01c.07-.09,.1-.21,.08-.33Zm-1.94,2.57s-.07,0-.1,0c.04,0,.09,.01,.13,0h-.04Zm-.23-.06s.09,.04,.14,.05c-.05-.01-.09-.03-.14-.05Zm0,0s.09,.04,.14,.05c-.05-.01-.09-.03-.14-.05Zm.23,.06s-.07,0-.1,0c.04,0,.09,.01,.13,0h-.04Zm1.94-2.57c-.02-.12-.08-.22-.17-.29-.08-.06-.17-.09-.27-.09h-.02c-.13,0-.26,.07-.34,.18l-1.15,1.54-.04,.05-.04-.04-.59-.59c-.08-.08-.2-.13-.32-.13s-.23,.05-.31,.13c-.17,.17-.17,.46,0,.63l1,1c.08,.08,.2,.13,.31,.13h.03c.13,0,.25-.07,.33-.18l1.5-2.01c.07-.09,.1-.21,.08-.33Zm0,0c-.02-.12-.08-.22-.17-.29-.08-.06-.17-.09-.27-.09h-.02c-.13,0-.26,.07-.34,.18l-1.15,1.54-.04,.05-.04-.04-.59-.59c-.08-.08-.2-.13-.32-.13s-.23,.05-.31,.13c-.17,.17-.17,.46,0,.63l1,1c.08,.08,.2,.13,.31,.13h.03c.13,0,.25-.07,.33-.18l1.5-2.01c.07-.09,.1-.21,.08-.33Zm-1.94,2.57s-.07,0-.1,0c.04,0,.09,.01,.13,0h-.04Zm-.23-.06s.09,.04,.14,.05c-.05-.01-.09-.03-.14-.05Zm0,0s.09,.04,.14,.05c-.05-.01-.09-.03-.14-.05Zm.23,.06s-.07,0-.1,0c.04,0,.09,.01,.13,0h-.04Zm1.94-2.57c-.02-.12-.08-.22-.17-.29-.08-.06-.17-.09-.27-.09h-.02c-.13,0-.26,.07-.34,.18l-1.15,1.54-.04,.05-.04-.04-.59-.59c-.08-.08-.2-.13-.32-.13s-.23,.05-.31,.13c-.17,.17-.17,.46,0,.63l1,1c.08,.08,.2,.13,.31,.13h.03c.13,0,.25-.07,.33-.18l1.5-2.01c.07-.09,.1-.21,.08-.33Zm0,0c-.02-.12-.08-.22-.17-.29-.08-.06-.17-.09-.27-.09h-.02c-.13,0-.26,.07-.34,.18l-1.15,1.54-.04,.05-.04-.04-.59-.59c-.08-.08-.2-.13-.32-.13s-.23,.05-.31,.13c-.17,.17-.17,.46,0,.63l1,1c.08,.08,.2,.13,.31,.13h.03c.13,0,.25-.07,.33-.18l1.5-2.01c.07-.09,.1-.21,.08-.33Zm-1.94,2.57s-.07,0-.1,0c.04,0,.09,.01,.13,0h-.04Zm-.23-.06s.09,.04,.14,.05c-.05-.01-.09-.03-.14-.05Zm0,0s.09,.04,.14,.05c-.05-.01-.09-.03-.14-.05Zm.23,.06s-.07,0-.1,0c.04,0,.09,.01,.13,0h-.04Zm1.94-2.57c-.02-.12-.08-.22-.17-.29-.08-.06-.17-.09-.27-.09h-.02c-.13,0-.26,.07-.34,.18l-1.15,1.54-.04,.05-.04-.04-.59-.59c-.08-.08-.2-.13-.32-.13s-.23,.05-.31,.13c-.17,.17-.17,.46,0,.63l1,1c.08,.08,.2,.13,.31,.13h.03c.13,0,.25-.07,.33-.18l1.5-2.01c.07-.09,.1-.21,.08-.33Zm-2.18,2.51s.09,.04,.14,.05c-.05-.01-.09-.03-.14-.05Zm.23,.06s-.07,0-.1,0c.04,0,.09,.01,.13,0h-.04Zm1.94-2.57c-.02-.12-.08-.22-.17-.29-.08-.06-.17-.09-.27-.09h-.02c-.13,0-.26,.07-.34,.18l-1.15,1.54-.04,.05-.04-.04-.59-.59c-.08-.08-.2-.13-.32-.13s-.23,.05-.31,.13c-.17,.17-.17,.46,0,.63l1,1c.08,.08,.2,.13,.31,.13h.03c.13,0,.25-.07,.33-.18l1.5-2.01c.07-.09,.1-.21,.08-.33Zm-2.18,2.51s.09,.04,.14,.05c-.05-.01-.09-.03-.14-.05Zm.23,.06s-.07,0-.1,0c.04,0,.09,.01,.13,0h-.04Zm1.94-2.57c-.02-.12-.08-.22-.17-.29-.08-.06-.17-.09-.27-.09h-.02c-.13,0-.26,.07-.34,.18l-1.15,1.54-.04,.05-.04-.04-.59-.59c-.08-.08-.2-.13-.32-.13s-.23,.05-.31,.13c-.17,.17-.17,.46,0,.63l1,1c.08,.08,.2,.13,.31,.13h.03c.13,0,.25-.07,.33-.18l1.5-2.01c.07-.09,.1-.21,.08-.33Zm-2.18,2.51s.09,.04,.14,.05c-.05-.01-.09-.03-.14-.05Zm.23,.06s-.07,0-.1,0c.04,0,.09,.01,.13,0h-.04Zm1.94-2.57c-.02-.12-.08-.22-.17-.29-.08-.06-.17-.09-.27-.09h-.02c-.13,0-.26,.07-.34,.18l-1.15,1.54-.04,.05-.04-.04-.59-.59c-.08-.08-.2-.13-.32-.13s-.23,.05-.31,.13c-.17,.17-.17,.46,0,.63l1,1c.08,.08,.2,.13,.31,.13h.03c.13,0,.25-.07,.33-.18l1.5-2.01c.07-.09,.1-.21,.08-.33Zm-2.18,2.51s.09,.04,.14,.05c-.05-.01-.09-.03-.14-.05Zm.23,.06s-.07,0-.1,0c.04,0,.09,.01,.13,0h-.04Zm1.94-2.57c-.02-.12-.08-.22-.17-.29-.08-.06-.17-.09-.27-.09h-.02c-.13,0-.26,.07-.34,.18l-1.15,1.54-.04,.05-.04-.04-.59-.59c-.08-.08-.2-.13-.32-.13s-.23,.05-.31,.13c-.17,.17-.17,.46,0,.63l1,1c.08,.08,.2,.13,.31,.13h.03c.13,0,.25-.07,.33-.18l1.5-2.01c.07-.09,.1-.21,.08-.33Zm-2.18,2.51s.09,.04,.14,.05c-.05-.01-.09-.03-.14-.05Zm.23,.06s-.07,0-.1,0c.04,0,.09,.01,.13,0h-.04Zm1.94-2.57c-.02-.12-.08-.22-.17-.29-.08-.06-.17-.09-.27-.09h-.02c-.13,0-.26,.07-.34,.18l-1.15,1.54-.04,.05-.04-.04-.59-.59c-.08-.08-.2-.13-.32-.13s-.23,.05-.31,.13c-.17,.17-.17,.46,0,.63l1,1c.08,.08,.2,.13,.31,.13h.03c.13,0,.25-.07,.33-.18l1.5-2.01c.07-.09,.1-.21,.08-.33Z"/>
      </g>
      <path class="cls-3" d="M19.32,17.65c-.42,0-.8,.31-.86,.74-.03,.23,.02,.46,.16,.65,.14,.19,.34,.31,.57,.34,.23,.04,.46-.02,.64-.16,.19-.14,.31-.34,.34-.57,.07-.48-.26-.92-.73-.99-.04,0-.09-.01-.13-.01h0Zm0,2.38c-.08,0-.15,0-.22-.02-.4-.06-.74-.27-.98-.59-.24-.32-.34-.72-.28-1.12,.12-.82,.89-1.39,1.7-1.27,.82,.12,1.38,.89,1.26,1.71-.06,.4-.27,.75-.59,.99-.26,.19-.57,.29-.89,.29h0Z"/>
      <path class="cls-3" d="M19.32,21.58c-.18,0-.36,.06-.51,.17-.19,.14-.31,.34-.34,.57-.03,.23,.02,.46,.16,.65,.14,.19,.34,.31,.57,.34,.47,.07,.92-.26,.99-.73,.03-.23-.02-.46-.16-.65-.14-.19-.34-.31-.57-.34-.04,0-.09-.01-.13-.01h0Zm0,2.38c-.07,0-.15,0-.22-.02-.4-.06-.74-.27-.98-.59-.24-.32-.34-.72-.28-1.12,.06-.4,.27-.75,.59-.99,.32-.24,.72-.34,1.11-.28,.4,.06,.74,.27,.98,.59s.34,.72,.28,1.12c-.11,.75-.75,1.28-1.48,1.28h0Z"/>
    </g>
  </g>
</svg>