<?xml version="1.0" encoding="UTF-8"?>
<svg id="Layer_1" data-name="Layer 1" xmlns="http://www.w3.org/2000/svg" xmlns:xlink="http://www.w3.org/1999/xlink" viewBox="0 0 58.01 50.03">
  <defs>
    <style>
      .cls-1 {
        fill: none;
      }

      .cls-2 {
        clip-path: url(#clippath);
      }

      .cls-3 {
        fill: #f4f4f4;
      }

      .cls-4 {
        fill: #e51f33;
      }

      .cls-5 {
        clip-path: url(#clippath-1);
      }

      .cls-6 {
        clip-path: url(#clippath-2);
      }
    </style>
    <clipPath id="clippath">
      <rect class="cls-1" x="20.5" y="17.63" width="18" height="18"/>
    </clipPath>
    <clipPath id="clippath-1">
      <rect class="cls-1" x="20.5" y="17.63" width="18" height="18"/>
    </clipPath>
    <clipPath id="clippath-2">
      <rect class="cls-1" x="20.64" y="17.76" width="17.8" height="17.79"/>
    </clipPath>
  </defs>
  <circle class="cls-4" cx="29.5" cy="26.99" r="22.2" transform="translate(-6.72 43.91) rotate(-67.5)"/>
  <g class="cls-2">
    <g class="cls-5">
      <g class="cls-6">
        <path class="cls-3" d="M37.72,31.3c0,1.95-1.59,3.54-3.54,3.54h-1.12l.03-.08,1.99-5.76c0-.1,0-.2-.05-.29l-.95-1.56-.03-.06,.06-.03,1.85-.84c.1-.05,.14-.1,.19-.19,.05-.1,.05-.19,0-.28l-2.26-4.66-.08-.17,.17,.08,3.71,1.86,.03,.02v8.43h0Zm-5.34,3.54h-1.35v-.07s1.24-10.3,1.24-10.3h0s0-.02,0-.02c.03-.05,.06-.12,.1-.2,.24-.45,.73-1.38,1.01-2.43l.05-.16,.07,.15,1.85,3.81,.03,.06-.06,.03-1.91,.84c-.08,.04-.14,.14-.18,.24,0,.1,0,.2,.05,.29l1.12,1.79,.02,.03v.03s-2.02,5.88-2.02,5.88l-.02,.04h0Zm-1.46-6.56l-.46-3.37v-.05s.03-.02,.03-.03l.37-.74,.03-.07,.06,.05c.17,.12,.33,.25,.5,.37l.03,.02v.03l-.43,3.77-.06,.51-.07-.5h0Zm-.23,3.16l-.38,3.35v.06h-1.56v-.05s-.35-2.74-.35-2.74l-.05-.42v-.02l.89-6.53v-.06h.57v.06s.88,6.33,.88,6.33v.02h0Zm-2.66-2.68l-.06-.51-.43-3.78v-.04l.03-.02c.19-.14,.38-.28,.57-.41l.06-.04,.03,.07,.34,.68v.02s0,.02,0,.02l-.49,3.51-.07,.5h0Zm-1.34,6.09v-.04s-2.03-5.88-2.03-5.88v-.03s0-.03,0-.03l1.12-1.79c.05-.1,.1-.19,.05-.28-.05-.1-.1-.2-.19-.25l-1.9-.84-.06-.03,.03-.06,1.83-3.78,.07-.15,.05,.17c.07,.27,.16,.55,.28,.83,.24,.64,.54,1.18,.7,1.47,.11,.21,.16,.31,.16,.36h0s1.17,10.25,1.17,10.25v.07s-1.29,0-1.29,0h0Zm-1.66,0c-2.02,0-3.68-1.65-3.68-3.68v-8.3l.03-.02,3.6-1.8,.17-.08-.08,.17-2.2,4.54c-.05,.1-.05,.19,0,.28h0v.03c0,.08,.1,.18,.19,.22l1.85,.84,.07,.03-.04,.06-.95,1.57c-.05,.1-.1,.19-.05,.27l2,5.78,.03,.08h-.93Zm1.17-14.73c0-.07,.02-.14,.02-.2v-.22s.12,.19,.12,.19c.06,.1,.12,.2,.2,.3,.56,.83,1.54,1.74,2.18,2.33l.05,.05,.06,.06-.07,.04c-.13,.09-.29,.2-.47,.33l-.12,.09h-.02c-.29,.21-.58,.42-.84,.63l-.06,.05-.03-.06c-.17-.31-1.04-1.89-1.06-3.26,0-.12,.02-.23,.03-.32h0Zm.61-1.21v-.03s.04,0,.04,0v-.03c.15-.25,.74-.37,1.91-.37h1.23c.8,0,1.71,0,2.1,.23h.02s0,.04,0,.04c.01,.04,.03,.07,.05,.09,.07,.08,.07,.15,.07,.27,0,.58-1.38,2-2.66,3.07l-.04,.03-.04-.03c-.92-.77-2.15-1.93-2.59-2.7-.08-.15-.12-.27-.12-.37,0-.08,0-.14,.03-.2h0Zm3.46,4.71l-.02,.02-.33,.65-.02,.03h-.75l-.02-.03-.34-.67-.02-.05,.04-.03c.3-.25,.52-.37,.65-.44l.03-.02,.03,.02c.16,.1,.4,.25,.7,.46h.01s0,.03,0,.03h0s0,.01,0,.01v.03s0,0,0,0Zm2.39-3.63l.11,.06c-.03,.06-.04,.12-.04,.18v.22c0,1.39-.75,2.82-.98,3.22l-.03,.06-.06-.04c-.16-.12-.33-.25-.5-.38-.12-.1-.18-.16-.23-.21-.04-.04-.07-.06-.1-.08-.09-.06-.15-.11-.21-.15-.14-.1-.21-.15-.34-.23l-.07-.05,.06-.06c.09-.08,.19-.16,.29-.26,.44-.39,.81-.74,1.12-1.08,.43-.46,.76-.86,.97-1.21h0Zm5.43,2.37h-.02s-4.5-2.31-4.5-2.31l-.03-.02v-.03c-.11-1.26-.64-1.6-.87-1.69h-.01s0-.02,0-.02c-.5-.53-1.58-.53-2.73-.53h-.79c-1.19,0-2.23,0-2.77,.53h0s-.01,.01-.01,.01c-.23,.08-.76,.41-.88,1.63v.03l-.03,.02-4.61,2.36c-.1,.1-.2,.2-.2,.34v8.88c0,2.2,1.79,4,3.99,4h10c2.1,0,3.81-1.71,3.81-3.81v-9.07c0-.16-.12-.29-.34-.33h0Z"/>
      </g>
    </g>
  </g>
</svg>