<?xml version="1.0" encoding="UTF-8"?>
<svg id="Layer_1" data-name="Layer 1" xmlns="http://www.w3.org/2000/svg" xmlns:xlink="http://www.w3.org/1999/xlink" viewBox="0 0 50.31 46.77">
  <defs>
    <style>
      .cls-1 {
        fill: none;
      }

      .cls-2 {
        clip-path: url(#clippath);
      }

      .cls-3 {
        fill: #f4f4f4;
      }

      .cls-4 {
        fill: #e51f33;
      }

      .cls-5 {
        clip-path: url(#clippath-1);
      }

      .cls-6 {
        clip-path: url(#clippath-3);
      }

      .cls-7 {
        clip-path: url(#clippath-2);
      }
    </style>
    <clipPath id="clippath">
      <rect class="cls-1" x="14.42" y="9.48" width="20.52" height="24.96"/>
    </clipPath>
    <clipPath id="clippath-1">
      <rect class="cls-1" x="14.42" y="9.48" width="20.52" height="24.96"/>
    </clipPath>
    <clipPath id="clippath-2">
      <rect class="cls-1" x="14.61" y="9.68" width="20.24" height="24.66"/>
    </clipPath>
    <clipPath id="clippath-3">
      <rect class="cls-1" x="14.61" y="9.68" width="20.24" height="24.66"/>
    </clipPath>
  </defs>
  <circle class="cls-4" cx="24.86" cy="22.2" r="22.2" transform="translate(.31 44.75) rotate(-84.35)"/>
  <g class="cls-2">
    <g class="cls-5">
      <path class="cls-3" d="M26.52,18.93v-4.07h1.24v4.07h-1.24Zm-.41,.81h2.06c.23,0,.41-.18,.41-.41v-4.88c0-.23-.18-.41-.41-.41h-2.06c-.23,0-.41,.18-.41,.41v4.88c0,.23,.18,.41,.41,.41Z"/>
      <path class="cls-3" d="M23.23,18.93v-2.23s1.24,0,1.24,0v2.23h-1.24Zm-.41,.81h2.06c.23,0,.41-.18,.41-.41v-3.04c0-.23-.18-.41-.41-.41h-2.06c-.22,0-.4,.18-.41,.41v3.04c0,.23,.18,.41,.41,.41Z"/>
      <path class="cls-3" d="M31.69,27.8c.15,0,.29-.1,.29-.29v-1.25c0-.16-.13-.29-.29-.29h-3.88v-1.19c0-.38-.59-.38-.59,0v1.2h-3.88c-.16,0-.29,.13-.29,.29v1.25c0,.38,.59,.38,.59,0v-.96h7.75v.96c0,.19,.15,.29,.29,.29Z"/>
      <path class="cls-3" d="M20.78,33.7v-5.14s5.16,0,5.16,0v5.14h-5.16Zm5.45-5.73h-5.75c-.16,0-.29,.13-.29,.29v5.73c0,.16,.13,.29,.29,.29h5.75c.16,0,.29-.13,.29-.29v-5.73c0-.16-.13-.29-.29-.29Z"/>
      <path class="cls-3" d="M32.92,29.71l-1.87,2.17-.59-.81c-.04-.06-.11-.1-.19-.12-.08-.01-.15,0-.22,.05-.06,.04-.1,.11-.12,.18-.01,.08,0,.16,.05,.22l.79,1.1c.05,.08,.14,.13,.23,.13h.02c.09,0,.17-.04,.22-.1l2.11-2.45c.11-.13,.1-.3-.03-.41-.13-.11-.3-.09-.41,.03h0Z"/>
      <g class="cls-7">
        <path class="cls-3" d="M29.11,33.7v-5.14h5.16v5.14s-5.16,0-5.16,0Zm5.45-5.73h-5.75c-.16,0-.29,.13-.29,.29v5.73c0,.16,.13,.29,.29,.29h5.75c.16,0,.29-.13,.29-.29v-5.73c0-.16-.13-.29-.29-.29Z"/>
      </g>
      <path class="cls-3" d="M20.75,16.89c0-2.61,2.13-4.73,4.74-4.73s4.74,2.12,4.74,4.73-2.13,4.73-4.74,4.73c-2.62,0-4.74-2.12-4.74-4.73Zm4.74,5.54h0c1.49,0,2.88-.58,3.93-1.62,1.05-1.04,1.63-2.43,1.63-3.91s-.58-2.88-1.63-3.92c-1.05-1.05-2.44-1.62-3.93-1.62h0c-1.49,0-2.88,.58-3.93,1.62-1.05,1.04-1.63,2.43-1.63,3.91s.58,2.88,1.63,3.92c1.05,1.05,2.44,1.62,3.93,1.62Z"/>
      <g class="cls-6">
        <path class="cls-3" d="M20.53,21.45c.14-.15,.15-.38,.02-.54-2.06-2.53-1.87-6.18,.44-8.49,2.48-2.48,6.52-2.48,9,0,2.48,2.47,2.48,6.5,0,8.98-1.73,1.72-4.33,2.31-6.63,1.5-.68-.24-1.31-.59-1.87-1.04-.08-.07-.18-.11-.28-.11s-.21,.04-.29,.12l-1.14,1.14-.41-.41,1.15-1.13h0Zm-5.1,4.22c0-.07,.03-.14,.08-.19l2.61-2.61c.05-.05,.12-.08,.19-.08s.14,.03,.19,.08l.99,.99c.05,.05,.08,.12,.08,.19s-.03,.14-.09,.19l-2.61,2.61c-.11,.11-.28,.1-.39,0l-.98-.99c-.05-.05-.08-.12-.08-.19Zm1.26,2.07c.28,0,.56-.11,.77-.32l2.62-2.61c.31-.31,.41-.78,.23-1.19l.94-.94c2.84,2.07,6.83,1.77,9.32-.72,1.36-1.36,2.11-3.16,2.11-5.07,0-1.91-.75-3.71-2.11-5.06-2.8-2.79-7.36-2.79-10.16,0-2.49,2.48-2.79,6.46-.72,9.29l-.95,.94c-.4-.17-.88-.08-1.19,.23l-2.62,2.6c-.42,.42-.42,1.11,0,1.53l.99,.99c.21,.21,.49,.32,.77,.32h0Z"/>
      </g>
      <path class="cls-3" d="M23.77,31.13l.78-.78c.13-.14,.1-.31,0-.41-.1-.1-.28-.13-.41,0l-.79,.78-.78-.78c-.06-.06-.14-.09-.22-.09-.07,0-.14,.04-.19,.09-.05,.05-.08,.12-.09,.19,0,.06,.01,.14,.09,.22l.79,.78-.79,.78c-.13,.14-.1,.31,0,.41,.06,.06,.13,.09,.21,.09,.07,0,.14-.03,.2-.09l.78-.78,.79,.78c.14,.13,.31,.1,.41,0,.1-.1,.14-.28,0-.41l-.78-.78h0Z"/>
    </g>
  </g>
</svg>