<?xml version="1.0" encoding="UTF-8"?>
<svg id="Layer_1" data-name="Layer 1" xmlns="http://www.w3.org/2000/svg" xmlns:xlink="http://www.w3.org/1999/xlink" viewBox="0 0 44.1 44.4">
  <defs>
    <style>
      .cls-1 {
        fill: none;
      }

      .cls-2 {
        clip-path: url(#clippath);
      }

      .cls-3 {
        fill: #f4f4f4;
      }

      .cls-4 {
        fill: #e51f33;
      }

      .cls-5 {
        clip-path: url(#clippath-1);
      }

      .cls-6 {
        clip-path: url(#clippath-2);
      }
    </style>
    <clipPath id="clippath">
      <rect class="cls-1" x="11.94" y="11.64" width="20.04" height="20.04"/>
    </clipPath>
    <clipPath id="clippath-1">
      <rect class="cls-1" x="11.94" y="11.64" width="20.04" height="20.04"/>
    </clipPath>
    <clipPath id="clippath-2">
      <rect class="cls-1" x="12.08" y="11.78" width="19.83" height="19.82"/>
    </clipPath>
  </defs>
  <circle class="cls-4" cx="21.9" cy="22.2" r="22.2" transform="translate(-3.27 3.79) rotate(-9.22)"/>
  <g class="cls-2">
    <g class="cls-5">
      <g class="cls-6">
        <path class="cls-3" d="M29.65,28c.75,0,1.35,.6,1.35,1.35s-.6,1.35-1.35,1.35-1.35-.6-1.35-1.35c0-.75,.6-1.35,1.35-1.35Zm-15.32,0c.75,0,1.35,.6,1.35,1.35s-.6,1.35-1.35,1.35-1.35-.6-1.35-1.35,.6-1.35,1.35-1.35Zm7.66-4.73c1.25,0,2.25,1.02,2.25,2.32v1.02c-.69,.31-1.45,.49-2.25,.49s-1.57-.18-2.25-.49v-1.02c0-1.3,1-2.32,2.25-2.32Zm0-4.51c.75,0,1.35,.6,1.35,1.35s-.6,1.35-1.35,1.35-1.35-.6-1.35-1.35,.6-1.35,1.35-1.35Zm0,3.6c1.24,0,2.25-1.01,2.25-2.25s-1.01-2.25-2.25-2.25-2.25,1.01-2.25,2.25,1.01,2.25,2.25,2.25Zm0-6.08c2.99,0,5.41,2.41,5.41,5.41,0,1.81-.89,3.41-2.25,4.39v-.5c0-1.77-1.41-3.22-3.15-3.22s-3.15,1.45-3.15,3.22v.5c-1.36-.98-2.25-2.58-2.25-4.39,0-2.99,2.42-5.41,5.41-5.41Zm7.66-3.6c.75,0,1.35,.6,1.35,1.35s-.6,1.35-1.35,1.35-1.35-.6-1.35-1.35,.6-1.35,1.35-1.35Zm-15.32,0c.75,0,1.35,.6,1.35,1.35s-.6,1.35-1.35,1.35-1.35-.6-1.35-1.35,.6-1.35,1.35-1.35Zm0-.9c-1.24,0-2.25,1.02-2.25,2.25s1.01,2.25,2.25,2.25c.48,0,.93-.15,1.29-.41l1.64,1.64c-.99,1.11-1.59,2.57-1.59,4.18s.58,3.02,1.55,4.13l-1.66,1.66c-.36-.24-.79-.38-1.25-.38-1.24,0-2.25,1.01-2.25,2.25s1.01,2.25,2.25,2.25c1.24,0,2.25-1.01,2.25-2.25,0-.46-.14-.88-.37-1.23l1.66-1.66c1.11,.96,2.55,1.54,4.12,1.54s3.06-.6,4.18-1.59l1.64,1.64c-.26,.37-.41,.81-.41,1.29,0,1.24,1.01,2.25,2.25,2.25s2.25-1.01,2.25-2.25-1.01-2.25-2.25-2.25c-.43,0-.84,.13-1.18,.34l-1.67-1.67c.94-1.1,1.5-2.52,1.5-4.08s-.58-3.02-1.54-4.12l1.66-1.66c.36,.23,.78,.37,1.24,.37,1.24,0,2.25-1.01,2.25-2.25s-1.01-2.25-2.25-2.25-2.25,1.01-2.25,2.25c0,.46,.14,.89,.38,1.24l-1.66,1.66c-1.11-.96-2.55-1.55-4.13-1.55s-2.98,.57-4.08,1.5l-1.67-1.67c.21-.35,.34-.75,.34-1.18,0-1.24-1.02-2.25-2.25-2.25h0Z"/>
      </g>
    </g>
  </g>
</svg>