<?xml version="1.0" encoding="UTF-8"?>
<svg id="Layer_1" data-name="Layer 1" xmlns="http://www.w3.org/2000/svg" xmlns:xlink="http://www.w3.org/1999/xlink" viewBox="0 0 44.52 45.36">
  <defs>
    <style>
      .cls-1 {
        fill: none;
      }

      .cls-2 {
        clip-path: url(#clippath);
      }

      .cls-3 {
        fill: #f4f4f4;
      }

      .cls-4 {
        fill: #e51f33;
      }

      .cls-5 {
        clip-path: url(#clippath-1);
      }

      .cls-6 {
        clip-path: url(#clippath-2);
      }
    </style>
    <clipPath id="clippath">
      <rect class="cls-1" x="14.52" y="11.88" width="16.32" height="20.52"/>
    </clipPath>
    <clipPath id="clippath-1">
      <rect class="cls-1" x="14.52" y="11.88" width="16.32" height="20.52"/>
    </clipPath>
    <clipPath id="clippath-2">
      <rect class="cls-1" x="14.67" y="12.03" width="16.08" height="20.3"/>
    </clipPath>
  </defs>
  <circle class="cls-4" cx="22.2" cy="23.16" r="22.2"/>
  <g class="cls-2">
    <g class="cls-5">
      <g class="cls-6">
        <path class="cls-3" d="M28.4,31.38h-11.38c-.81,0-1.47-.66-1.47-1.48v-12.93c0-.82,.66-1.48,1.47-1.48h1.17s.03,.01,.03,.03v.55c0,.11,.05,.23,.13,.31,.08,.08,.2,.13,.31,.13h8.08c.16,0,.31-.07,.39-.2,.05-.07,.07-.16,.07-.24v-.55s.01-.03,.03-.03h1.36c.71,0,1.28,.57,1.28,1.28v13.12c0,.82-.66,1.48-1.47,1.48h0ZM19.09,14.51s.01-.03,.03-.03h2.07c.12,0,.23-.05,.31-.13,.08-.08,.13-.2,.13-.31,0-.29,.12-.56,.32-.76,.21-.2,.48-.32,.76-.32s.56,.11,.76,.32,.32,.47,.32,.76c0,.12,.05,.23,.13,.31,.08,.08,.2,.13,.31,.13h2.06s.03,.01,.03,.03v1.1s-.01,.03-.03,.03h-7.17s-.03-.01-.03-.03v-1.1h0Zm9.61,.11h-1.48s-.03-.01-.03-.03v-.55c0-.12-.05-.23-.13-.31-.08-.08-.2-.13-.31-.13h-2.15v-.05c-.09-.33-.26-.65-.5-.9-.37-.36-.87-.56-1.38-.56s-1.01,.2-1.39,.56c-.24,.25-.4,.56-.49,.89v.05h-2.2c-.24,0-.44,.2-.44,.44v.55s-.01,.03-.03,.03h-1.22c-1.26,0-2.3,1.04-2.3,2.31v13.08c0,1.24,1.01,2.26,2.25,2.26h11.62c1.21,0,2.21-1,2.21-2.21v-13.39c0-1.12-.92-2.04-2.04-2.04h0Z"/>
      </g>
      <path class="cls-3" d="M21.54,14.4s.09-.1,.11-.16c-.03,.06-.06,.12-.11,.16Zm0,0s.09-.1,.11-.16c-.03,.06-.06,.12-.11,.16Zm0,0s.09-.1,.11-.16c-.03,.06-.06,.12-.11,.16Z"/>
      <path class="cls-3" d="M21.12,21.22c0,.12-.05,.23-.13,.31-.08,.08-.2,.13-.31,.13s-.23-.05-.31-.13l-.65-.66-.05-.05-.05,.05-.65,.66c-.08,.08-.2,.13-.31,.13s-.23-.05-.31-.13c-.08-.08-.13-.2-.13-.31s.05-.23,.13-.31l.66-.66,.05-.05-.05-.05-.66-.66c-.08-.08-.13-.2-.13-.31s.05-.23,.13-.31c.08-.08,.2-.13,.31-.13s.23,.05,.31,.13l.65,.66,.05,.05,.05-.05,.65-.66c.08-.08,.2-.13,.31-.13s.23,.05,.31,.13c.17,.17,.17,.45,0,.62l-.66,.66-.05,.05,.05,.05,.66,.66c.08,.08,.13,.2,.13,.31h0Z"/>
      <path class="cls-3" d="M27.07,27.95c.08,.08,.13,.2,.13,.31s-.05,.23-.13,.31c-.08,.08-.2,.13-.31,.13s-.23-.05-.31-.13l-.66-.66-.05-.05-.05,.05-.65,.66c-.08,.08-.2,.13-.31,.13s-.23-.05-.31-.13c-.08-.08-.13-.2-.13-.31s.05-.23,.13-.31l.66-.66,.05-.05-.05-.05-.66-.66c-.17-.17-.17-.45,0-.62,.08-.08,.2-.13,.31-.13s.23,.05,.31,.13l.65,.66,.05,.05,.05-.05,.66-.66c.08-.08,.2-.13,.31-.13s.23,.05,.31,.13c.08,.08,.13,.2,.13,.31s-.05,.23-.13,.31l-.66,.66-.05,.05,.05,.05,.66,.66Z"/>
      <path class="cls-3" d="M26.28,23.41c-.09,.21-.3,.35-.53,.35-.19,0-.37-.1-.48-.25-.06-.1-.1-.21-.1-.32,0-.23,.14-.44,.35-.53,.07-.03,.15-.04,.22-.04,.15,0,.3,.06,.4,.17,.16,.16,.21,.41,.12,.63Zm-6.2,4.25c-.11,.11-.25,.17-.4,.17-.23,0-.44-.14-.53-.35-.09-.22-.04-.46,.12-.63,.11-.11,.25-.17,.41-.17,.07,0,.15,.01,.22,.04,.22,.09,.35,.3,.35,.53,0,.15-.06,.3-.17,.41h0Zm7.06-5c-.16-.4-.49-.71-.9-.84l-.05-.02v-2.64l.12,.12,.15,.15c.08,.08,.2,.13,.31,.13s.23-.05,.31-.13c.08-.08,.13-.2,.13-.31s-.05-.23-.13-.31l-1.01-1.02s-.09-.07-.14-.09c-.05-.02-.11-.03-.17-.03s-.11,.01-.17,.03c-.06,.02-.11,.05-.15,.09l-1.01,1.02c-.17,.17-.17,.45,0,.62,.08,.08,.2,.13,.31,.13s.23-.05,.31-.13l.15-.15,.12-.12v2.64l-.05,.02c-.35,.12-.63,.36-.8,.68-.17,.32-.21,.69-.12,1.04v.05s-.03,.03-.03,.03l-3.7,2.48-.04,.03-.04-.03c-.24-.19-.55-.3-.87-.3-.41,0-.79,.17-1.07,.47-.28,.3-.42,.7-.38,1.1,.03,.41,.23,.78,.55,1.03,.25,.2,.57,.31,.9,.31,.08,0,.16,0,.23-.02,.4-.06,.76-.3,.98-.64,.22-.34,.29-.76,.2-1.15v-.05s.03-.03,.03-.03l3.71-2.48,.04-.03,.04,.03c.26,.2,.57,.31,.9,.31,.1,0,.2-.01,.3-.03,.42-.09,.78-.36,.98-.74,.2-.38,.23-.83,.06-1.23h0Z"/>
      <path class="cls-3" d="M19.67,26.74c.06,0,.13,.01,.19,.04-.06-.03-.13-.04-.19-.04Zm0,0c.06,0,.13,.01,.19,.04-.06-.03-.13-.04-.19-.04Zm0,0c.06,0,.13,.01,.19,.04-.06-.03-.13-.04-.19-.04Zm0,0c.06,0,.13,.01,.19,.04-.06-.03-.13-.04-.19-.04Zm0,0c.06,0,.13,.01,.19,.04-.06-.03-.13-.04-.19-.04Zm0,0c.06,0,.13,.01,.19,.04-.06-.03-.13-.04-.19-.04Zm0,0c.06,0,.13,.01,.19,.04-.06-.03-.13-.04-.19-.04Zm0,0c.06,0,.13,.01,.19,.04-.06-.03-.13-.04-.19-.04Zm0,0c.06,0,.13,.01,.19,.04-.06-.03-.13-.04-.19-.04Zm0,0c.06,0,.13,.01,.19,.04-.06-.03-.13-.04-.19-.04Zm0,0c.06,0,.13,.01,.19,.04-.06-.03-.13-.04-.19-.04Zm0,0c.06,0,.13,.01,.19,.04-.06-.03-.13-.04-.19-.04Zm0,0c.06,0,.13,.01,.19,.04-.06-.03-.13-.04-.19-.04Zm0,0c.06,0,.13,.01,.19,.04-.06-.03-.13-.04-.19-.04Zm0,0c.06,0,.13,.01,.19,.04-.06-.03-.13-.04-.19-.04Zm5.88-9.1c.06-.02,.13-.04,.2-.04-.07,0-.13,.01-.2,.04Zm.2-.04c.06,0,.13,.01,.19,.04-.06-.03-.13-.04-.19-.04Zm-6.08,9.14c.06,0,.13,.01,.19,.04-.06-.03-.13-.04-.19-.04Zm0,0c.06,0,.13,.01,.19,.04-.06-.03-.13-.04-.19-.04Zm0,0c.06,0,.13,.01,.19,.04-.06-.03-.13-.04-.19-.04Zm0,0c.06,0,.13,.01,.19,.04-.06-.03-.13-.04-.19-.04Zm0,0c.06,0,.13,.01,.19,.04-.06-.03-.13-.04-.19-.04Zm0,0c.06,0,.13,.01,.19,.04-.06-.03-.13-.04-.19-.04Zm0,0c.06,0,.13,.01,.19,.04-.06-.03-.13-.04-.19-.04Zm0,0c.06,0,.13,.01,.19,.04-.06-.03-.13-.04-.19-.04Zm0,0c.06,0,.13,.01,.19,.04-.06-.03-.13-.04-.19-.04Zm0,0c.06,0,.13,.01,.19,.04-.06-.03-.13-.04-.19-.04Zm0,0c.06,0,.13,.01,.19,.04-.06-.03-.13-.04-.19-.04Zm0,0c.06,0,.13,.01,.19,.04-.06-.03-.13-.04-.19-.04Z"/>
    </g>
  </g>
</svg>