<?xml version="1.0" encoding="UTF-8"?>
<svg id="Layer_1" data-name="Layer 1" xmlns="http://www.w3.org/2000/svg" xmlns:xlink="http://www.w3.org/1999/xlink" viewBox="0 0 46.38 46.2">
  <defs>
    <style>
      .cls-1 {
        fill: none;
      }

      .cls-2 {
        fill: #f4f4f4;
      }

      .cls-3 {
        fill: #e51f33;
      }

      .cls-4 {
        clip-path: url(#clippath-34);
      }

      .cls-5 {
        clip-path: url(#clippath-35);
      }

      .cls-6 {
        clip-path: url(#clippath-36);
      }

      .cls-7 {
        clip-path: url(#clippath-37);
      }
    </style>
    <clipPath id="clippath-34">
      <rect class="cls-1" x="14.99" y="13.8" width="18.24" height="18"/>
    </clipPath>
    <clipPath id="clippath-35">
      <rect class="cls-1" x="14.99" y="13.8" width="18.24" height="18"/>
    </clipPath>
    <clipPath id="clippath-36">
      <rect class="cls-1" x="15.13" y="13.94" width="18.02" height="17.77"/>
    </clipPath>
    <clipPath id="clippath-37">
      <rect class="cls-1" x="15.13" y="13.94" width="18.02" height="17.77"/>
    </clipPath>
  </defs>
  <circle class="cls-3" cx="23.39" cy="23.16" r="22.2" transform="translate(-3.78 41.75) rotate(-79.1)"/>
  <g class="cls-4">
    <g class="cls-5">
      <g class="cls-6">
        <path class="cls-2" d="M23.56,30.92c-2.01,0-3.89-.77-5.32-2.16l-.05-.05c-1.43-1.42-2.22-3.32-2.22-5.34,0-2.02,.79-3.91,2.22-5.34,1.33-1.33,3.09-2.11,4.97-2.2v7.55c0,.1,.04,.2,.11,.28l5.36,5.34c-1.39,1.25-3.19,1.94-5.07,1.94Zm5.92-2.21l-5.52-5.5v-7.79c0-.1-.04-.2-.11-.28-.08-.08-.17-.12-.28-.12-1.12,0-2.21,.22-3.21,.63-1,.41-1.92,1.02-2.71,1.81-1.58,1.58-2.45,3.67-2.45,5.9s.87,4.32,2.45,5.9c1.58,1.57,3.68,2.44,5.92,2.44,2.24,0,4.34-.87,5.92-2.44,.08-.07,.11-.17,.11-.28s-.04-.2-.11-.28Z"/>
      </g>
      <path class="cls-2" d="M25.13,21.69v-6.9c1.76,.31,3.35,1.14,4.62,2.41,.61,.61,1.13,1.3,1.52,2.04l-6.14,2.45Zm-.41-7.65s0,0,0,0c0,0,.02,0,.02,0h-.03Zm7.45,5.24c-.46-.97-1.09-1.86-1.87-2.64-1.51-1.5-3.42-2.43-5.53-2.7-.02,0-.03,0-.05,0-.09,0-.19,.04-.26,.1-.08,.08-.13,.18-.13,.3v7.93c0,.13,.07,.25,.17,.33,.07,.04,.14,.07,.22,.07,.05,0,.1,0,.15-.03l7.08-2.82c.1-.04,.18-.12,.22-.22,.04-.1,.04-.21-.01-.31Z"/>
      <g class="cls-7">
        <path class="cls-2" d="M30.76,28.33l-4.86-4.84,6.1-2.43c.69,2.51,.24,5.14-1.24,7.27Zm1.87-7.92l-.1-.16-.1-.07s0,0-.01,0c-.05-.03-.11-.04-.17-.04-.05,0-.1,0-.15,.03l-7.05,2.81c-.12,.05-.21,.16-.24,.29-.03,.13,.01,.26,.11,.36l5.61,5.59c.08,.07,.17,.11,.28,.11h.02c.12,0,.22-.06,.29-.15,1.93-2.48,2.49-5.75,1.51-8.75Z"/>
      </g>
    </g>
  </g>
</svg>