<svg width="310" height="243" viewBox="0 0 310 243" fill="none" xmlns="http://www.w3.org/2000/svg">
<mask id="mask0_167_330" style="mask-type:alpha" maskUnits="userSpaceOnUse" x="0" y="0" width="311" height="243">
<path d="M279.904 0.312012H30.0972C13.475 0.312012 0 16.2772 0 35.9712V207.136C0 226.83 13.475 242.795 30.0972 242.795H279.904C296.527 242.795 310.002 226.83 310.002 207.136V35.9712C310.002 16.2772 296.527 0.312012 279.904 0.312012Z" fill="white"/>
</mask>
<g mask="url(#mask0_167_330)">
<path d="M-26.2168 212.681C-26.2168 212.681 32.2551 119.703 56.8757 126.995C81.4962 134.287 127.657 195.361 156.899 172.572C186.14 149.784 216.14 89.6218 243.838 89.6218C271.535 89.6218 319.236 126.995 319.236 126.995V270.107H-26.2168V212.681Z" fill="url(#paint0_linear_167_330)"/>
</g>
<path opacity="0.29" d="M66.7237 129.874L111.226 161.481V242.508H66.5645L66.7237 129.874Z" fill="white"/>
<path opacity="0.08" d="M240.778 109.667C248.535 109.667 254.823 102.217 254.823 93.0262C254.823 83.8357 248.535 76.3853 240.778 76.3853C233.021 76.3853 226.732 83.8357 226.732 93.0262C226.732 102.217 233.021 109.667 240.778 109.667Z" fill="black"/>
<path d="M241.28 98.969C244.327 98.969 246.797 96.042 246.797 92.4315C246.797 88.8209 244.327 85.8939 241.28 85.8939C238.232 85.8939 235.762 88.8209 235.762 92.4315C235.762 96.042 238.232 98.969 241.28 98.969Z" fill="white"/>
<path opacity="0.08" d="M140.454 192.872C148.211 192.872 154.499 185.421 154.499 176.231C154.499 167.04 148.211 159.59 140.454 159.59C132.697 159.59 126.408 167.04 126.408 176.231C126.408 185.421 132.697 192.872 140.454 192.872Z" fill="black"/>
<path d="M140.955 182.174C144.003 182.174 146.473 179.247 146.473 175.636C146.473 172.026 144.003 169.099 140.955 169.099C137.908 169.099 135.438 172.026 135.438 175.636C135.438 179.247 137.908 182.174 140.955 182.174Z" fill="white"/>
<defs>
<linearGradient id="paint0_linear_167_330" x1="146.51" y1="89.6218" x2="146.51" y2="270.107" gradientUnits="userSpaceOnUse">
<stop stop-color="#E63946"/>
<stop offset="1" stop-color="#FF8591"/>
</linearGradient>
</defs>
</svg>
