<svg width="186" height="207" viewBox="0 0 186 207" fill="none" xmlns="http://www.w3.org/2000/svg">
<path d="M157.034 89.8189C157.034 125.001 128.653 153.521 93.6438 153.521C58.6345 153.521 30.2539 125.001 30.2539 89.8189C30.2539 54.637 58.6345 26.1164 93.6438 26.1164C128.653 26.1164 157.034 54.637 157.034 89.8189ZM49.774 89.8189C49.774 114.167 69.4151 133.905 93.6438 133.905C117.872 133.905 137.514 114.167 137.514 89.8189C137.514 65.4708 117.872 45.7327 93.6438 45.7327C69.4151 45.7327 49.774 65.4708 49.774 89.8189Z" fill="#E3E3E3"/>
<path d="M93.7602 26.1165C102.843 26.1331 111.815 28.111 120.071 31.916C128.326 35.721 135.672 41.2643 141.61 48.1706C147.548 55.0769 151.94 63.1849 154.488 71.9454C157.036 80.706 157.681 89.9145 156.38 98.9475C155.078 107.98 151.861 116.627 146.944 124.301C142.028 131.976 135.528 138.499 127.884 143.429C120.241 148.359 111.633 151.581 102.642 152.876C93.6518 154.172 84.4893 153.511 75.7752 150.938L81.2778 132.117C87.3085 133.898 93.6495 134.355 99.8714 133.459C106.093 132.562 112.051 130.332 117.341 126.92C122.63 123.508 127.129 118.994 130.531 113.683C133.934 108.372 136.161 102.388 137.061 96.1364C137.962 89.8851 137.516 83.5122 135.752 77.4493C133.988 71.3865 130.949 65.7752 126.839 60.9956C122.73 56.2161 117.646 52.3797 111.933 49.7464C106.22 47.1131 100.01 45.7443 93.7245 45.7328L93.7602 26.1165Z" fill="#E3E3E3"/>
<path d="M93.7602 26.1165C102.843 26.1331 111.815 28.111 120.071 31.916C128.326 35.721 135.672 41.2643 141.61 48.1706C147.548 55.0769 151.94 63.1849 154.488 71.9454C157.036 80.706 157.681 89.9145 156.38 98.9475C155.078 107.98 151.861 116.627 146.944 124.301C142.028 131.976 135.528 138.499 127.884 143.429C120.241 148.359 111.633 151.581 102.642 152.876C93.6518 154.172 84.4893 153.511 75.7752 150.938L81.2778 132.117C87.3085 133.898 93.6495 134.355 99.8714 133.459C106.093 132.562 112.051 130.332 117.341 126.92C122.63 123.508 127.129 118.994 130.531 113.683C133.934 108.372 136.161 102.388 137.061 96.1364C137.962 89.8851 137.516 83.5122 135.752 77.4493C133.988 71.3865 130.949 65.7752 126.839 60.9956C122.73 56.2161 117.646 52.3797 111.933 49.7464C106.22 47.1131 100.01 45.7443 93.7245 45.7328L93.7602 26.1165Z" fill="url(#paint0_linear_167_346)"/>
<defs>
<linearGradient id="paint0_linear_167_346" x1="30.2546" y1="89.7024" x2="157.034" y2="89.933" gradientUnits="userSpaceOnUse">
<stop stop-color="#FF8591"/>
<stop offset="1" stop-color="#E63946"/>
</linearGradient>
</defs>
</svg>
