<svg width="103" height="255" viewBox="0 0 110 262" fill="none" xmlns="http://www.w3.org/2000/svg">
    <filter id="dropShadow">
        <feGaussianBlur in="SourceAlpha" stdDeviation="7" />
        <feOffset dx="" dy="0" />
        <feMerge>
            <feMergeNode />
            <feMergeNode in="SourceGraphic" />
        </feMerge>
    </filter>
<path filter="url(#dropShadow)" d="M23.9491 0.312012H61.4694C67.8211 0.312012 73.9126 3.3015 78.4039 8.62283C82.8953 13.9442 85.4185 21.1614 85.4185 28.6869L102.253 44.2751L85.4185 64.847V226.365C85.4185 233.891 82.8953 241.108 78.4039 246.43C73.9126 251.751 67.8211 254.74 61.4694 254.74H23.9491C17.5974 254.74 11.5059 251.751 7.01453 246.43C2.5232 241.108 0 233.891 0 226.365L0 28.6869C0 21.1614 2.5232 13.9442 7.01453 8.62283C11.5059 3.3015 17.5974 0.312012 23.9491 0.312012V0.312012Z" fill="#FFFFFF"/>
<path  d="M58.5456 52.7372C58.5456 42.5306 51.5744 34.2565 42.9749 34.2565C34.3755 34.2565 27.4043 42.5306 27.4043 52.7372V209.112C27.4043 219.319 34.3755 227.593 42.9749 227.593C51.5744 227.593 58.5456 219.319 58.5456 209.112V52.7372Z" fill="#E3E3E3"/>
<path  d="M58.5456 138.448C58.5456 128.18 51.5744 119.856 42.9749 119.856C34.3755 119.856 27.4043 128.18 27.4043 138.448V209.001C27.4043 219.269 34.3755 227.593 42.9749 227.593C51.5744 227.593 58.5456 219.269 58.5456 209.001V138.448Z" fill="url(#paint0_linear_167_341)"/>
<defs>
<linearGradient id="paint0_linear_167_341" x1="42.9749" y1="119.856" x2="42.9749" y2="227.593" gradientUnits="userSpaceOnUse">
<stop stop-color="#E63946" />
<stop offset="1" stop-color="#FF8591"/>
</linearGradient>
</defs>
</svg>
