<svg width="80" height="80" viewBox="0 0 80 80" fill="none" xmlns="http://www.w3.org/2000/svg">
<circle cx="40" cy="40" r="40" fill="#E51F33"/>
<path d="M25 54.6666H55" stroke="#F4F4F4" stroke-width="1.5" stroke-linecap="round" stroke-linejoin="round"/>
<path d="M25 36.3333C25 34.762 25 33.9763 25.4882 33.4882C25.9763 33 26.762 33 28.3333 33C29.9047 33 30.6904 33 31.1785 33.4882C31.6667 33.9763 31.6667 34.762 31.6667 36.3333V46.3333C31.6667 47.9047 31.6667 48.6904 31.1785 49.1785C30.6904 49.6667 29.9047 49.6667 28.3333 49.6667C26.762 49.6667 25.9763 49.6667 25.4882 49.1785C25 48.6904 25 47.9047 25 46.3333V36.3333Z" stroke="#F4F4F4" stroke-width="1.5"/>
<path d="M36.667 29.6667C36.667 28.0954 36.667 27.3097 37.1551 26.8215C37.6433 26.3334 38.429 26.3334 40.0003 26.3334C41.5717 26.3334 42.3573 26.3334 42.8455 26.8215C43.3337 27.3097 43.3337 28.0954 43.3337 29.6667V46.3334C43.3337 47.9047 43.3337 48.6904 42.8455 49.1786C42.3573 49.6667 41.5717 49.6667 40.0003 49.6667C38.429 49.6667 37.6433 49.6667 37.1551 49.1786C36.667 48.6904 36.667 47.9047 36.667 46.3334V29.6667Z" stroke="#F4F4F4" stroke-width="1.5"/>
<path d="M48.333 24.6667C48.333 23.0954 48.333 22.3097 48.8212 21.8215C49.3093 21.3334 50.095 21.3334 51.6663 21.3334C53.2377 21.3334 54.0234 21.3334 54.5115 21.8215C54.9997 22.3097 54.9997 23.0954 54.9997 24.6667V46.3334C54.9997 47.9047 54.9997 48.6904 54.5115 49.1786C54.0234 49.6667 53.2377 49.6667 51.6663 49.6667C50.095 49.6667 49.3093 49.6667 48.8212 49.1786C48.333 48.6904 48.333 47.9047 48.333 46.3334V24.6667Z" stroke="#F4F4F4" stroke-width="1.5"/>
</svg>
