<svg width="80" height="80" viewBox="0 0 80 80" fill="none" xmlns="http://www.w3.org/2000/svg">
<circle cx="40" cy="40" r="40" fill="#E51F33"/>
<path d="M30.4759 46.6667C26.531 46.6667 23.333 43.5063 23.333 39.6078C23.333 35.7094 26.531 32.549 30.4759 32.549C30.9494 32.549 31.4122 32.5946 31.8599 32.6814M43.9679 28.3787C44.9609 28.0319 46.0294 27.8431 47.1425 27.8431C48.2336 27.8431 49.2819 28.0245 50.2581 28.3583M31.8599 32.6814C31.4781 31.663 31.2695 30.5615 31.2695 29.4118C31.2695 24.2138 35.5335 20 40.7933 20C45.6928 20 49.7282 23.6562 50.2581 28.3583M31.8599 32.6814C32.8006 32.864 33.6751 33.229 34.4441 33.7377M50.2581 28.3583C53.9879 29.6337 56.6663 33.1352 56.6663 37.2549C56.6663 41.7666 53.454 45.5368 49.1663 46.4537" stroke="#F4F4F4" stroke-width="1.5" stroke-linecap="round"/>
<path d="M36.667 48L38.5718 50L43.3337 45" stroke="#F4F4F4" stroke-width="1.5" stroke-linecap="round" stroke-linejoin="round"/>
</svg>
