<svg width="80" height="80" viewBox="0 0 80 80" fill="none" xmlns="http://www.w3.org/2000/svg">
<circle cx="40" cy="40" r="40" fill="#E51F33"/>
<path d="M50.3001 31.3988L51.0725 30.6264C52.3522 29.3467 54.4271 29.3467 55.7069 30.6264C56.9866 31.9062 56.9866 33.9811 55.7069 35.2608L54.9345 36.0332M50.3001 31.3988C50.3001 31.3988 50.3966 33.0402 51.8449 34.4884C53.2931 35.9367 54.9345 36.0332 54.9345 36.0332M50.3001 31.3988L43.199 38.4999C42.7181 38.9808 42.4776 39.2213 42.2707 39.4865C42.0268 39.7993 41.8176 40.1377 41.647 40.4958C41.5023 40.7994 41.3947 41.122 41.1796 41.7673L40.491 43.8333L40.2682 44.5017M54.9345 36.0332L47.8334 43.1343C47.3524 43.6152 47.112 43.8557 46.8468 44.0625C46.534 44.3065 46.1956 44.5157 45.8375 44.6863C45.5339 44.831 45.2113 44.9386 44.566 45.1537L42.5 45.8423L41.8316 46.0651M41.8316 46.0651L41.1632 46.2879C40.8456 46.3938 40.4955 46.3111 40.2589 46.0744C40.0222 45.8377 39.9395 45.4876 40.0454 45.1701L40.2682 44.5017M41.8316 46.0651L40.2682 44.5017" stroke="#F4F4F4" stroke-width="1.5"/>
<path d="M33.333 39.6666H37.4997" stroke="#F4F4F4" stroke-width="1.5" stroke-linecap="round"/>
<path d="M33.333 33H44.1663" stroke="#F4F4F4" stroke-width="1.5" stroke-linecap="round"/>
<path d="M33.333 46.3334H35.833" stroke="#F4F4F4" stroke-width="1.5" stroke-linecap="round"/>
<path d="M53.0474 23.286C51.0948 21.3334 47.9521 21.3334 41.6667 21.3334H38.3333C32.0479 21.3334 28.9052 21.3334 26.9526 23.286C25 25.2386 25 28.3813 25 34.6667V41.3334C25 47.6188 25 50.7615 26.9526 52.7141C28.9052 54.6667 32.0479 54.6667 38.3333 54.6667H41.6667C47.9521 54.6667 51.0948 54.6667 53.0474 52.7141C54.6192 51.1423 54.9257 48.7993 54.9855 44.6667" stroke="#F4F4F4" stroke-width="1.5" stroke-linecap="round"/>
</svg>
