<svg width="25" height="25" viewBox="0 0 25 25" fill="none" xmlns="http://www.w3.org/2000/svg">
<path d="M18.75 8.3335L19.7382 8.6629C20.7695 9.00666 21.2851 9.17854 21.5801 9.58774C21.875 9.99694 21.875 10.5405 21.875 11.6275V17.5304C21.875 18.875 21.875 19.5474 21.5211 19.9793C21.4009 20.126 21.255 20.2496 21.0906 20.344C20.6064 20.6221 19.9432 20.5115 18.6168 20.2905C17.308 20.0723 16.6536 19.9633 16.005 20.0175C15.7774 20.0366 15.5513 20.0706 15.3281 20.1193C14.6923 20.2582 14.0937 20.5575 12.8965 21.1561C11.3343 21.9372 10.5532 22.3277 9.7217 22.4481C9.47127 22.4844 9.21854 22.5024 8.9655 22.5019C8.12537 22.5003 7.30402 22.2265 5.66133 21.6789L5.26179 21.5458C4.23051 21.202 3.71487 21.0301 3.41993 20.6209C3.125 20.2117 3.125 19.6682 3.125 18.5811V13.446C3.125 11.718 3.125 10.854 3.63376 10.3893C3.72279 10.308 3.82093 10.2373 3.92621 10.1785C4.52793 9.84281 5.3476 10.116 6.98693 10.6625" stroke="#8f9397" stroke-width="1.5"/>
<path d="M6.25 8.02131C6.25 4.74195 9.04822 2.0835 12.5 2.0835C15.9518 2.0835 18.75 4.74195 18.75 8.02131C18.75 11.275 16.7552 15.0717 13.6429 16.4294C12.9174 16.746 12.0826 16.746 11.3571 16.4294C8.24478 15.0717 6.25 11.275 6.25 8.02131Z" stroke="#8f9397" stroke-width="1.5"/>
<circle cx="12.4993" cy="8.33333" r="2.08333" stroke="#8f9397" stroke-width="1.5"/>
</svg>
