<svg width="351" height="489" viewBox="0 0 351 489" fill="none" xmlns="http://www.w3.org/2000/svg">
<g clip-path="url(#clip0_179_330)">
<path d="M77.3438 174.684C125.184 129.395 350.199 125.053 350.199 125.053C350.199 125.053 356.856 473.404 77.7467 488.214C36.871 490.384 16.9242 231.874 77.3438 174.684Z" fill="#BFBFBF"/>
<path d="M51.8187 130.066C61.2608 124.429 155.259 171.987 168.75 230.632C184.668 333.853 140.112 422.541 131.339 419.09C130.911 418.922 130.488 418.388 130.055 416.978C125.261 401.358 117.395 378.167 116.473 378.217C115.084 378.296 114.424 394.322 116.66 415.708C119.732 445.134 63.9147 496.895 54.2913 486.892C-41.0215 387.775 9.61861 155.259 51.8187 130.066Z" fill="#ADAEB2"/>
<path d="M197.156 226.685C112.191 226.685 43.3126 175.989 43.3126 113.451C43.3126 50.914 112.191 0.217529 197.156 0.217529C282.122 0.217529 351 50.914 351 113.451C351 175.989 282.122 226.685 197.156 226.685Z" fill="#CECECE"/>
<path d="M134.033 46.2132C161.76 44.9573 186.34 60.3799 197.696 83.4619C208.941 60.103 233.672 44.4529 261.6 45.7188C298.689 47.4 327.368 78.2897 325.656 114.708C323.943 151.126 292.485 179.286 255.396 177.605C229.87 176.448 208.326 161.455 197.932 140.346C187.634 161.712 165.96 176.932 140.232 178.099C103.143 179.78 71.6848 151.62 69.9726 115.202C68.2604 78.7842 96.9394 47.8944 134.028 46.2132H134.033Z" fill="#BFBFBF"/>
<path d="M182.472 154.632C188.968 151.146 194.306 145.899 197.856 139.526C201.406 145.904 206.749 151.146 213.24 154.632L197.856 181.932L182.472 154.632Z" fill="#25272D"/>
<path d="M133.131 58.2244C163.502 56.8448 189.296 80.3867 191.169 110.184C192.957 138.562 168.669 164.502 138.207 166.217C107.857 167.928 82.0782 144.535 80.6782 114.718C79.2783 84.9013 102.76 59.604 133.126 58.2294L133.131 58.2244Z" fill="#F4F4F4"/>
<path d="M118.165 93.851C118.346 93.6087 118.442 93.4801 118.442 93.4801L130.82 86.0482L170.482 111.197C170.487 111.242 183.645 120.068 183.65 120.107C183.65 120.107 180.367 119.331 176.968 118.075C176.253 117.808 171.041 116.666 171.005 116.893C167.586 137.463 144.905 142.116 144.905 142.116C127.939 146.126 113.451 133.686 110.52 121.259C108.118 111.078 111.326 100.897 118.165 93.8559V93.851Z" fill="#505259"/>
<path d="M119.897 99.9479L119.937 100.052C130.513 97.5793 136.052 97.5793 146.627 103.513C150.812 105.862 155.918 109.135 160.808 112.394C162.777 124.454 154.916 136.114 142.614 138.912C129.767 141.835 116.941 133.977 113.97 121.363C112.092 113.412 114.579 105.466 119.897 99.9479Z" fill="white"/>
<path d="M126.762 127.982C120.082 122.003 119.58 111.863 125.641 105.334C131.702 98.8053 142.031 98.3594 148.711 104.338C155.391 110.317 155.893 120.457 149.832 126.986C143.771 133.515 133.442 133.961 126.762 127.982Z" fill="#25272D"/>
<path d="M115.324 64.9935C123.382 77.8498 183.232 119.791 183.635 120.103C183.438 120.058 180.256 119.297 176.967 118.075C176.721 117.986 174.314 116.285 170.773 113.818C167.409 111.474 163.033 108.443 158.516 105.446C153.868 102.361 149.079 99.31 145.116 97.0848C141.168 94.8696 137.925 93.4851 134.853 92.7434C129.701 91.4973 121.644 96.1206 115.017 97.6683L115.319 64.9885L115.324 64.9935Z" fill="#25272D"/>
<path d="M119.898 99.9476C121.751 98.0241 123.952 96.3924 126.429 95.1611C128.111 94.3255 129.924 93.6678 131.848 93.2327C132.855 93.0003 133.857 92.8371 134.859 92.7432C137.931 93.4849 141.174 94.8694 145.122 97.0846C149.085 99.3098 153.874 102.361 158.522 105.446C159.383 107.098 160.053 108.888 160.496 110.782C160.612 111.266 160.703 111.731 160.783 112.216C160.793 112.27 160.804 112.339 160.809 112.394C155.919 109.135 150.818 105.862 146.633 103.513C136.058 97.5791 130.332 97.6236 119.757 100.096L119.903 99.9427L119.898 99.9476Z" fill="#CECECE"/>
<path d="M125.427 107.251C126.157 106.129 127.582 105.283 128.7 105.52C129.667 105.723 130.191 106.672 130.175 107.696C130.16 108.72 129.692 109.803 129.113 110.801C128.755 111.414 128.317 112.052 127.688 112.398C126.681 112.947 125.573 112.483 125.18 111.647C124.858 110.965 124.843 110.772 124.843 110.772C124.581 109.689 124.702 108.383 125.437 107.256L125.427 107.251Z" fill="white"/>
<path d="M204.458 109.689C206.332 79.8917 232.125 56.3548 262.496 57.7294C292.867 59.109 316.349 84.3963 314.944 114.218C313.539 144.04 287.766 167.433 257.415 165.717C226.953 164.002 202.671 138.062 204.453 109.684L204.458 109.689Z" fill="#F4F4F4"/>
<path d="M225.145 110.702L264.807 85.5536L277.185 92.9855C277.185 92.9855 277.286 93.1141 277.462 93.3564C284.301 100.398 287.509 110.579 285.106 120.76C282.176 133.186 267.688 145.627 250.722 141.617C250.722 141.617 228.041 136.964 224.621 116.394C224.581 116.161 219.374 117.309 218.659 117.576C215.26 118.832 211.976 119.608 211.976 119.608C211.976 119.568 225.14 110.742 225.145 110.697V110.702Z" fill="#505259"/>
<path d="M234.819 111.899C239.709 108.641 244.815 105.367 249 103.018C259.575 97.0847 265.114 97.0847 275.69 99.5571L275.73 99.4532C281.048 104.972 283.535 112.918 281.657 120.869C278.686 133.483 265.86 141.34 253.013 138.418C240.711 135.619 232.85 123.959 234.819 111.899Z" fill="white"/>
<path d="M245.926 126.641C239.793 120.039 240.237 109.837 246.917 103.854C253.597 97.8708 263.984 98.3722 270.117 104.974C276.249 111.575 275.805 121.777 269.125 127.761C262.445 133.744 252.059 133.242 245.926 126.641Z" fill="#25272D"/>
<path d="M280.302 64.4989L280.609 97.1737C273.982 95.626 265.92 91.0027 260.768 92.2487C257.696 92.9904 254.453 94.375 250.505 96.5902C246.542 98.8153 241.753 101.866 237.105 104.952C232.588 107.948 228.212 110.979 224.848 113.323C221.308 115.791 218.901 117.492 218.654 117.581C215.365 118.802 212.183 119.563 211.986 119.608C212.389 119.296 272.24 77.3552 280.297 64.4989H280.302Z" fill="#25272D"/>
<path d="M234.85 111.741C234.93 111.256 235.026 110.772 235.142 110.287C235.585 108.393 236.255 106.603 237.116 104.952C241.764 101.866 246.553 98.8154 250.516 96.5903C254.464 94.375 257.707 92.9905 260.779 92.2488C261.781 92.3427 262.783 92.5059 263.79 92.7383C265.714 93.1734 267.527 93.8311 269.209 94.6668C271.686 95.898 273.882 97.5298 275.735 99.4533L275.871 99.6016C265.296 97.1292 259.58 97.0847 249.005 103.018C244.821 105.367 239.714 108.641 234.824 111.899C234.83 111.845 234.84 111.795 234.85 111.741Z" fill="#CECECE"/>
<path d="M266.927 105.52C268.04 105.288 269.465 106.129 270.2 107.251C270.931 108.374 271.072 109.659 270.81 110.742C270.81 110.742 270.835 110.796 270.452 111.642C270.075 112.483 268.952 112.942 267.944 112.394C267.315 112.052 266.872 111.415 266.519 110.796C265.94 109.798 265.472 108.715 265.457 107.691C265.442 106.668 265.96 105.718 266.932 105.515L266.927 105.52Z" fill="white"/>
<path d="M143.525 57.082L146.043 59.5544C148.5 60.7955 149.195 61.0972 149.336 61.1565C149.195 61.1268 148.702 61.0823 152.086 63.5102C159.09 68.534 163.668 74.4825 170.023 80.2085C179.541 88.7876 188.429 103.142 197.63 115.519C206.961 103.033 215.96 88.4069 225.609 79.7141C231.964 73.9881 236.536 68.0396 243.541 63.0157C246.915 60.5977 246.437 60.6324 246.291 60.662C246.432 60.6027 247.132 60.3011 249.584 59.0599L252.102 56.5876C257.138 56.0931 268.242 57.8633 273.781 59.3467C263.161 63.9997 259.339 66.5512 250.007 73.2464C243.002 78.2702 236.556 83.9369 230.201 89.6629C219.968 98.8798 211.785 111.697 206.749 127.52C206.13 126.091 203.451 123.025 201.23 120.226L197.599 116.058L197.413 116.27C196.32 119.049 189.915 125.611 188.908 127.935C183.872 112.112 175.663 99.3743 165.431 90.1573C159.075 84.4313 152.629 78.7647 145.62 73.7408C136.293 67.0457 132.572 64.4645 121.946 59.8066C127.486 58.3232 138.489 56.5876 143.525 57.082Z" fill="#CECECE"/>
<path d="M197.715 0.0395159V0.00984764C235.267 -0.311559 272.996 8.35158 297.893 25.3663L231.551 72.5488L197.992 114.51V114.89L197.841 114.702L197.715 114.861V114.544L162.57 69.1567L97.8148 25.4009C122.651 8.42575 160.254 -0.237388 197.715 0.0395159Z" fill="#E51F33"/>
<path d="M58.0429 20.8765C64.2873 16.1049 73.5078 16.0159 82.0939 16.8515C82.6277 16.901 83.0456 16.6092 83.2169 16.2137C83.3579 15.8972 83.3327 15.5115 83.0658 15.195C79.8076 11.3332 96.8488 11.2541 115.904 18.8344C126.056 23.3291 135.589 29.6138 144.125 36.8381C150.53 42.2575 156.372 48.206 161.488 54.3127C173.705 68.8997 187.478 86.048 197.902 101.836C208.321 86.0776 222.054 68.9788 234.241 54.4314C239.357 48.3247 245.198 42.3762 251.604 36.9568C260.14 29.7325 269.672 23.4478 279.825 18.953C298.885 11.3678 315.921 11.4519 312.663 15.3137C312.396 15.6302 312.376 16.0159 312.512 16.3323C312.683 16.7279 313.101 17.0196 313.635 16.9702C322.221 16.1345 331.442 16.2235 337.686 20.9952C338.366 21.5095 338.144 22.5281 337.313 22.7654C322.71 26.8596 307.995 31.1269 293.965 36.5513C285.102 39.9829 276.511 43.8695 268.398 48.478C268.378 48.4879 268.363 48.4977 268.343 48.5076C257.723 54.1397 247.676 60.6024 238.753 68.4744C232.906 73.6318 227.619 79.3281 222.417 85.0788C217.416 90.602 212.481 97.9944 207.601 105.708C205.088 111.128 202.49 124.834 203.326 129.972C203.421 130.565 199.972 128.582 197.771 127.005C195.571 128.563 192.287 130.437 192.383 129.858C193.214 124.721 190.62 111.014 188.108 105.594C183.233 97.8757 178.293 90.4883 173.292 84.9651C168.095 79.2144 162.808 73.5131 156.956 68.3607C148.033 60.4887 137.986 54.0259 127.366 48.3939C127.346 48.384 127.33 48.3741 127.31 48.3642C119.198 43.7558 110.607 39.8692 101.744 36.4376C87.7138 31.0132 72.9992 26.7459 58.3954 22.6517C57.5645 22.4193 57.348 21.4007 58.0228 20.8815L58.0429 20.8765Z" fill="#383744"/>
<g clip-path="url(#clip1_179_330)">
<path d="M77.3442 172.097C125.184 127.478 350.103 124.102 350.103 124.102C350.103 124.102 356.856 466.395 77.747 480.985C36.8715 483.124 16.9248 228.441 77.3442 172.097Z" fill="#BFBFBF"/>
<path d="M51.819 128.14C61.2611 122.587 155.259 169.441 168.75 227.218C184.668 328.911 140.112 416.287 131.339 412.886C130.911 412.721 130.488 412.195 130.055 410.806C125.261 395.417 117.395 372.57 116.474 372.618C115.084 372.696 114.424 388.485 116.66 409.554C119.732 438.545 63.915 489.54 54.2916 479.685C-41.021 382.035 9.61902 152.961 51.819 128.14Z" fill="#ADAEB2"/>
<path d="M197.156 223.331C112.191 223.331 43.3126 173.384 43.3126 111.772C43.3126 50.1606 112.191 0.214355 197.156 0.214355C282.122 0.214355 351 50.1606 351 111.772C351 173.384 282.122 223.331 197.156 223.331Z" fill="#CECECE"/>
<path d="M134.034 45.5974C161.751 44.36 186.315 59.5397 197.681 82.2606C208.921 59.228 233.662 43.7901 261.6 45.0372C298.689 46.6935 327.368 77.126 325.656 113.005C323.944 148.884 292.485 176.627 255.396 174.971C229.885 173.831 208.352 159.075 197.953 138.298C187.66 159.367 165.976 174.376 140.238 175.526C103.149 177.182 71.6907 149.439 69.9785 113.56C68.2663 77.6813 96.9451 47.2489 134.034 45.5925V45.5974Z" fill="#BFBFBF"/>
<path d="M174.686 150.749L196.919 165.008L221.257 151.426C221.726 152.055 217.168 154.281 216.871 155.002L200.137 185.098C199.352 186.988 196.582 186.988 195.796 185.098L179.178 155.002C178.881 154.281 174.213 151.382 174.681 150.754L174.686 150.749Z" fill="#25272D"/>
<path d="M197.045 163.786C197.045 163.786 213.945 154.832 213.698 155.431L199.669 180.329C199.014 181.908 196.703 181.908 196.048 180.329L182.25 155.436C181.998 154.837 197.05 163.786 197.05 163.786H197.045Z" fill="#E51F33"/>
<path d="M197.64 138.035C201.598 145.04 210.673 149.619 217.914 153.453L214.812 155.275L200.969 164.404C198.919 165.758 196.23 165.793 194.14 164.497L181.903 155.616L178.559 153.229C185.801 149.4 193.682 145.035 197.645 138.03L197.64 138.035Z" fill="#25272D"/>
<path d="M133.131 57.3622C163.502 56.0031 189.296 79.1965 191.169 108.552C192.957 136.51 168.669 162.066 138.207 163.757C107.857 165.442 82.0784 142.395 80.6785 113.02C79.2735 83.6393 102.76 58.7214 133.126 57.3671L133.131 57.3622Z" fill="#F4F4F4"/>
<path d="M118.165 92.4617C118.346 92.223 118.442 92.0963 118.442 92.0963L130.82 84.7744L170.482 109.551C170.487 109.595 183.645 118.291 183.65 118.329C183.65 118.329 180.367 117.565 176.968 116.327C176.253 116.064 171.041 114.939 171.006 115.163C167.586 135.429 144.905 140.013 144.905 140.013C127.939 143.963 113.451 131.707 110.521 119.465C108.118 109.434 111.326 99.4036 118.165 92.4666V92.4617Z" fill="#505259"/>
<path d="M119.897 98.4682L119.937 98.5705C130.513 96.1347 137.729 94.1764 148.304 100.022C152.489 102.336 155.918 107.519 160.808 110.73C162.777 122.612 154.916 134.099 142.614 136.856C129.767 139.735 116.941 131.994 113.97 119.567C112.092 111.733 114.579 103.905 119.897 98.4682Z" fill="white"/>
<path d="M126.762 126.057C120.084 120.165 119.585 110.175 125.649 103.744C131.712 97.3141 142.041 96.8783 148.719 102.771C155.397 108.664 155.895 118.654 149.832 125.084C143.769 131.514 133.44 131.95 126.762 126.057Z" fill="#25272D"/>
<path d="M119.898 98.4683C121.751 96.5733 123.947 94.9657 126.424 93.7527C128.106 92.9294 129.919 92.2815 131.843 91.8528C132.85 91.6238 133.852 91.463 134.854 91.3705C137.926 92.1012 141.169 93.4652 145.117 95.6477C149.08 97.8399 153.869 100.846 158.517 103.885C159.378 105.513 160.048 107.276 160.491 109.142C160.607 109.619 160.703 110.097 160.783 110.574C160.793 110.628 160.804 110.676 160.809 110.73C155.919 107.52 151.709 103.364 147.524 101.05C136.949 95.2044 130.327 96.1836 119.752 98.6193L119.898 98.4683Z" fill="#CECECE"/>
<path d="M125.427 105.664C126.157 104.558 127.582 103.725 128.7 103.958C129.667 104.158 130.191 105.094 130.175 106.102C130.16 107.11 129.692 108.177 129.113 109.161C128.755 109.765 128.317 110.394 127.688 110.735C126.681 111.276 125.573 110.813 125.18 109.994C124.868 109.351 124.843 109.132 124.843 109.132C124.581 108.065 124.702 106.779 125.437 105.668L125.427 105.664Z" fill="white"/>
<path d="M183.635 118.325C183.438 118.281 180.256 117.531 176.967 116.327C176.721 116.24 174.314 114.564 170.773 112.133C167.409 109.824 163.033 106.838 158.516 103.885C153.868 100.846 149.079 97.8399 145.116 95.6477C141.168 93.4653 137.92 92.1159 134.853 91.3705C125.356 89.0663 116.825 93.4604 114.972 96.2908L97.8148 84.7696C145.62 72.6444 183.232 118.018 183.635 118.325Z" fill="#25272D"/>
<path d="M204.459 108.065C206.332 78.7092 232.125 55.5208 262.496 56.875C292.867 58.2342 316.349 83.1472 314.944 112.527C313.539 141.907 287.766 164.955 257.415 163.264C226.953 161.574 202.671 136.018 204.454 108.06L204.459 108.065Z" fill="#F4F4F4"/>
<path d="M225.145 109.064L264.807 84.2871L277.185 91.609C277.185 91.609 277.286 91.7357 277.462 91.9744C284.301 98.9114 287.508 108.942 285.106 118.972C282.176 131.215 267.688 143.471 250.722 139.52C250.722 139.52 228.041 134.936 224.621 114.671C224.581 114.442 219.374 115.572 218.659 115.835C215.26 117.072 211.977 117.837 211.977 117.837C211.977 117.798 225.14 109.103 225.145 109.059V109.064Z" fill="#505259"/>
<path d="M234.819 110.243C239.709 107.032 243.148 102.024 247.333 99.7104C257.908 93.8646 265.114 95.6476 275.69 98.0833L275.73 97.981C281.048 103.418 283.535 111.246 281.657 119.08C278.686 131.507 265.86 139.248 253.013 136.369C240.711 133.611 232.85 122.124 234.819 110.243Z" fill="white"/>
<path d="M245.922 124.753C239.791 118.248 240.236 108.198 246.917 102.304C253.599 96.4107 263.985 96.9065 270.117 103.411C276.248 109.916 275.803 119.967 269.122 125.861C262.44 131.754 252.054 131.258 245.922 124.753Z" fill="#25272D"/>
<path d="M234.844 110.087C234.924 109.609 235.02 109.132 235.136 108.655C235.579 106.789 236.249 105.025 237.11 103.398C241.758 100.358 246.547 97.3526 250.51 95.1604C254.458 92.9779 257.701 91.6139 260.773 90.8832C261.775 90.9757 262.777 91.1365 263.785 91.3655C265.708 91.7942 267.521 92.4421 269.203 93.2654C271.681 94.4784 273.876 96.086 275.729 97.981L275.891 98.1418C265.315 95.706 258.623 94.7171 248.048 100.563C243.863 102.877 239.708 107.032 234.819 110.243C234.824 110.189 234.834 110.14 234.844 110.087Z" fill="#CECECE"/>
<path d="M266.927 103.958C268.04 103.729 269.465 104.558 270.201 105.663C270.931 106.769 271.052 108.06 270.795 109.127C270.795 109.127 270.765 109.361 270.458 109.989C270.055 110.808 268.957 111.271 267.95 110.73C267.32 110.394 266.877 109.765 266.525 109.156C265.945 108.172 265.477 107.105 265.462 106.097C265.447 105.089 265.966 104.153 266.937 103.954L266.927 103.958Z" fill="white"/>
<path d="M298.346 84.2726L280.796 96.0471C278.968 93.207 270.805 88.5693 261.307 90.8686C258.241 91.614 254.993 92.9634 251.044 95.1458C247.081 97.338 242.292 100.344 237.644 103.384C233.127 106.336 228.751 109.322 225.387 111.631C221.847 114.062 219.742 115.509 219.495 115.597C216.02 116.824 212.173 117.794 211.977 117.837C212.38 117.531 250.541 72.1473 298.346 84.2677V84.2726Z" fill="#25272D"/>
<path d="M143.524 56.2369L146.042 58.6727C153.057 62.1704 145.725 58.0735 152.085 62.5699C159.09 67.5193 163.668 73.3798 170.023 79.021C179.54 87.4633 215.924 87.0931 225.568 78.5387C231.923 72.8975 236.495 67.0371 243.505 62.0876C249.865 57.5912 242.533 61.6881 249.548 58.1904L252.066 55.7546C257.102 55.2675 267.984 56.9774 273.523 58.4388C262.898 63.0278 259.297 65.5659 249.971 72.1619C242.966 77.1114 236.515 82.6941 230.165 88.3353C219.933 97.4159 211.719 109.984 206.683 125.573C205.636 123.196 203.909 117.832 204.745 108.62L190.559 107.441C192.603 114.076 190.02 123.459 188.972 125.836C183.937 110.247 175.668 97.903 165.435 88.8176C159.08 83.1764 152.634 77.5936 145.629 72.6442C136.303 66.0481 132.541 63.5344 121.916 58.9455C127.506 57.6155 138.499 55.7449 143.534 56.232L143.524 56.2369Z" fill="#CECECE"/>
<path d="M197.715 0.0389491V0.00971996C235.267 -0.306929 272.996 8.22799 297.893 24.9909L231.551 71.4751L197.992 112.815V113.19L197.841 113.005L197.715 113.161V112.849L163.054 69.6628L97.8152 25.025C122.652 8.30106 160.254 -0.233857 197.715 0.0389491Z" fill="#E51F33"/>
<path d="M58.2688 20.5336C64.5132 15.8326 73.7338 15.7449 82.3198 16.5682C82.8536 16.6169 83.2715 16.3294 83.4428 15.9397C83.5838 15.6279 83.5586 15.248 83.2917 14.9362C80.0335 11.1315 97.0747 11.0536 116.13 18.5216C126.282 22.9499 135.815 29.1416 144.351 36.2589C150.756 41.598 156.598 47.4585 161.714 53.4748C173.891 67.7971 187.613 84.6234 198.027 100.139C208.426 84.6672 222.103 67.8994 234.245 53.621C239.361 47.6046 245.203 41.7442 251.608 36.405C260.144 29.2877 269.677 23.096 279.829 18.6678C298.889 11.1949 315.925 11.2777 312.667 15.0823C312.4 15.3941 312.38 15.7741 312.516 16.0859C312.687 16.4756 313.105 16.763 313.639 16.7143C322.225 15.891 331.446 15.9787 337.69 20.6797C338.37 21.1864 338.148 22.1899 337.317 22.4237C322.714 26.4573 307.999 30.6615 293.969 36.0055C285.106 39.3864 276.515 43.2154 268.402 47.7557C268.382 47.7654 268.367 47.7751 268.347 47.7849C257.727 53.3335 247.68 59.7006 238.757 67.4561C232.91 72.5371 227.623 78.1491 222.421 83.8147C217.42 89.2562 212.485 96.5391 207.605 104.139C205.087 109.478 202.494 122.982 203.33 128.043C203.426 128.618 200.067 126.728 197.866 125.184C195.665 126.699 192.518 128.457 192.614 127.897C193.445 122.836 190.851 109.332 188.338 103.993C183.464 96.3881 178.524 89.11 173.523 83.6685C168.326 78.003 163.039 72.3861 157.187 67.31C148.264 59.5545 138.217 53.1874 127.597 47.6387C127.576 47.629 127.561 47.6193 127.541 47.6095C119.429 43.0692 110.837 39.2402 101.974 35.8594C87.9448 30.5153 73.2302 26.3112 58.6263 22.2776C57.7954 22.0486 57.5789 21.0451 58.2537 20.5336H58.2688Z" fill="#383744"/>
</g>
</g>
<defs>
<clipPath id="clip0_179_330">
<rect width="351" height="488.227" fill="white" transform="matrix(-1 0 0 1 351 0)"/>
</clipPath>
<clipPath id="clip1_179_330">
<rect width="351" height="481" fill="white" transform="matrix(-1 0 0 1 351 0)"/>
</clipPath>
</defs>
</svg>
