<svg width="689" height="672" viewBox="0 0 689 672" fill="none" xmlns="http://www.w3.org/2000/svg">
<ellipse opacity="0.05" cx="344.412" cy="335.706" rx="344.412" ry="335.706" fill="#0A142F"/>
<ellipse opacity="0.05" cx="344.413" cy="335.706" rx="307.984" ry="300.199" fill="#0A142F"/>
<ellipse opacity="0.05" cx="344.412" cy="335.706" rx="275.53" ry="268.565" fill="white"/>
<g clip-path="url(#clip0_42_228)">
<path d="M441.913 250.709C406.724 217.858 241.284 215.372 241.284 215.372C241.284 215.372 236.317 467.392 441.617 478.134C471.683 479.709 486.355 292.193 441.913 250.709Z" fill="#BFBFBF"/>
<path d="M460.69 218.346C453.744 214.257 384.603 248.754 374.68 291.293C362.971 366.167 395.745 430.499 402.198 427.995C402.513 427.873 402.824 427.486 403.143 426.464C406.669 415.133 412.455 398.311 413.132 398.347C414.155 398.404 414.64 410.029 412.995 425.542C410.736 446.887 451.792 484.433 458.871 477.177C528.979 405.28 491.73 236.62 460.69 218.346Z" fill="#ADAEB2"/>
<path d="M353.786 288.431C416.282 288.431 466.946 251.657 466.946 206.294C466.946 160.932 416.282 124.158 353.786 124.158C291.289 124.158 240.625 160.932 240.625 206.294C240.625 251.657 291.289 288.431 353.786 288.431Z" fill="#CECECE"/>
<path d="M400.216 157.572C379.829 156.661 361.76 167.837 353.4 184.566C345.132 167.608 326.934 156.241 306.384 157.159C279.103 158.379 258.008 180.785 259.267 207.202C260.527 233.618 283.666 254.045 310.947 252.825C329.712 251.986 345.551 241.122 353.2 225.824C360.771 241.337 376.721 252.388 395.653 253.234C422.933 254.454 446.073 234.027 447.332 207.611C448.592 181.194 427.497 158.788 400.216 157.568V157.572Z" fill="#BFBFBF"/>
<path d="M370.314 234.992L353.96 245.49L336.058 235.49C335.714 235.953 339.066 237.592 339.284 238.123L351.593 260.282C352.171 261.674 354.208 261.674 354.786 260.282L367.009 238.123C367.228 237.592 370.662 235.458 370.317 234.995L370.314 234.992Z" fill="#25272D"/>
<path d="M353.868 244.59C353.868 244.59 341.437 237.998 341.618 238.439L351.938 256.771C352.419 257.933 354.12 257.933 354.601 256.771L364.75 238.442C364.936 238.001 353.864 244.59 353.864 244.59H353.868Z" fill="#E51F33"/>
<path d="M353.43 225.63C350.519 230.788 343.844 234.16 338.518 236.982L340.799 238.324L350.982 245.045C352.489 246.043 354.467 246.068 356.005 245.114L365.006 238.575L367.465 236.817C362.139 233.998 356.342 230.785 353.427 225.627L353.43 225.63Z" fill="#25272D"/>
<path d="M400.879 166.234C378.54 165.233 359.567 182.31 358.189 203.924C356.874 224.508 374.739 243.324 397.145 244.569C419.47 245.81 438.431 228.841 439.461 207.213C440.495 185.581 423.219 167.235 400.883 166.238L400.879 166.234Z" fill="#F4F4F4"/>
<path d="M411.888 192.076C411.755 191.901 411.684 191.807 411.684 191.807L402.58 186.417L373.406 204.659C373.402 204.691 363.723 211.093 363.72 211.122C363.72 211.122 366.135 210.559 368.635 209.648C369.161 209.454 372.995 208.626 373.021 208.791C375.536 223.712 392.219 227.087 392.219 227.087C404.698 229.996 415.355 220.971 417.511 211.958C419.278 204.573 416.918 197.188 411.888 192.08V192.076Z" fill="#505259"/>
<path d="M410.614 196.499L410.584 196.574C402.805 194.781 397.497 193.339 389.719 197.643C386.641 199.347 384.118 203.163 380.522 205.527C379.073 214.275 384.855 222.732 393.904 224.763C403.354 226.882 412.788 221.183 414.973 212.033C416.355 206.266 414.525 200.502 410.614 196.499Z" fill="white"/>
<path d="M405.564 216.812C410.476 212.473 410.843 205.118 406.383 200.384C401.923 195.649 394.326 195.328 389.414 199.667C384.502 204.006 384.135 211.361 388.595 216.095C393.055 220.83 400.652 221.151 405.564 216.812Z" fill="#25272D"/>
<path d="M410.614 196.499C409.251 195.104 407.636 193.92 405.813 193.027C404.576 192.421 403.242 191.944 401.827 191.628C401.087 191.46 400.35 191.341 399.612 191.273C397.353 191.811 394.967 192.815 392.063 194.422C389.148 196.036 385.626 198.249 382.207 200.487C381.573 201.685 381.081 202.984 380.755 204.358C380.67 204.709 380.599 205.061 380.54 205.412C380.533 205.451 380.525 205.487 380.521 205.527C384.118 203.163 387.215 200.104 390.293 198.4C398.072 194.096 402.942 194.817 410.721 196.61L410.614 196.499Z" fill="#CECECE"/>
<path d="M406.547 201.797C406.01 200.982 404.962 200.369 404.139 200.541C403.428 200.688 403.043 201.377 403.054 202.119C403.065 202.862 403.41 203.647 403.836 204.372C404.098 204.817 404.421 205.279 404.884 205.53C405.625 205.929 406.439 205.588 406.728 204.985C406.958 204.512 406.977 204.35 406.977 204.35C407.169 203.565 407.08 202.618 406.54 201.8L406.547 201.797Z" fill="white"/>
<path d="M363.73 211.119C363.875 211.086 366.216 210.534 368.635 209.648C368.816 209.583 370.587 208.35 373.191 206.56C375.665 204.86 378.884 202.661 382.207 200.487C385.625 198.249 389.148 196.036 392.063 194.422C394.967 192.815 397.356 191.822 399.612 191.273C406.598 189.577 412.873 192.812 414.236 194.896L426.856 186.413C391.693 177.486 364.027 210.893 363.73 211.119Z" fill="#25272D"/>
<path d="M348.415 203.565C347.037 181.951 328.064 164.878 305.725 165.875C283.385 166.876 266.113 185.219 267.147 206.85C268.18 228.482 287.138 245.451 309.462 244.206C331.869 242.962 349.73 224.146 348.418 203.561L348.415 203.565Z" fill="#F4F4F4"/>
<path d="M333.198 204.3L304.025 186.058L294.92 191.449C294.92 191.449 294.846 191.542 294.716 191.718C289.686 196.825 287.326 204.21 289.093 211.596C291.249 220.609 301.906 229.633 314.385 226.724C314.385 226.724 331.068 223.349 333.583 208.428C333.613 208.26 337.443 209.092 337.969 209.286C340.469 210.197 342.884 210.76 342.884 210.76C342.884 210.731 333.202 204.329 333.198 204.297V204.3Z" fill="#505259"/>
<path d="M326.083 205.168C322.486 202.804 319.956 199.117 316.878 197.414C309.099 193.109 303.799 194.422 296.02 196.216L295.99 196.14C292.079 200.143 290.249 205.907 291.631 211.674C293.816 220.824 303.25 226.524 312.7 224.404C321.749 222.374 327.531 213.916 326.083 205.168Z" fill="white"/>
<path d="M317.916 215.852C322.426 211.063 322.098 203.662 317.184 199.323C312.269 194.984 304.629 195.349 300.119 200.139C295.609 204.928 295.937 212.328 300.851 216.667C305.766 221.006 313.406 220.641 317.916 215.852Z" fill="#25272D"/>
<path d="M326.064 205.053C326.005 204.702 325.935 204.35 325.849 203.999C325.523 202.625 325.031 201.327 324.397 200.129C320.979 197.891 317.456 195.678 314.541 194.064C311.637 192.457 309.251 191.452 306.992 190.914C306.255 190.983 305.518 191.101 304.777 191.269C303.362 191.585 302.028 192.062 300.791 192.668C298.969 193.561 297.354 194.745 295.991 196.14L295.872 196.259C303.651 194.465 308.573 193.737 316.352 198.041C319.43 199.745 322.486 202.804 326.083 205.168C326.079 205.129 326.072 205.093 326.064 205.053Z" fill="#CECECE"/>
<path d="M302.466 200.541C301.647 200.373 300.599 200.982 300.058 201.797C299.521 202.611 299.432 203.561 299.621 204.347C299.621 204.347 299.643 204.519 299.869 204.982C300.165 205.584 300.973 205.925 301.714 205.527C302.177 205.279 302.503 204.817 302.762 204.368C303.188 203.644 303.532 202.858 303.543 202.116C303.555 201.373 303.173 200.685 302.458 200.538L302.466 200.541Z" fill="white"/>
<path d="M279.355 186.047L292.264 194.716C293.609 192.625 299.613 189.211 306.599 190.904C308.855 191.452 311.244 192.446 314.148 194.053C317.063 195.667 320.586 197.88 324.005 200.118C327.327 202.292 330.546 204.49 333.021 206.19C335.625 207.98 337.173 209.045 337.354 209.11C339.91 210.014 342.74 210.728 342.885 210.76C342.588 210.534 314.519 177.12 279.355 186.044V186.047Z" fill="#25272D"/>
<path d="M393.234 165.405L391.382 167.199C386.222 169.774 391.615 166.758 386.937 170.068C381.784 173.712 378.417 178.027 373.743 182.181C366.742 188.396 339.98 188.124 332.887 181.826C328.212 177.672 324.849 173.357 319.692 169.713C315.014 166.403 320.407 169.419 315.248 166.844L313.396 165.05C309.691 164.692 301.687 165.951 297.612 167.027C305.428 170.405 308.076 172.274 314.936 177.13C320.089 180.775 324.834 184.885 329.505 189.038C337.031 195.724 343.073 204.978 346.777 216.456C347.547 214.705 348.818 210.756 348.203 203.974L358.637 203.106C357.134 207.991 359.034 214.899 359.804 216.649C363.508 205.172 369.59 196.083 377.117 189.394C381.792 185.24 386.533 181.13 391.685 177.486C398.545 172.629 401.312 170.778 409.128 167.4C405.017 166.42 396.931 165.043 393.226 165.402L393.234 165.405Z" fill="#CECECE"/>
<path d="M353.374 124.029V124.007C325.753 123.774 298.002 130.058 279.688 142.4L328.486 176.625L353.171 207.062V207.338L353.282 207.202L353.374 207.317V207.087L378.87 175.29L426.857 142.425C408.588 130.112 380.929 123.828 353.374 124.029Z" fill="#E51F33"/>
<path d="M455.944 139.118C451.351 135.657 444.569 135.592 438.254 136.198C437.861 136.234 437.554 136.023 437.428 135.736C437.324 135.506 437.342 135.226 437.539 134.997C439.935 132.196 427.401 132.138 413.384 137.637C405.917 140.897 398.905 145.456 392.626 150.696C387.915 154.627 383.618 158.942 379.855 163.372C370.898 173.917 360.805 186.305 353.144 197.729C345.495 186.338 335.435 173.992 326.504 163.479C322.741 159.05 318.444 154.735 313.733 150.804C307.454 145.563 300.442 141.005 292.975 137.744C278.955 132.242 266.424 132.303 268.82 135.105C269.017 135.334 269.032 135.614 268.932 135.843C268.806 136.13 268.498 136.342 268.106 136.306C261.79 135.7 255.008 135.764 250.415 139.226C249.915 139.599 250.078 140.338 250.689 140.51C261.431 143.48 272.254 146.575 282.574 150.51C289.093 152.999 295.412 155.818 301.38 159.161C301.394 159.168 301.405 159.175 301.42 159.182C309.232 163.268 316.622 167.956 323.186 173.666C327.486 177.407 331.375 181.539 335.202 185.71C338.88 189.716 342.51 195.079 346.099 200.674C347.951 204.605 349.859 214.547 349.244 218.274C349.174 218.697 351.644 217.306 353.263 216.169C354.882 217.284 357.197 218.579 357.126 218.166C356.515 214.44 358.423 204.497 360.271 200.566C363.857 194.967 367.49 189.609 371.169 185.602C374.991 181.431 378.881 177.295 383.185 173.558C389.748 167.848 397.138 163.16 404.95 159.075C404.965 159.068 404.976 159.06 404.991 159.053C410.958 155.71 417.277 152.891 423.797 150.402C434.116 146.467 444.94 143.372 455.682 140.402C456.293 140.234 456.452 139.495 455.956 139.118H455.944Z" fill="#383744"/>
</g>
<mask id="mask0_42_228" style="mask-type:luminance" maskUnits="userSpaceOnUse" x="68" y="67" width="552" height="538">
<ellipse cx="344.412" cy="335.706" rx="275.53" ry="268.565" fill="white"/>
</mask>
<g mask="url(#mask0_42_228)">
</g>
<defs>
<clipPath id="clip0_42_228">
<rect width="258.18" height="354.145" fill="white" transform="translate(240.625 124)"/>
</clipPath>
</defs>
</svg>
