<svg width="1440" height="7337" viewBox="0 0 1440 7337" fill="none" xmlns="http://www.w3.org/2000/svg">
<g clip-path="url(#clip0_318_532)">
<rect width="1440" height="5676" transform="translate(0 725)" fill="white"/>
<path d="M1026.83 3105.32L436.054 3109.97L-5.51071 3110.57L-5.17572 2783.82L312.187 2439.12L1026.83 3105.32Z" fill="#C4C4C4" fill-opacity="0"/>
<path d="M1026.83 3105.32L436.054 3109.97L-5.51071 3110.57L-5.17572 2783.82L312.187 2439.12L1026.83 3105.32Z" fill="#F8F8F8" fill-opacity="0.5"/>
<path d="M1026.83 5544.32L436.054 5548.97L-5.51071 5549.57L-5.17572 5222.82L312.187 4878.12L1026.83 5544.32Z" fill="#C4C4C4" fill-opacity="0"/>
<path d="M1026.83 5544.32L436.054 5548.97L-5.51071 5549.57L-5.17572 5222.82L312.187 4878.12L1026.83 5544.32Z" fill="#F8F8F8" fill-opacity="0.5"/>
<path d="M421 1915.18L1024.34 1915.67L1445.51 1915.33L1445.96 2291.46L1136.03 2621.43L421 1915.18Z" fill="#C4C4C4" fill-opacity="0"/>
<path d="M421 1915.18L1024.34 1915.67L1445.51 1915.33L1445.96 2291.46L1136.03 2621.43L421 1915.18Z" fill="#F8F8F8" fill-opacity="0.5"/>
<path d="M421 4349.18L1024.34 4349.67L1445.51 4349.33L1445.96 4725.46L1136.03 5055.43L421 4349.18Z" fill="#C4C4C4" fill-opacity="0"/>
<path d="M421 4349.18L1024.34 4349.67L1445.51 4349.33L1445.96 4725.46L1136.03 5055.43L421 4349.18Z" fill="#F8F8F8" fill-opacity="0.5"/>
<path d="M1069.04 701.95L457.959 693.545L1.23049 690.25L3.55894 1028.48L333.908 1387.23L1069.04 701.95Z" fill="#C4C4C4" fill-opacity="0"/>
<path d="M1069.04 701.95L457.959 693.545L1.23049 690.25L3.55894 1028.48L333.908 1387.23L1069.04 701.95Z" fill="#F8F8F8" fill-opacity="0.5"/>
<path d="M1026.55 3105.93L432.492 3097.76L-11.5117 3094.56L-9.24817 3423.37L311.897 3772.12L1026.55 3105.93Z" fill="#C4C4C4" fill-opacity="0"/>
<path d="M1026.55 3105.93L432.492 3097.76L-11.5117 3094.56L-9.24817 3423.37L311.897 3772.12L1026.55 3105.93Z" fill="#F8F8F8" fill-opacity="0.5"/>
<path d="M1026.55 5544.93L432.492 5536.76L-11.5117 5533.56L-9.24817 5862.37L311.897 6211.12L1026.55 5544.93Z" fill="#C4C4C4" fill-opacity="0"/>
<path d="M1026.55 5544.93L432.492 5536.76L-11.5117 5533.56L-9.24817 5862.37L311.897 6211.12L1026.55 5544.93Z" fill="#F8F8F8" fill-opacity="0.5"/>
<path d="M419 1914.64L1023.08 1914.89L1444.76 1915.74L1444.76 1539.16L1134.04 1208.4L419 1914.64Z" fill="#C4C4C4" fill-opacity="0"/>
<path d="M419 1914.64L1023.08 1914.89L1444.76 1915.74L1444.76 1539.16L1134.04 1208.4L419 1914.64Z" fill="#F8F8F8" fill-opacity="0.5"/>
<path d="M419 4348.64L1023.08 4348.89L1444.76 4349.74L1444.76 3973.16L1134.04 3642.4L419 4348.64Z" fill="#C4C4C4" fill-opacity="0"/>
<path d="M419 4348.64L1023.08 4348.89L1444.76 4349.74L1444.76 3973.16L1134.04 3642.4L419 4348.64Z" fill="#F8F8F8" fill-opacity="0.5"/>
<path d="M411 6400.82L1018.37 6403.36L1442.36 6405.82L1440.93 6027.18L1127.26 5693.44L411 6400.82Z" fill="#C4C4C4" fill-opacity="0"/>
<path d="M411 6400.82L1018.37 6403.36L1442.36 6405.82L1440.93 6027.18L1127.26 5693.44L411 6400.82Z" fill="#F8F8F8" fill-opacity="0.5"/>
</g>
<g clip-path="url(#clip1_318_532)">
<rect width="1440" height="725" fill="white"/>
<path d="M509 -0.194336L1058.22 -0.415652L1441.61 -1.19483V341.195L1159.11 641.916L509 -0.194336Z" fill="#C4C4C4" fill-opacity="0"/>
<path d="M509 -0.194336L1058.22 -0.415652L1441.61 -1.19483V341.195L1159.11 641.916L509 -0.194336Z" fill="#F8F8F8" fill-opacity="0.5"/>
<path d="M1046.66 724.797L448.679 729.189L1.7266 729.552L1.88776 398.841L322.935 50.131L1046.66 724.797Z" fill="#C4C4C4" fill-opacity="0"/>
<path d="M1046.66 724.797L448.679 729.189L1.7266 729.552L1.88776 398.841L322.935 50.131L1046.66 724.797Z" fill="#F8F8F8" fill-opacity="0.5"/>
</g>
<g clip-path="url(#clip2_318_532)">
<rect width="1440" height="935.294" transform="translate(0 6401)" fill="white"/>
<path d="M402 6391.45L1013.88 6397.97L1441 6401.79L1445.03 6802.44L1133.83 7150.83L402 6391.45Z" fill="#C4C4C4" fill-opacity="0"/>
<path d="M402 6391.45L1013.88 6397.97L1441 6401.79L1445.03 6802.44L1133.83 7150.83L402 6391.45Z" fill="#F8F8F8" fill-opacity="0.5"/>
</g>
<defs>
<clipPath id="clip0_318_532">
<rect width="1440" height="5676" fill="white" transform="translate(0 725)"/>
</clipPath>
<clipPath id="clip1_318_532">
<rect width="1440" height="725" fill="white"/>
</clipPath>
<clipPath id="clip2_318_532">
<rect width="1440" height="935.294" fill="white" transform="translate(0 6401)"/>
</clipPath>
</defs>
</svg>
