<svg width="25" height="25" viewBox="0 0 25 25" fill="none" xmlns="http://www.w3.org/2000/svg">
<path d="M2.08398 12.4998C2.08398 8.57147 2.08398 6.60728 3.30437 5.38689C4.52476 4.1665 6.48895 4.1665 10.4173 4.1665H14.584C18.5124 4.1665 20.4765 4.1665 21.6969 5.38689C22.9173 6.60728 22.9173 8.57147 22.9173 12.4998V14.5832C22.9173 18.5115 22.9173 20.4757 21.6969 21.6961C20.4765 22.9165 18.5124 22.9165 14.584 22.9165H10.4173C6.48895 22.9165 4.52476 22.9165 3.30437 21.6961C2.08398 20.4757 2.08398 18.5115 2.08398 14.5832V12.4998Z" stroke="#25272D" stroke-width="1.5"/>
<path d="M7.29102 4.1665V2.604" stroke="#25272D" stroke-width="1.5" stroke-linecap="round"/>
<path d="M17.709 4.1665V2.604" stroke="#25272D" stroke-width="1.5" stroke-linecap="round"/>
<path d="M2.60352 9.375H22.3952" stroke="#25272D" stroke-width="1.5" stroke-linecap="round"/>
<path d="M18.7493 17.7083C18.7493 18.2836 18.283 18.75 17.7077 18.75C17.1324 18.75 16.666 18.2836 16.666 17.7083C16.666 17.133 17.1324 16.6667 17.7077 16.6667C18.283 16.6667 18.7493 17.133 18.7493 17.7083Z" fill="#25272D"/>
<path d="M18.7493 13.5417C18.7493 14.117 18.283 14.5833 17.7077 14.5833C17.1324 14.5833 16.666 14.117 16.666 13.5417C16.666 12.9664 17.1324 12.5 17.7077 12.5C18.283 12.5 18.7493 12.9664 18.7493 13.5417Z" fill="#25272D"/>
<path d="M13.5423 17.7083C13.5423 18.2836 13.0759 18.75 12.5007 18.75C11.9254 18.75 11.459 18.2836 11.459 17.7083C11.459 17.133 11.9254 16.6667 12.5007 16.6667C13.0759 16.6667 13.5423 17.133 13.5423 17.7083Z" fill="#25272D"/>
<path d="M13.5423 13.5417C13.5423 14.117 13.0759 14.5833 12.5007 14.5833C11.9254 14.5833 11.459 14.117 11.459 13.5417C11.459 12.9664 11.9254 12.5 12.5007 12.5C13.0759 12.5 13.5423 12.9664 13.5423 13.5417Z" fill="#25272D"/>
<path d="M8.33333 17.7083C8.33333 18.2836 7.86696 18.75 7.29167 18.75C6.71637 18.75 6.25 18.2836 6.25 17.7083C6.25 17.133 6.71637 16.6667 7.29167 16.6667C7.86696 16.6667 8.33333 17.133 8.33333 17.7083Z" fill="#25272D"/>
<path d="M8.33333 13.5417C8.33333 14.117 7.86696 14.5833 7.29167 14.5833C6.71637 14.5833 6.25 14.117 6.25 13.5417C6.25 12.9664 6.71637 12.5 7.29167 12.5C7.86696 12.5 8.33333 12.9664 8.33333 13.5417Z" fill="#25272D"/>
</svg>
