<svg width="25" height="25" viewBox="0 0 25 25" fill="none" xmlns="http://www.w3.org/2000/svg">
<path d="M2.08398 12.4998C2.08398 8.57147 2.08398 6.60728 3.30437 5.38689C4.52476 4.1665 6.48895 4.1665 10.4173 4.1665H14.584C18.5124 4.1665 20.4765 4.1665 21.6969 5.38689C22.9173 6.60728 22.9173 8.57147 22.9173 12.4998C22.9173 16.4282 22.9173 18.3924 21.6969 19.6128C20.4765 20.8332 18.5124 20.8332 14.584 20.8332H10.4173C6.48895 20.8332 4.52476 20.8332 3.30437 19.6128C2.08398 18.3924 2.08398 16.4282 2.08398 12.4998Z" stroke="#25272D" stroke-width="1.5"/>
<path d="M6.25 8.3335L8.49885 10.2075C10.412 11.8018 11.3686 12.599 12.5 12.599C13.6314 12.599 14.588 11.8018 16.5012 10.2075L18.75 8.3335" stroke="#25272D" stroke-width="1.5" stroke-linecap="round"/>
</svg>
