<svg width="152.000000" height="209.000000" viewBox="0 0 152 209" fill="none" xmlns="http://www.w3.org/2000/svg" xmlns:xlink="http://www.w3.org/1999/xlink">
	<desc>
			Created with Pixso.
	</desc>
	<defs>
		<clipPath id="clip603_2217">
			<rect id="INSOMAR_Mascot_Joy 1" width="152.000000" height="208.861755" fill="white" fill-opacity="0"/>
		</clipPath>
	</defs>
	<rect id="INSOMAR_Mascot_Joy 1" width="152.000000" height="208.861755" fill="#FFFFFF" fill-opacity="0"/>
	<g clip-path="url(#clip603_2217)">
		<path id="Vector" d="M118.5 74.72C97.78 55.35 0.39 53.88 0.39 53.88C0.39 53.88 -2.54 202.52 118.33 208.85C136.03 209.78 144.67 99.19 118.5 74.72Z" fill="#BFBFBF" fill-opacity="1.000000" fill-rule="nonzero"/>
		<path id="Vector" d="M129.56 55.64C125.47 53.23 84.76 73.57 78.92 98.66C72.03 142.82 91.32 180.76 95.12 179.28C95.3 179.21 95.49 178.98 95.67 178.38C97.75 171.7 101.16 161.77 101.56 161.8C102.16 161.83 102.44 168.68 101.48 177.83C100.15 190.42 124.32 212.57 128.49 208.29C169.76 165.88 147.83 66.41 129.56 55.64Z" fill="#ADAEB2" fill-opacity="1.000000" fill-rule="nonzero"/>
		<path id="Vector" d="M133.24 48.53C133.24 75.28 103.41 96.97 66.62 96.97C29.82 96.97 0 75.28 0 48.53C0 21.78 29.82 0.09 66.62 0.09C103.41 0.09 133.24 21.78 133.24 48.53Z" fill="#CECECE" fill-opacity="1.000000" fill-rule="evenodd"/>
		<path id="Vector" d="M93.95 19.79C81.95 19.26 71.31 25.85 66.39 35.71C61.52 25.71 50.81 19.01 38.71 19.55C22.65 20.27 10.23 33.48 10.97 49.06C11.71 64.64 25.33 76.69 41.4 75.97C52.44 75.48 61.77 69.07 66.27 60.05C70.73 69.2 80.12 75.71 91.27 76.21C107.33 76.93 120.95 64.89 121.69 49.31C122.43 33.73 110.02 20.51 93.95 19.79L93.95 19.79Z" fill="#BFBFBF" fill-opacity="1.000000" fill-rule="nonzero"/>
		<path id="Vector" d="M76.35 65.45L66.72 71.65L56.18 65.75C55.98 66.02 57.95 66.99 58.08 67.3L65.32 80.37C65.66 81.19 66.86 81.19 67.2 80.37L74.4 67.3C74.53 66.99 76.55 65.73 76.35 65.46L76.35 65.45Z" fill="#25272D" fill-opacity="1.000000" fill-rule="nonzero"/>
		<path id="Vector" d="M66.66 71.11C66.66 71.11 59.35 67.23 59.45 67.49L65.53 78.3C65.81 78.98 66.81 78.98 67.1 78.3L73.07 67.49C73.18 67.23 66.66 71.11 66.66 71.11L66.66 71.11Z" fill="#E51F33" fill-opacity="1.000000" fill-rule="nonzero"/>
		<path id="Vector" d="M66.41 59.93C64.69 62.97 60.76 64.96 57.63 66.63L58.97 67.42L64.97 71.38C65.85 71.97 67.02 71.99 67.92 71.42L73.22 67.57L74.67 66.53C71.53 64.87 68.12 62.97 66.41 59.93L66.41 59.93Z" fill="#25272D" fill-opacity="1.000000" fill-rule="nonzero"/>
		<path id="Vector" d="M94.34 24.9C81.19 24.31 70.02 34.38 69.21 47.13C68.44 59.27 78.96 70.37 92.15 71.1C105.29 71.83 116.45 61.83 117.06 49.07C117.67 36.31 107.5 25.49 94.35 24.91L94.34 24.9Z" fill="#F4F4F4" fill-opacity="1.000000" fill-rule="nonzero"/>
		<path id="Vector" d="M100.82 40.14C100.75 40.04 100.7 39.99 100.7 39.99L95.34 36.81L78.17 47.56C78.16 47.58 72.47 51.36 72.46 51.38C72.46 51.38 73.89 51.04 75.36 50.51C75.67 50.39 77.92 49.9 77.94 50C79.42 58.8 89.24 60.79 89.24 60.79C96.59 62.51 102.86 57.19 104.13 51.87C105.18 47.51 103.78 43.16 100.82 40.15L100.82 40.14Z" fill="#505259" fill-opacity="1.000000" fill-rule="nonzero"/>
		<path id="Vector" d="M100.07 42.75L100.05 42.8C95.48 41.74 92.35 40.89 87.77 43.43C85.96 44.43 84.48 46.68 82.35 48.08C81.5 53.24 84.91 58.22 90.23 59.42C95.8 60.67 101.35 57.31 102.64 51.91C103.45 48.51 102.37 45.11 100.07 42.75Z" fill="#FFFFFF" fill-opacity="1.000000" fill-rule="nonzero"/>
		<path id="Vector" d="M97.58 45.04C100.21 47.84 99.99 52.17 97.1 54.73C94.21 57.29 89.73 57.1 87.11 54.31C84.48 51.52 84.7 47.18 87.59 44.62C90.48 42.06 94.96 42.25 97.58 45.04Z" fill="#25272D" fill-opacity="1.000000" fill-rule="evenodd"/>
		<path id="Vector" d="M100.07 42.75C99.27 41.93 98.32 41.23 97.25 40.7C96.51 40.35 95.73 40.07 94.9 39.88C94.46 39.78 94.03 39.71 93.59 39.67C92.26 39.99 90.86 40.58 89.15 41.53C87.43 42.48 85.36 43.78 83.35 45.1C82.98 45.81 82.68 46.58 82.49 47.39C82.44 47.59 82.4 47.8 82.37 48.01C82.36 48.03 82.36 48.05 82.35 48.08C84.47 46.68 86.3 44.88 88.11 43.87C92.69 41.34 95.55 41.76 100.14 42.82L100.07 42.75Z" fill="#CECECE" fill-opacity="1.000000" fill-rule="nonzero"/>
		<path id="Vector" d="M97.68 45.88C97.37 45.4 96.75 45.03 96.26 45.14C95.84 45.22 95.62 45.63 95.62 46.07C95.63 46.51 95.83 46.97 96.08 47.4C96.24 47.66 96.43 47.93 96.7 48.08C97.14 48.31 97.62 48.11 97.79 47.76C97.92 47.48 97.93 47.38 97.93 47.38C98.05 46.92 98 46.36 97.67 45.88L97.68 45.88Z" fill="#FFFFFF" fill-opacity="1.000000" fill-rule="nonzero"/>
		<path id="Vector" d="M72.47 51.37C72.56 51.36 73.94 51.03 75.36 50.51C75.47 50.47 76.51 49.74 78.04 48.69C79.5 47.68 81.39 46.39 83.35 45.1C85.36 43.78 87.44 42.48 89.15 41.53C90.86 40.58 92.27 39.99 93.6 39.67C97.71 38.67 101.41 40.58 102.21 41.81L109.64 36.8C88.93 31.54 72.65 51.24 72.47 51.37Z" fill="#25272D" fill-opacity="1.000000" fill-rule="nonzero"/>
		<path id="Vector" d="M63.46 46.92C62.64 34.17 51.48 24.1 38.32 24.69C25.17 25.28 15 36.1 15.61 48.86C16.22 61.61 27.38 71.62 40.52 70.89C53.71 70.15 64.23 59.06 63.46 46.92L63.46 46.92Z" fill="#F4F4F4" fill-opacity="1.000000" fill-rule="nonzero"/>
		<path id="Vector" d="M54.5 47.35L37.32 36.59L31.96 39.77C31.96 39.77 31.92 39.83 31.84 39.93C28.88 42.94 27.49 47.3 28.53 51.66C29.8 56.97 36.07 62.29 43.42 60.58C43.42 60.58 53.24 58.59 54.72 49.79C54.74 49.69 57 50.18 57.3 50.29C58.78 50.83 60.2 51.16 60.2 51.16C60.2 51.15 54.5 47.37 54.5 47.35L54.5 47.35Z" fill="#505259" fill-opacity="1.000000" fill-rule="nonzero"/>
		<path id="Vector" d="M50.3 47.87C48.19 46.47 46.7 44.3 44.89 43.29C40.31 40.75 37.19 41.53 32.61 42.59L32.59 42.54C30.29 44.9 29.21 48.3 30.02 51.7C31.31 57.1 36.86 60.46 42.42 59.21C47.75 58.01 51.16 53.02 50.3 47.87Z" fill="#FFFFFF" fill-opacity="1.000000" fill-rule="nonzero"/>
		<path id="Vector" d="M45.07 44.42C47.96 46.98 48.16 51.34 45.5 54.17C42.84 56.99 38.35 57.21 35.45 54.65C32.56 52.09 32.37 47.72 35.02 44.9C37.68 42.07 42.17 41.86 45.07 44.42Z" fill="#25272D" fill-opacity="1.000000" fill-rule="evenodd"/>
		<path id="Vector" d="M50.29 47.8C50.26 47.59 50.22 47.38 50.17 47.18C49.98 46.37 49.69 45.6 49.31 44.89C47.3 43.57 45.23 42.27 43.51 41.32C41.8 40.37 40.39 39.78 39.07 39.46C38.63 39.5 38.2 39.57 37.76 39.67C36.93 39.85 36.14 40.14 35.41 40.49C34.34 41.02 33.39 41.72 32.59 42.54L32.52 42.61C37.1 41.55 40 41.12 44.58 43.66C46.39 44.67 48.19 46.47 50.3 47.87C50.3 47.84 50.3 47.82 50.29 47.8Z" fill="#CECECE" fill-opacity="1.000000" fill-rule="nonzero"/>
		<path id="Vector" d="M36.4 45.14C35.92 45.04 35.3 45.4 34.99 45.88C34.67 46.36 34.62 46.92 34.73 47.38C34.73 47.38 34.74 47.48 34.87 47.76C35.05 48.11 35.52 48.31 35.96 48.08C36.23 47.93 36.42 47.66 36.58 47.39C36.83 46.97 37.03 46.5 37.04 46.07C37.05 45.63 36.82 45.22 36.4 45.13L36.4 45.14Z" fill="#FFFFFF" fill-opacity="1.000000" fill-rule="nonzero"/>
		<path id="Vector" d="M22.8 36.59L30.4 41.7C31.19 40.47 34.72 38.45 38.83 39.45C40.16 39.78 41.57 40.36 43.28 41.31C45 42.26 47.07 43.57 49.08 44.89C51.04 46.17 52.93 47.47 54.39 48.47C55.92 49.52 56.83 50.15 56.94 50.19C58.45 50.72 60.11 51.14 60.2 51.16C60.02 51.03 43.5 31.32 22.8 36.59L22.8 36.59Z" fill="#25272D" fill-opacity="1.000000" fill-rule="nonzero"/>
		<path id="Vector" d="M89.84 24.41L88.75 25.47C85.71 26.99 88.89 25.21 86.14 27.16C83.1 29.31 81.12 31.86 78.37 34.31C74.25 37.97 58.49 37.81 54.31 34.1C51.56 31.65 49.58 29.1 46.55 26.96C43.79 25 46.97 26.78 43.93 25.26L42.84 24.21C40.66 23.99 35.94 24.74 33.55 25.37C38.15 27.36 39.71 28.47 43.75 31.33C46.78 33.48 49.57 35.9 52.32 38.35C56.75 42.3 60.31 47.75 62.49 54.52C62.94 53.49 63.69 51.16 63.33 47.16L69.48 46.65C68.59 49.53 69.71 53.6 70.16 54.64C72.34 47.87 75.92 42.51 80.35 38.56C83.1 36.11 85.9 33.69 88.93 31.54C92.97 28.67 94.6 27.58 99.2 25.59C96.78 25.01 92.02 24.2 89.84 24.41L89.84 24.41Z" fill="#CECECE" fill-opacity="1.000000" fill-rule="nonzero"/>
		<path id="Vector" d="M66.37 0.01L66.37 0C50.11 -0.14 33.77 3.57 22.99 10.85L51.72 31.03L66.25 48.98L66.25 49.14L66.32 49.06L66.37 49.13L66.37 49L81.38 30.24L109.64 10.86C98.88 3.6 82.6 -0.11 66.37 0.01Z" fill="#E51F33" fill-opacity="1.000000" fill-rule="nonzero"/>
		<path id="Vector" d="M126.76 8.91C124.06 6.87 120.07 6.83 116.35 7.19C116.12 7.21 115.93 7.09 115.86 6.92C115.8 6.78 115.81 6.62 115.93 6.48C117.34 4.83 109.96 4.79 101.71 8.04C97.31 9.96 93.18 12.65 89.48 15.74C86.71 18.06 84.18 20.6 81.96 23.22C76.69 29.43 70.75 36.74 66.24 43.48C61.74 36.76 55.82 29.48 50.56 23.28C48.34 20.67 45.81 18.12 43.04 15.8C39.34 12.71 35.21 10.02 30.82 8.1C22.56 4.86 15.18 4.89 16.6 6.54C16.71 6.68 16.72 6.84 16.66 6.98C16.58 7.15 16.41 7.27 16.17 7.25C12.46 6.9 8.46 6.93 5.76 8.97C5.46 9.19 5.56 9.63 5.92 9.73C12.25 11.48 18.62 13.31 24.69 15.63C28.53 17.1 32.25 18.76 35.76 20.73C35.77 20.74 35.78 20.74 35.79 20.74C40.39 23.15 44.74 25.92 48.6 29.29C51.13 31.49 53.42 33.93 55.67 36.39C57.84 38.75 59.98 41.91 62.09 45.21C63.18 47.53 64.3 53.4 63.94 55.59C63.9 55.84 65.36 55.02 66.31 54.35C67.26 55.01 68.62 55.77 68.58 55.53C68.23 53.33 69.35 47.47 70.44 45.15C72.55 41.85 74.69 38.69 76.85 36.33C79.1 33.87 81.39 31.43 83.92 29.22C87.79 25.86 92.14 23.09 96.74 20.68C96.75 20.68 96.75 20.67 96.76 20.67C100.28 18.7 104 17.03 107.84 15.57C113.91 13.25 120.28 11.42 126.61 9.67C126.97 9.57 127.06 9.13 126.77 8.91L126.76 8.91Z" fill="#383744" fill-opacity="1.000000" fill-rule="nonzero"/>
	</g>
</svg>
