<svg width="25" height="25" viewBox="0 0 25 25" fill="none" xmlns="http://www.w3.org/2000/svg">
<path d="M14.584 2.0835C14.584 2.0835 16.8757 2.29183 19.7923 5.2085C22.709 8.12516 22.9173 10.4168 22.9173 10.4168" stroke="#FFF" stroke-width="1.5" stroke-linecap="round"/>
<path d="M14.7988 5.76611C14.7988 5.76611 15.83 6.06074 17.3768 7.60754C18.9236 9.15433 19.2182 10.1855 19.2182 10.1855" stroke="#FFF" stroke-width="1.5" stroke-linecap="round"/>
<path d="M10.4552 5.53752L11.1312 6.7489C11.7413 7.84211 11.4964 9.27622 10.5355 10.2371C10.5355 10.2371 10.5355 10.2371 10.5355 10.2371C10.5354 10.2372 9.37005 11.4028 11.4832 13.516C13.5957 15.6285 14.7612 14.4645 14.7621 14.4637C14.7621 14.4637 14.7621 14.4637 14.7621 14.4636C15.723 13.5028 17.1571 13.2579 18.2503 13.868L19.4617 14.544C21.1124 15.4653 21.3074 17.7803 19.8564 19.2313C18.9845 20.1032 17.9164 20.7816 16.7357 20.8263C14.7481 20.9017 11.3726 20.3987 7.98654 17.0126C4.60052 13.6266 4.09749 10.2511 4.17284 8.26347C4.2176 7.08275 4.89602 6.01467 5.7679 5.14279C7.21889 3.6918 9.5339 3.88675 10.4552 5.53752Z" stroke="#FFF" stroke-width="1.5" stroke-linecap="round"/>
</svg>
